M48
; DRILL file {KiCad 8.0.6-8.0.6-0~ubuntu24.04.1} date 2025-07-04T19:00:10-0400
; FORMAT={-:-/ absolute / inch / decimal}
; #@! TF.CreationDate,2025-07-04T19:00:10-04:00
; #@! TF.GenerationSoftware,Kicad,Pcbnew,8.0.6-8.0.6-0~ubuntu24.04.1
; #@! TF.FileFunction,MixedPlating,1,2
FMAT,2
INCH
; #@! TA.AperFunction,Plated,PTH,ViaDrill
T1C0.0118
; #@! TA.AperFunction,Plated,PTH,ComponentDrill
T2C0.0276
; #@! TA.AperFunction,Plated,PTH,ComponentDrill
T3C0.0295
; #@! TA.AperFunction,Plated,PTH,ComponentDrill
T4C0.0315
; #@! TA.AperFunction,Plated,PTH,ComponentDrill
T5C0.0354
; #@! TA.AperFunction,Plated,PTH,ComponentDrill
T6C0.0390
; #@! TA.AperFunction,Plated,PTH,ComponentDrill
T7C0.0394
; #@! TA.AperFunction,Plated,PTH,ComponentDrill
T8C0.0430
; #@! TA.AperFunction,Plated,PTH,ComponentDrill
T9C0.0512
; #@! TA.AperFunction,NonPlated,NPTH,ComponentDrill
T10C0.1260
%
G90
G05
T1
X4.0236Y-2.748
X4.0315Y-3.1024
X4.0315Y-3.4724
X4.0315Y-3.8504
X4.0709Y-2.4331
X4.0787Y-2.0551
X4.0827Y-1.8386
X4.1102Y-3.9213
X4.2205Y-2.378
X4.2441Y-1.5945
X4.2756Y-2.7323
X4.2756Y-4.0079
X4.2795Y-1.8858
X4.2835Y-2.4331
X4.3071Y-3.1024
X4.311Y-2.6378
X4.378Y-1.7874
X4.378Y-1.8858
X4.378Y-2.4331
X4.4252Y-3.2205
X4.4331Y-2.8504
X4.4409Y-3.9331
X4.4724Y-2.4331
X4.5276Y-2.7717
X4.5669Y-1.7244
X4.5669Y-1.7874
X4.5669Y-3.0
X4.6063Y-2.2835
X4.6457Y-3.5906
X4.6535Y-2.7008
X4.6654Y-1.5945
X4.7165Y-2.8661
X4.7244Y-2.6752
X4.748Y-1.689
X4.748Y-1.7638
X4.7795Y-2.063
X4.7795Y-2.3307
X4.8346Y-2.1496
X4.8661Y-1.811
X4.8661Y-3.0709
X4.8701Y-3.937
X4.874Y-1.5906
X4.8819Y-2.0315
X4.8819Y-2.9764
X4.9134Y-2.4882
X4.9213Y-1.7717
X4.937Y-2.6693
X4.9449Y-3.063
X4.9764Y-3.4488
X4.9921Y-1.7244
X4.9921Y-2.8583
X5.0236Y-3.937
X5.0787Y-1.622
X5.1024Y-2.0335
X5.1024Y-3.4803
X5.1102Y-2.7008
X5.1378Y-1.8465
X5.1417Y-2.189
X5.2126Y-1.7402
X5.2835Y-2.8819
X5.3071Y-3.189
X5.3228Y-2.4803
X5.3543Y-3.2362
X5.4094Y-3.4252
X5.4252Y-1.5906
X5.4409Y-2.8583
X5.4449Y-1.7776
X5.4567Y-2.2756
X5.4724Y-4.0157
X5.4882Y-2.2441
X5.5118Y-1.7008
X5.5197Y-1.7402
X5.5512Y-2.0886
X5.5661Y-2.9764
X5.5669Y-2.7874
X5.5984Y-2.3465
X5.6063Y-1.8898
X5.6142Y-2.063
X5.6378Y-3.0236
X5.6457Y-1.9449
X5.6496Y-1.6693
X5.6693Y-3.937
X5.6772Y-2.0551
X5.685Y-1.9055
X5.7165Y-2.3071
X5.748Y-2.0079
X5.7874Y-2.8504
X5.8031Y-2.2441
X5.8346Y-1.9055
X5.8425Y-1.626
X5.8583Y-2.6929
X5.8661Y-3.0709
X5.8819Y-1.7362
X5.8898Y-2.315
X5.9134Y-3.9449
X5.9449Y-3.4331
X5.9764Y-2.2441
X6.0Y-2.315
X6.0Y-2.7795
X6.0433Y-2.6378
X6.063Y-2.5
X6.1094Y-4.0157
X6.1181Y-3.8898
X6.1339Y-3.8504
X6.1575Y-3.1024
X6.1654Y-1.7953
X6.1693Y-1.6339
X6.2047Y-3.0787
X6.2165Y-2.1417
X6.2362Y-2.0787
X6.2638Y-1.6339
X6.2874Y-3.5079
X6.3386Y-2.0472
X6.3701Y-3.4606
X6.3937Y-2.6929
X6.4094Y-2.0394
X6.4252Y-2.1358
X6.4409Y-1.5748
X6.4567Y-2.0709
X6.5354Y-2.1969
X6.5551Y-2.626
X6.5669Y-2.1102
X6.5945Y-3.7126
X6.5984Y-1.8819
X6.6299Y-2.0236
X6.6378Y-1.685
X6.6378Y-4.1181
X6.6693Y-2.7953
X6.685Y-2.6811
X6.6929Y-1.8543
X6.7165Y-3.2953
X6.7244Y-2.1575
X6.7323Y-2.626
X6.748Y-1.622
X6.752Y-1.6772
X6.752Y-3.937
X6.7559Y-3.5591
X6.7598Y-3.2992
X6.8031Y-3.2953
X6.8071Y-2.689
X6.8071Y-3.4094
X6.8071Y-3.8898
X6.8189Y-2.3484
X6.8425Y-2.2205
X6.8425Y-3.4488
X6.8465Y-3.4055
X6.878Y-3.7874
X6.8819Y-2.0866
X6.8898Y-2.8307
X6.8898Y-3.2992
X6.8937Y-3.1969
X6.9331Y-2.6772
X6.9331Y-3.2835
X6.937Y-2.315
X6.9528Y-2.0433
X7.0236Y-3.4016
X7.0236Y-3.5551
X7.0378Y-1.8386
X7.0433Y-2.311
X7.0551Y-2.7323
X7.0866Y-2.3543
X7.0945Y-2.0079
X7.1339Y-2.311
X7.1457Y-2.874
X7.1732Y-1.6929
X7.1732Y-2.4646
X7.2047Y-1.7913
X7.2362Y-2.4173
X7.3307Y-1.8386
X7.3386Y-2.4173
X7.378Y-2.9764
X7.378Y-3.1929
X7.378Y-3.5551
X7.4094Y-1.752
X7.4094Y-2.4173
T2
X4.2518Y-1.8386
X4.3266Y-1.8386
X4.4919Y-1.8386
X4.5667Y-1.8386
X4.7402Y-1.8386
X4.815Y-1.8386
X4.9961Y-1.8386
X5.0709Y-1.8386
X6.2283Y-1.6929
X6.2283Y-1.7677
X6.311Y-1.6929
X6.311Y-1.7677
X6.3976Y-1.6929
X6.3976Y-1.7677
X6.4803Y-1.6929
X6.4803Y-1.7677
T3
X5.0394Y-1.689
X5.1181Y-1.689
T4
X4.4449Y-4.0315
X4.5236Y-4.0315
X4.6024Y-4.0315
X4.6811Y-4.0315
X6.752Y-4.0354
X6.8307Y-4.0354
X6.9094Y-4.0354
X6.9882Y-4.0354
T5
X5.3465Y-1.6244
X5.3465Y-1.7244
X6.0827Y-1.6191
X6.0827Y-1.7191
T6
X4.1063Y-2.7165
X4.1063Y-2.8937
X4.1063Y-3.0945
X4.1063Y-3.2717
X4.1063Y-3.4724
X4.1063Y-3.6496
X4.1063Y-3.8504
X4.1063Y-4.0276
X7.3189Y-2.7165
X7.3189Y-2.8937
X7.3189Y-3.0945
X7.3189Y-3.2717
X7.3189Y-3.4724
X7.3189Y-3.6496
X7.3189Y-3.8543
X7.3189Y-4.0315
T7
X4.4654Y-1.6693
X4.5654Y-1.6693
X4.6654Y-1.6693
X4.8386Y-2.7795
X4.9386Y-2.7795
X5.0236Y-4.063
X5.0236Y-4.163
X5.0236Y-4.263
X5.0386Y-2.7795
X5.1386Y-2.7795
X5.5591Y-2.4488
X5.5661Y-3.1614
X5.6661Y-3.1614
X5.7323Y-1.6378
X5.7661Y-3.1614
X5.8583Y-2.4488
X5.8661Y-3.1614
X6.2913Y-2.7795
X6.3913Y-2.7795
X6.4913Y-2.7795
X6.5913Y-2.7795
X6.5937Y-1.752
X6.6937Y-1.752
X6.7937Y-1.752
X6.8937Y-1.752
X6.9937Y-1.752
X7.0937Y-1.752
T8
X4.0787Y-1.9504
X4.0787Y-2.5504
X4.1787Y-1.9504
X4.1787Y-2.5504
X4.2787Y-1.9504
X4.2787Y-2.5504
X4.3787Y-1.9504
X4.3787Y-2.5504
X4.4787Y-1.9504
X4.4787Y-2.5504
X4.5787Y-1.9504
X4.5787Y-2.5504
X4.6787Y-1.9504
X4.6787Y-2.5504
X4.7787Y-1.9504
X4.7787Y-2.5504
X4.8787Y-1.9504
X4.8787Y-2.5504
X4.9787Y-1.9504
X4.9787Y-2.5504
X5.0787Y-1.9504
X5.0787Y-2.5504
X5.1787Y-1.9504
X5.1787Y-2.5504
X5.2787Y-1.9504
X5.2787Y-2.5504
X6.1378Y-1.9472
X6.1378Y-2.5472
X6.2378Y-1.9472
X6.2378Y-2.5472
X6.3378Y-1.9472
X6.3378Y-2.5472
X6.4378Y-1.9472
X6.4378Y-2.5472
X6.5378Y-1.9472
X6.5378Y-2.5472
X6.6378Y-1.9472
X6.6378Y-2.5472
X6.7378Y-1.9472
X6.7378Y-2.5472
X6.8378Y-1.9472
X6.8378Y-2.5472
X6.9378Y-1.9472
X6.9378Y-2.5472
X7.0378Y-1.9472
X7.0378Y-2.5472
X7.1378Y-1.9472
X7.1378Y-2.5472
X7.2378Y-1.9472
X7.2378Y-2.5472
X7.3378Y-1.9472
X7.3378Y-2.5472
T9
X4.2043Y-2.6669
X4.2043Y-2.9429
X4.2043Y-3.0449
X4.2043Y-3.3209
X4.2043Y-3.4228
X4.2043Y-3.6988
X4.2043Y-3.8008
X4.2043Y-4.0768
X5.2677Y-4.126
X5.4677Y-4.126
X5.6677Y-4.126
X5.9094Y-4.126
X6.1094Y-4.126
X6.3094Y-4.126
X6.5094Y-4.126
X7.2209Y-2.6673
X7.2209Y-2.9433
X7.2209Y-3.0453
X7.2209Y-3.3213
X7.2209Y-3.4232
X7.2209Y-3.6992
X7.2209Y-3.8051
X7.2209Y-4.0811
T10
X4.1102Y-1.6732
X4.1142Y-4.2717
X7.2992Y-1.6732
X7.2992Y-4.2717
M30
