%TF.GenerationSoftware,KiCad,Pcbnew,8.0.6-8.0.6-0~ubuntu24.04.1*%
%TF.CreationDate,2025-07-04T19:00:08-04:00*%
%TF.ProjectId,meshbot_kicad,6d657368-626f-4745-9f6b-696361642e6b,rev?*%
%TF.SameCoordinates,Original*%
%TF.FileFunction,Soldermask,Bot*%
%TF.FilePolarity,Negative*%
%FSLAX46Y46*%
G04 Gerber Fmt 4.6, Leading zero omitted, Abs format (unit mm)*
G04 Created by KiCad (PCBNEW 8.0.6-8.0.6-0~ubuntu24.04.1) date 2025-07-04 19:00:08*
%MOMM*%
%LPD*%
G01*
G04 APERTURE LIST*
G04 Aperture macros list*
%AMRoundRect*
0 Rectangle with rounded corners*
0 $1 Rounding radius*
0 $2 $3 $4 $5 $6 $7 $8 $9 X,Y pos of 4 corners*
0 Add a 4 corners polygon primitive as box body*
4,1,4,$2,$3,$4,$5,$6,$7,$8,$9,$2,$3,0*
0 Add four circle primitives for the rounded corners*
1,1,$1+$1,$2,$3*
1,1,$1+$1,$4,$5*
1,1,$1+$1,$6,$7*
1,1,$1+$1,$8,$9*
0 Add four rect primitives between the rounded corners*
20,1,$1+$1,$2,$3,$4,$5,0*
20,1,$1+$1,$4,$5,$6,$7,0*
20,1,$1+$1,$6,$7,$8,$9,0*
20,1,$1+$1,$8,$9,$2,$3,0*%
G04 Aperture macros list end*
%ADD10R,1.700000X1.700000*%
%ADD11O,1.700000X1.700000*%
%ADD12C,1.400000*%
%ADD13O,1.400000X1.400000*%
%ADD14R,1.800000X1.800000*%
%ADD15C,1.800000*%
%ADD16R,0.700000X1.750000*%
%ADD17R,1.300000X1.500000*%
%ADD18R,0.800000X1.500000*%
%ADD19R,1.450000X1.000000*%
%ADD20R,0.800000X1.400000*%
%ADD21R,1.500000X1.500000*%
%ADD22R,1.000000X1.550000*%
%ADD23RoundRect,0.250000X0.350000X0.625000X-0.350000X0.625000X-0.350000X-0.625000X0.350000X-0.625000X0*%
%ADD24O,1.200000X1.750000*%
%ADD25C,1.752600*%
%ADD26O,1.350000X1.350000*%
%ADD27R,1.350000X1.350000*%
%ADD28C,3.200000*%
%ADD29R,2.600000X2.600000*%
%ADD30C,2.600000*%
%ADD31C,1.750000*%
%ADD32C,2.100000*%
%ADD33R,2.000000X2.000000*%
%ADD34C,2.000000*%
G04 APERTURE END LIST*
D10*
%TO.C,J12*%
X167480000Y-44500000D03*
D11*
X170020000Y-44500000D03*
X172560000Y-44500000D03*
X175100000Y-44500000D03*
X177640000Y-44500000D03*
X180180000Y-44500000D03*
%TD*%
D12*
%TO.C,R8*%
X164600000Y-44900000D03*
D13*
X164600000Y-43000000D03*
%TD*%
D14*
%TO.C,D1*%
X154500000Y-41125000D03*
D15*
X154500000Y-43665000D03*
%TD*%
D16*
%TO.C,J10*%
X177200000Y-85200000D03*
D17*
X178400000Y-85075000D03*
D18*
X178650000Y-77475000D03*
D19*
X178325000Y-75975000D03*
D20*
X166700000Y-76825000D03*
D16*
X176100000Y-85200000D03*
X175000000Y-85200000D03*
X173900000Y-85200000D03*
X172800000Y-85200000D03*
X171700000Y-85200000D03*
X170600000Y-85200000D03*
X169500000Y-85200000D03*
D21*
X167050000Y-85075000D03*
D22*
X167100000Y-74400000D03*
%TD*%
D23*
%TO.C,J1*%
X130000000Y-42900000D03*
D24*
X128000000Y-42900000D03*
%TD*%
D25*
%TO.C,U2*%
X106140000Y-64780000D03*
X108680000Y-64780000D03*
X111220000Y-64780000D03*
X113760000Y-64780000D03*
X116300000Y-64780000D03*
X118840000Y-64780000D03*
X121380000Y-64780000D03*
X123920000Y-64780000D03*
X126460000Y-64780000D03*
X129000000Y-64780000D03*
X131540000Y-64780000D03*
X134080000Y-64780000D03*
X134080000Y-49540000D03*
X131540000Y-49540000D03*
X129000000Y-49540000D03*
X126460000Y-49540000D03*
X123920000Y-49540000D03*
X121380000Y-49540000D03*
X118840000Y-49540000D03*
X116300000Y-49540000D03*
X113760000Y-49540000D03*
X111220000Y-49540000D03*
X108680000Y-49540000D03*
X106140000Y-49540000D03*
X103600000Y-49540000D03*
X103600000Y-64780000D03*
%TD*%
D11*
%TO.C,J5*%
X159800000Y-70600000D03*
X162340000Y-70600000D03*
X164880000Y-70600000D03*
D10*
X167420000Y-70600000D03*
%TD*%
D26*
%TO.C,U5*%
X171500000Y-102500000D03*
X173500000Y-102500000D03*
X175500000Y-102500000D03*
D27*
X177500000Y-102500000D03*
%TD*%
D28*
%TO.C,H4*%
X104500000Y-108500000D03*
%TD*%
D29*
%TO.C,J6*%
X150100000Y-104800000D03*
D30*
X155180000Y-104800000D03*
X160260000Y-104800000D03*
X165340000Y-104800000D03*
%TD*%
D31*
%TO.C,SW1*%
X104300000Y-69000000D03*
X104300000Y-73500000D03*
D32*
X106790000Y-67740000D03*
X106790000Y-74750000D03*
%TD*%
D12*
%TO.C,R1*%
X114095000Y-46700000D03*
D13*
X115995000Y-46700000D03*
%TD*%
D10*
%TO.C,J11*%
X127600000Y-108280000D03*
D11*
X127600000Y-105740000D03*
X127600000Y-103200000D03*
%TD*%
D31*
%TO.C,SW2*%
X104300000Y-78600000D03*
X104300000Y-83100000D03*
D32*
X106790000Y-77340000D03*
X106790000Y-84350000D03*
%TD*%
D33*
%TO.C,J9*%
X141200000Y-62200000D03*
D34*
X148800000Y-62200000D03*
%TD*%
D31*
%TO.C,SW7*%
X104300000Y-88200000D03*
X104300000Y-92700000D03*
D32*
X106790000Y-86940000D03*
X106790000Y-93950000D03*
%TD*%
D28*
%TO.C,H1*%
X104400000Y-42500000D03*
%TD*%
D12*
%TO.C,R6*%
X160300000Y-44900000D03*
D13*
X160300000Y-43000000D03*
%TD*%
D31*
%TO.C,SW8*%
X104300000Y-97800000D03*
X104300000Y-102300000D03*
D32*
X106790000Y-96540000D03*
X106790000Y-103550000D03*
%TD*%
D31*
%TO.C,SW6*%
X185900000Y-102400000D03*
X185900000Y-97900000D03*
D32*
X183410000Y-103660000D03*
X183410000Y-96650000D03*
%TD*%
D12*
%TO.C,R7*%
X158200000Y-43000000D03*
D13*
X158200000Y-44900000D03*
%TD*%
D14*
%TO.C,D2*%
X135800000Y-41260000D03*
D15*
X135800000Y-43800000D03*
%TD*%
D31*
%TO.C,SW5*%
X185900000Y-92700000D03*
X185900000Y-88200000D03*
D32*
X183410000Y-93960000D03*
X183410000Y-86950000D03*
%TD*%
D12*
%TO.C,R5*%
X162500000Y-44900000D03*
D13*
X162500000Y-43000000D03*
%TD*%
D31*
%TO.C,SW3*%
X185900000Y-73500000D03*
X185900000Y-69000000D03*
D32*
X183410000Y-74760000D03*
X183410000Y-67750000D03*
%TD*%
D11*
%TO.C,J3*%
X122900000Y-70600000D03*
X125440000Y-70600000D03*
X127980000Y-70600000D03*
D10*
X130520000Y-70600000D03*
%TD*%
D12*
%TO.C,R3*%
X128800000Y-46700000D03*
D13*
X126900000Y-46700000D03*
%TD*%
D12*
%TO.C,R2*%
X107995000Y-46700000D03*
D13*
X109895000Y-46700000D03*
%TD*%
D26*
%TO.C,U4*%
X112900000Y-102400000D03*
X114900000Y-102400000D03*
X116900000Y-102400000D03*
D27*
X118900000Y-102400000D03*
%TD*%
D31*
%TO.C,SW4*%
X185900000Y-83100000D03*
X185900000Y-78600000D03*
D32*
X183410000Y-84360000D03*
X183410000Y-77350000D03*
%TD*%
D28*
%TO.C,H3*%
X185400000Y-108500000D03*
%TD*%
D10*
%TO.C,J8*%
X118500000Y-42400000D03*
D11*
X115960000Y-42400000D03*
X113420000Y-42400000D03*
%TD*%
D29*
%TO.C,J7*%
X133800000Y-104800000D03*
D30*
X138880000Y-104800000D03*
X143960000Y-104800000D03*
%TD*%
D10*
%TO.C,J4*%
X145600000Y-41600000D03*
%TD*%
D12*
%TO.C,R4*%
X122300000Y-46700000D03*
D13*
X120400000Y-46700000D03*
%TD*%
D28*
%TO.C,H2*%
X185400000Y-42500000D03*
%TD*%
D25*
%TO.C,U3*%
X186380000Y-49460000D03*
X186380000Y-64700000D03*
X183840000Y-64700000D03*
X181300000Y-64700000D03*
X178760000Y-64700000D03*
X176220000Y-64700000D03*
X173680000Y-64700000D03*
X171140000Y-64700000D03*
X168600000Y-64700000D03*
X166060000Y-64700000D03*
X163520000Y-64700000D03*
X160980000Y-64700000D03*
X158440000Y-64700000D03*
X155900000Y-64700000D03*
X155900000Y-49460000D03*
X158440000Y-49460000D03*
X160980000Y-49460000D03*
X163520000Y-49460000D03*
X166060000Y-49460000D03*
X168600000Y-49460000D03*
X171140000Y-49460000D03*
X173680000Y-49460000D03*
X176220000Y-49460000D03*
X178760000Y-49460000D03*
X181300000Y-49460000D03*
X183840000Y-49460000D03*
%TD*%
D10*
%TO.C,J2*%
X141380000Y-80300000D03*
D11*
X143920000Y-80300000D03*
X146460000Y-80300000D03*
X149000000Y-80300000D03*
%TD*%
M02*
