%TF.GenerationSoftware,KiCad,Pcbnew,8.0.6-8.0.6-0~ubuntu24.04.1*%
%TF.CreationDate,2025-07-02T20:36:48-04:00*%
%TF.ProjectId,meshbot_kicad_v1,6d657368-626f-4745-9f6b-696361645f76,rev?*%
%TF.SameCoordinates,Original*%
%TF.FileFunction,Legend,Top*%
%TF.FilePolarity,Positive*%
%FSLAX46Y46*%
G04 Gerber Fmt 4.6, Leading zero omitted, Abs format (unit mm)*
G04 Created by KiCad (PCBNEW 8.0.6-8.0.6-0~ubuntu24.04.1) date 2025-07-02 20:36:48*
%MOMM*%
%LPD*%
G01*
G04 APERTURE LIST*
%ADD10C,0.150000*%
%ADD11C,0.200000*%
%ADD12C,0.100000*%
%ADD13C,0.120000*%
%ADD14C,0.381000*%
%ADD15C,0.127000*%
%ADD16C,1.752600*%
G04 APERTURE END LIST*
D10*
X129022200Y-111210839D02*
X129069819Y-111067982D01*
X129069819Y-111067982D02*
X129069819Y-110829887D01*
X129069819Y-110829887D02*
X129022200Y-110734649D01*
X129022200Y-110734649D02*
X128974580Y-110687030D01*
X128974580Y-110687030D02*
X128879342Y-110639411D01*
X128879342Y-110639411D02*
X128784104Y-110639411D01*
X128784104Y-110639411D02*
X128688866Y-110687030D01*
X128688866Y-110687030D02*
X128641247Y-110734649D01*
X128641247Y-110734649D02*
X128593628Y-110829887D01*
X128593628Y-110829887D02*
X128546009Y-111020363D01*
X128546009Y-111020363D02*
X128498390Y-111115601D01*
X128498390Y-111115601D02*
X128450771Y-111163220D01*
X128450771Y-111163220D02*
X128355533Y-111210839D01*
X128355533Y-111210839D02*
X128260295Y-111210839D01*
X128260295Y-111210839D02*
X128165057Y-111163220D01*
X128165057Y-111163220D02*
X128117438Y-111115601D01*
X128117438Y-111115601D02*
X128069819Y-111020363D01*
X128069819Y-111020363D02*
X128069819Y-110782268D01*
X128069819Y-110782268D02*
X128117438Y-110639411D01*
X128974580Y-110210839D02*
X129022200Y-110163220D01*
X129022200Y-110163220D02*
X129069819Y-110210839D01*
X129069819Y-110210839D02*
X129022200Y-110258458D01*
X129022200Y-110258458D02*
X128974580Y-110210839D01*
X128974580Y-110210839D02*
X129069819Y-110210839D01*
X128450771Y-110210839D02*
X128498390Y-110163220D01*
X128498390Y-110163220D02*
X128546009Y-110210839D01*
X128546009Y-110210839D02*
X128498390Y-110258458D01*
X128498390Y-110258458D02*
X128450771Y-110210839D01*
X128450771Y-110210839D02*
X128546009Y-110210839D01*
X128546009Y-109401316D02*
X128593628Y-109258459D01*
X128593628Y-109258459D02*
X128641247Y-109210840D01*
X128641247Y-109210840D02*
X128736485Y-109163221D01*
X128736485Y-109163221D02*
X128879342Y-109163221D01*
X128879342Y-109163221D02*
X128974580Y-109210840D01*
X128974580Y-109210840D02*
X129022200Y-109258459D01*
X129022200Y-109258459D02*
X129069819Y-109353697D01*
X129069819Y-109353697D02*
X129069819Y-109734649D01*
X129069819Y-109734649D02*
X128069819Y-109734649D01*
X128069819Y-109734649D02*
X128069819Y-109401316D01*
X128069819Y-109401316D02*
X128117438Y-109306078D01*
X128117438Y-109306078D02*
X128165057Y-109258459D01*
X128165057Y-109258459D02*
X128260295Y-109210840D01*
X128260295Y-109210840D02*
X128355533Y-109210840D01*
X128355533Y-109210840D02*
X128450771Y-109258459D01*
X128450771Y-109258459D02*
X128498390Y-109306078D01*
X128498390Y-109306078D02*
X128546009Y-109401316D01*
X128546009Y-109401316D02*
X128546009Y-109734649D01*
X126046009Y-110829887D02*
X126093628Y-110687030D01*
X126093628Y-110687030D02*
X126141247Y-110639411D01*
X126141247Y-110639411D02*
X126236485Y-110591792D01*
X126236485Y-110591792D02*
X126379342Y-110591792D01*
X126379342Y-110591792D02*
X126474580Y-110639411D01*
X126474580Y-110639411D02*
X126522200Y-110687030D01*
X126522200Y-110687030D02*
X126569819Y-110782268D01*
X126569819Y-110782268D02*
X126569819Y-111163220D01*
X126569819Y-111163220D02*
X125569819Y-111163220D01*
X125569819Y-111163220D02*
X125569819Y-110829887D01*
X125569819Y-110829887D02*
X125617438Y-110734649D01*
X125617438Y-110734649D02*
X125665057Y-110687030D01*
X125665057Y-110687030D02*
X125760295Y-110639411D01*
X125760295Y-110639411D02*
X125855533Y-110639411D01*
X125855533Y-110639411D02*
X125950771Y-110687030D01*
X125950771Y-110687030D02*
X125998390Y-110734649D01*
X125998390Y-110734649D02*
X126046009Y-110829887D01*
X126046009Y-110829887D02*
X126046009Y-111163220D01*
X126284104Y-110210839D02*
X126284104Y-109734649D01*
X126569819Y-110306077D02*
X125569819Y-109972744D01*
X125569819Y-109972744D02*
X126569819Y-109639411D01*
X125569819Y-109448934D02*
X125569819Y-108877506D01*
X126569819Y-109163220D02*
X125569819Y-109163220D01*
X123017438Y-110939411D02*
X122969819Y-111034649D01*
X122969819Y-111034649D02*
X122969819Y-111177506D01*
X122969819Y-111177506D02*
X123017438Y-111320363D01*
X123017438Y-111320363D02*
X123112676Y-111415601D01*
X123112676Y-111415601D02*
X123207914Y-111463220D01*
X123207914Y-111463220D02*
X123398390Y-111510839D01*
X123398390Y-111510839D02*
X123541247Y-111510839D01*
X123541247Y-111510839D02*
X123731723Y-111463220D01*
X123731723Y-111463220D02*
X123826961Y-111415601D01*
X123826961Y-111415601D02*
X123922200Y-111320363D01*
X123922200Y-111320363D02*
X123969819Y-111177506D01*
X123969819Y-111177506D02*
X123969819Y-111082268D01*
X123969819Y-111082268D02*
X123922200Y-110939411D01*
X123922200Y-110939411D02*
X123874580Y-110891792D01*
X123874580Y-110891792D02*
X123541247Y-110891792D01*
X123541247Y-110891792D02*
X123541247Y-111082268D01*
X123969819Y-110463220D02*
X122969819Y-110463220D01*
X122969819Y-110463220D02*
X123969819Y-109891792D01*
X123969819Y-109891792D02*
X122969819Y-109891792D01*
X123969819Y-109415601D02*
X122969819Y-109415601D01*
X122969819Y-109415601D02*
X122969819Y-109177506D01*
X122969819Y-109177506D02*
X123017438Y-109034649D01*
X123017438Y-109034649D02*
X123112676Y-108939411D01*
X123112676Y-108939411D02*
X123207914Y-108891792D01*
X123207914Y-108891792D02*
X123398390Y-108844173D01*
X123398390Y-108844173D02*
X123541247Y-108844173D01*
X123541247Y-108844173D02*
X123731723Y-108891792D01*
X123731723Y-108891792D02*
X123826961Y-108939411D01*
X123826961Y-108939411D02*
X123922200Y-109034649D01*
X123922200Y-109034649D02*
X123969819Y-109177506D01*
X123969819Y-109177506D02*
X123969819Y-109415601D01*
X129022200Y-104110839D02*
X129069819Y-103967982D01*
X129069819Y-103967982D02*
X129069819Y-103729887D01*
X129069819Y-103729887D02*
X129022200Y-103634649D01*
X129022200Y-103634649D02*
X128974580Y-103587030D01*
X128974580Y-103587030D02*
X128879342Y-103539411D01*
X128879342Y-103539411D02*
X128784104Y-103539411D01*
X128784104Y-103539411D02*
X128688866Y-103587030D01*
X128688866Y-103587030D02*
X128641247Y-103634649D01*
X128641247Y-103634649D02*
X128593628Y-103729887D01*
X128593628Y-103729887D02*
X128546009Y-103920363D01*
X128546009Y-103920363D02*
X128498390Y-104015601D01*
X128498390Y-104015601D02*
X128450771Y-104063220D01*
X128450771Y-104063220D02*
X128355533Y-104110839D01*
X128355533Y-104110839D02*
X128260295Y-104110839D01*
X128260295Y-104110839D02*
X128165057Y-104063220D01*
X128165057Y-104063220D02*
X128117438Y-104015601D01*
X128117438Y-104015601D02*
X128069819Y-103920363D01*
X128069819Y-103920363D02*
X128069819Y-103682268D01*
X128069819Y-103682268D02*
X128117438Y-103539411D01*
X128974580Y-103110839D02*
X129022200Y-103063220D01*
X129022200Y-103063220D02*
X129069819Y-103110839D01*
X129069819Y-103110839D02*
X129022200Y-103158458D01*
X129022200Y-103158458D02*
X128974580Y-103110839D01*
X128974580Y-103110839D02*
X129069819Y-103110839D01*
X128450771Y-103110839D02*
X128498390Y-103063220D01*
X128498390Y-103063220D02*
X128546009Y-103110839D01*
X128546009Y-103110839D02*
X128498390Y-103158458D01*
X128498390Y-103158458D02*
X128450771Y-103110839D01*
X128450771Y-103110839D02*
X128546009Y-103110839D01*
X128784104Y-102682268D02*
X128784104Y-102206078D01*
X129069819Y-102777506D02*
X128069819Y-102444173D01*
X128069819Y-102444173D02*
X129069819Y-102110840D01*
X126046009Y-103829887D02*
X126093628Y-103687030D01*
X126093628Y-103687030D02*
X126141247Y-103639411D01*
X126141247Y-103639411D02*
X126236485Y-103591792D01*
X126236485Y-103591792D02*
X126379342Y-103591792D01*
X126379342Y-103591792D02*
X126474580Y-103639411D01*
X126474580Y-103639411D02*
X126522200Y-103687030D01*
X126522200Y-103687030D02*
X126569819Y-103782268D01*
X126569819Y-103782268D02*
X126569819Y-104163220D01*
X126569819Y-104163220D02*
X125569819Y-104163220D01*
X125569819Y-104163220D02*
X125569819Y-103829887D01*
X125569819Y-103829887D02*
X125617438Y-103734649D01*
X125617438Y-103734649D02*
X125665057Y-103687030D01*
X125665057Y-103687030D02*
X125760295Y-103639411D01*
X125760295Y-103639411D02*
X125855533Y-103639411D01*
X125855533Y-103639411D02*
X125950771Y-103687030D01*
X125950771Y-103687030D02*
X125998390Y-103734649D01*
X125998390Y-103734649D02*
X126046009Y-103829887D01*
X126046009Y-103829887D02*
X126046009Y-104163220D01*
X126284104Y-103210839D02*
X126284104Y-102734649D01*
X126569819Y-103306077D02*
X125569819Y-102972744D01*
X125569819Y-102972744D02*
X126569819Y-102639411D01*
X125569819Y-102448934D02*
X125569819Y-101877506D01*
X126569819Y-102163220D02*
X125569819Y-102163220D01*
X122917438Y-103739411D02*
X122869819Y-103834649D01*
X122869819Y-103834649D02*
X122869819Y-103977506D01*
X122869819Y-103977506D02*
X122917438Y-104120363D01*
X122917438Y-104120363D02*
X123012676Y-104215601D01*
X123012676Y-104215601D02*
X123107914Y-104263220D01*
X123107914Y-104263220D02*
X123298390Y-104310839D01*
X123298390Y-104310839D02*
X123441247Y-104310839D01*
X123441247Y-104310839D02*
X123631723Y-104263220D01*
X123631723Y-104263220D02*
X123726961Y-104215601D01*
X123726961Y-104215601D02*
X123822200Y-104120363D01*
X123822200Y-104120363D02*
X123869819Y-103977506D01*
X123869819Y-103977506D02*
X123869819Y-103882268D01*
X123869819Y-103882268D02*
X123822200Y-103739411D01*
X123822200Y-103739411D02*
X123774580Y-103691792D01*
X123774580Y-103691792D02*
X123441247Y-103691792D01*
X123441247Y-103691792D02*
X123441247Y-103882268D01*
X123869819Y-103263220D02*
X122869819Y-103263220D01*
X122869819Y-103263220D02*
X123869819Y-102691792D01*
X123869819Y-102691792D02*
X122869819Y-102691792D01*
X123869819Y-102215601D02*
X122869819Y-102215601D01*
X122869819Y-102215601D02*
X122869819Y-101977506D01*
X122869819Y-101977506D02*
X122917438Y-101834649D01*
X122917438Y-101834649D02*
X123012676Y-101739411D01*
X123012676Y-101739411D02*
X123107914Y-101691792D01*
X123107914Y-101691792D02*
X123298390Y-101644173D01*
X123298390Y-101644173D02*
X123441247Y-101644173D01*
X123441247Y-101644173D02*
X123631723Y-101691792D01*
X123631723Y-101691792D02*
X123726961Y-101739411D01*
X123726961Y-101739411D02*
X123822200Y-101834649D01*
X123822200Y-101834649D02*
X123869819Y-101977506D01*
X123869819Y-101977506D02*
X123869819Y-102215601D01*
X176965057Y-42810839D02*
X176917438Y-42763220D01*
X176917438Y-42763220D02*
X176869819Y-42667982D01*
X176869819Y-42667982D02*
X176869819Y-42429887D01*
X176869819Y-42429887D02*
X176917438Y-42334649D01*
X176917438Y-42334649D02*
X176965057Y-42287030D01*
X176965057Y-42287030D02*
X177060295Y-42239411D01*
X177060295Y-42239411D02*
X177155533Y-42239411D01*
X177155533Y-42239411D02*
X177298390Y-42287030D01*
X177298390Y-42287030D02*
X177869819Y-42858458D01*
X177869819Y-42858458D02*
X177869819Y-42239411D01*
X177869819Y-41763220D02*
X177869819Y-41572744D01*
X177869819Y-41572744D02*
X177822200Y-41477506D01*
X177822200Y-41477506D02*
X177774580Y-41429887D01*
X177774580Y-41429887D02*
X177631723Y-41334649D01*
X177631723Y-41334649D02*
X177441247Y-41287030D01*
X177441247Y-41287030D02*
X177060295Y-41287030D01*
X177060295Y-41287030D02*
X176965057Y-41334649D01*
X176965057Y-41334649D02*
X176917438Y-41382268D01*
X176917438Y-41382268D02*
X176869819Y-41477506D01*
X176869819Y-41477506D02*
X176869819Y-41667982D01*
X176869819Y-41667982D02*
X176917438Y-41763220D01*
X176917438Y-41763220D02*
X176965057Y-41810839D01*
X176965057Y-41810839D02*
X177060295Y-41858458D01*
X177060295Y-41858458D02*
X177298390Y-41858458D01*
X177298390Y-41858458D02*
X177393628Y-41810839D01*
X177393628Y-41810839D02*
X177441247Y-41763220D01*
X177441247Y-41763220D02*
X177488866Y-41667982D01*
X177488866Y-41667982D02*
X177488866Y-41477506D01*
X177488866Y-41477506D02*
X177441247Y-41382268D01*
X177441247Y-41382268D02*
X177393628Y-41334649D01*
X177393628Y-41334649D02*
X177298390Y-41287030D01*
X174365057Y-42510839D02*
X174317438Y-42463220D01*
X174317438Y-42463220D02*
X174269819Y-42367982D01*
X174269819Y-42367982D02*
X174269819Y-42129887D01*
X174269819Y-42129887D02*
X174317438Y-42034649D01*
X174317438Y-42034649D02*
X174365057Y-41987030D01*
X174365057Y-41987030D02*
X174460295Y-41939411D01*
X174460295Y-41939411D02*
X174555533Y-41939411D01*
X174555533Y-41939411D02*
X174698390Y-41987030D01*
X174698390Y-41987030D02*
X175269819Y-42558458D01*
X175269819Y-42558458D02*
X175269819Y-41939411D01*
X172722200Y-42910839D02*
X172769819Y-42767982D01*
X172769819Y-42767982D02*
X172769819Y-42529887D01*
X172769819Y-42529887D02*
X172722200Y-42434649D01*
X172722200Y-42434649D02*
X172674580Y-42387030D01*
X172674580Y-42387030D02*
X172579342Y-42339411D01*
X172579342Y-42339411D02*
X172484104Y-42339411D01*
X172484104Y-42339411D02*
X172388866Y-42387030D01*
X172388866Y-42387030D02*
X172341247Y-42434649D01*
X172341247Y-42434649D02*
X172293628Y-42529887D01*
X172293628Y-42529887D02*
X172246009Y-42720363D01*
X172246009Y-42720363D02*
X172198390Y-42815601D01*
X172198390Y-42815601D02*
X172150771Y-42863220D01*
X172150771Y-42863220D02*
X172055533Y-42910839D01*
X172055533Y-42910839D02*
X171960295Y-42910839D01*
X171960295Y-42910839D02*
X171865057Y-42863220D01*
X171865057Y-42863220D02*
X171817438Y-42815601D01*
X171817438Y-42815601D02*
X171769819Y-42720363D01*
X171769819Y-42720363D02*
X171769819Y-42482268D01*
X171769819Y-42482268D02*
X171817438Y-42339411D01*
X172769819Y-41910839D02*
X171769819Y-41910839D01*
X171769819Y-41910839D02*
X171769819Y-41672744D01*
X171769819Y-41672744D02*
X171817438Y-41529887D01*
X171817438Y-41529887D02*
X171912676Y-41434649D01*
X171912676Y-41434649D02*
X172007914Y-41387030D01*
X172007914Y-41387030D02*
X172198390Y-41339411D01*
X172198390Y-41339411D02*
X172341247Y-41339411D01*
X172341247Y-41339411D02*
X172531723Y-41387030D01*
X172531723Y-41387030D02*
X172626961Y-41434649D01*
X172626961Y-41434649D02*
X172722200Y-41529887D01*
X172722200Y-41529887D02*
X172769819Y-41672744D01*
X172769819Y-41672744D02*
X172769819Y-41910839D01*
X172484104Y-40958458D02*
X172484104Y-40482268D01*
X172769819Y-41053696D02*
X171769819Y-40720363D01*
X171769819Y-40720363D02*
X172769819Y-40387030D01*
X161469819Y-42906077D02*
X162469819Y-42572744D01*
X162469819Y-42572744D02*
X161469819Y-42239411D01*
X161946009Y-41906077D02*
X161946009Y-41572744D01*
X162469819Y-41429887D02*
X162469819Y-41906077D01*
X162469819Y-41906077D02*
X161469819Y-41906077D01*
X161469819Y-41906077D02*
X161469819Y-41429887D01*
X161469819Y-41096553D02*
X162469819Y-40429887D01*
X161469819Y-40429887D02*
X162469819Y-41096553D01*
X161469819Y-40191791D02*
X161469819Y-39620363D01*
X162469819Y-39906077D02*
X161469819Y-39906077D01*
X164746009Y-42429887D02*
X164793628Y-42287030D01*
X164793628Y-42287030D02*
X164841247Y-42239411D01*
X164841247Y-42239411D02*
X164936485Y-42191792D01*
X164936485Y-42191792D02*
X165079342Y-42191792D01*
X165079342Y-42191792D02*
X165174580Y-42239411D01*
X165174580Y-42239411D02*
X165222200Y-42287030D01*
X165222200Y-42287030D02*
X165269819Y-42382268D01*
X165269819Y-42382268D02*
X165269819Y-42763220D01*
X165269819Y-42763220D02*
X164269819Y-42763220D01*
X164269819Y-42763220D02*
X164269819Y-42429887D01*
X164269819Y-42429887D02*
X164317438Y-42334649D01*
X164317438Y-42334649D02*
X164365057Y-42287030D01*
X164365057Y-42287030D02*
X164460295Y-42239411D01*
X164460295Y-42239411D02*
X164555533Y-42239411D01*
X164555533Y-42239411D02*
X164650771Y-42287030D01*
X164650771Y-42287030D02*
X164698390Y-42334649D01*
X164698390Y-42334649D02*
X164746009Y-42429887D01*
X164746009Y-42429887D02*
X164746009Y-42763220D01*
X164984104Y-41810839D02*
X164984104Y-41334649D01*
X165269819Y-41906077D02*
X164269819Y-41572744D01*
X164269819Y-41572744D02*
X165269819Y-41239411D01*
X164269819Y-41048934D02*
X164269819Y-40477506D01*
X165269819Y-40763220D02*
X164269819Y-40763220D01*
X166769819Y-42958458D02*
X166769819Y-42339411D01*
X166769819Y-42339411D02*
X167150771Y-42672744D01*
X167150771Y-42672744D02*
X167150771Y-42529887D01*
X167150771Y-42529887D02*
X167198390Y-42434649D01*
X167198390Y-42434649D02*
X167246009Y-42387030D01*
X167246009Y-42387030D02*
X167341247Y-42339411D01*
X167341247Y-42339411D02*
X167579342Y-42339411D01*
X167579342Y-42339411D02*
X167674580Y-42387030D01*
X167674580Y-42387030D02*
X167722200Y-42434649D01*
X167722200Y-42434649D02*
X167769819Y-42529887D01*
X167769819Y-42529887D02*
X167769819Y-42815601D01*
X167769819Y-42815601D02*
X167722200Y-42910839D01*
X167722200Y-42910839D02*
X167674580Y-42958458D01*
X166769819Y-42053696D02*
X167769819Y-41720363D01*
X167769819Y-41720363D02*
X166769819Y-41387030D01*
X166769819Y-41148934D02*
X166769819Y-40529887D01*
X166769819Y-40529887D02*
X167150771Y-40863220D01*
X167150771Y-40863220D02*
X167150771Y-40720363D01*
X167150771Y-40720363D02*
X167198390Y-40625125D01*
X167198390Y-40625125D02*
X167246009Y-40577506D01*
X167246009Y-40577506D02*
X167341247Y-40529887D01*
X167341247Y-40529887D02*
X167579342Y-40529887D01*
X167579342Y-40529887D02*
X167674580Y-40577506D01*
X167674580Y-40577506D02*
X167722200Y-40625125D01*
X167722200Y-40625125D02*
X167769819Y-40720363D01*
X167769819Y-40720363D02*
X167769819Y-41006077D01*
X167769819Y-41006077D02*
X167722200Y-41101315D01*
X167722200Y-41101315D02*
X167674580Y-41148934D01*
X179417438Y-42339411D02*
X179369819Y-42434649D01*
X179369819Y-42434649D02*
X179369819Y-42577506D01*
X179369819Y-42577506D02*
X179417438Y-42720363D01*
X179417438Y-42720363D02*
X179512676Y-42815601D01*
X179512676Y-42815601D02*
X179607914Y-42863220D01*
X179607914Y-42863220D02*
X179798390Y-42910839D01*
X179798390Y-42910839D02*
X179941247Y-42910839D01*
X179941247Y-42910839D02*
X180131723Y-42863220D01*
X180131723Y-42863220D02*
X180226961Y-42815601D01*
X180226961Y-42815601D02*
X180322200Y-42720363D01*
X180322200Y-42720363D02*
X180369819Y-42577506D01*
X180369819Y-42577506D02*
X180369819Y-42482268D01*
X180369819Y-42482268D02*
X180322200Y-42339411D01*
X180322200Y-42339411D02*
X180274580Y-42291792D01*
X180274580Y-42291792D02*
X179941247Y-42291792D01*
X179941247Y-42291792D02*
X179941247Y-42482268D01*
X180369819Y-41863220D02*
X179369819Y-41863220D01*
X179369819Y-41863220D02*
X180369819Y-41291792D01*
X180369819Y-41291792D02*
X179369819Y-41291792D01*
X180369819Y-40815601D02*
X179369819Y-40815601D01*
X179369819Y-40815601D02*
X179369819Y-40577506D01*
X179369819Y-40577506D02*
X179417438Y-40434649D01*
X179417438Y-40434649D02*
X179512676Y-40339411D01*
X179512676Y-40339411D02*
X179607914Y-40291792D01*
X179607914Y-40291792D02*
X179798390Y-40244173D01*
X179798390Y-40244173D02*
X179941247Y-40244173D01*
X179941247Y-40244173D02*
X180131723Y-40291792D01*
X180131723Y-40291792D02*
X180226961Y-40339411D01*
X180226961Y-40339411D02*
X180322200Y-40434649D01*
X180322200Y-40434649D02*
X180369819Y-40577506D01*
X180369819Y-40577506D02*
X180369819Y-40815601D01*
X170122200Y-42910839D02*
X170169819Y-42767982D01*
X170169819Y-42767982D02*
X170169819Y-42529887D01*
X170169819Y-42529887D02*
X170122200Y-42434649D01*
X170122200Y-42434649D02*
X170074580Y-42387030D01*
X170074580Y-42387030D02*
X169979342Y-42339411D01*
X169979342Y-42339411D02*
X169884104Y-42339411D01*
X169884104Y-42339411D02*
X169788866Y-42387030D01*
X169788866Y-42387030D02*
X169741247Y-42434649D01*
X169741247Y-42434649D02*
X169693628Y-42529887D01*
X169693628Y-42529887D02*
X169646009Y-42720363D01*
X169646009Y-42720363D02*
X169598390Y-42815601D01*
X169598390Y-42815601D02*
X169550771Y-42863220D01*
X169550771Y-42863220D02*
X169455533Y-42910839D01*
X169455533Y-42910839D02*
X169360295Y-42910839D01*
X169360295Y-42910839D02*
X169265057Y-42863220D01*
X169265057Y-42863220D02*
X169217438Y-42815601D01*
X169217438Y-42815601D02*
X169169819Y-42720363D01*
X169169819Y-42720363D02*
X169169819Y-42482268D01*
X169169819Y-42482268D02*
X169217438Y-42339411D01*
X170074580Y-41339411D02*
X170122200Y-41387030D01*
X170122200Y-41387030D02*
X170169819Y-41529887D01*
X170169819Y-41529887D02*
X170169819Y-41625125D01*
X170169819Y-41625125D02*
X170122200Y-41767982D01*
X170122200Y-41767982D02*
X170026961Y-41863220D01*
X170026961Y-41863220D02*
X169931723Y-41910839D01*
X169931723Y-41910839D02*
X169741247Y-41958458D01*
X169741247Y-41958458D02*
X169598390Y-41958458D01*
X169598390Y-41958458D02*
X169407914Y-41910839D01*
X169407914Y-41910839D02*
X169312676Y-41863220D01*
X169312676Y-41863220D02*
X169217438Y-41767982D01*
X169217438Y-41767982D02*
X169169819Y-41625125D01*
X169169819Y-41625125D02*
X169169819Y-41529887D01*
X169169819Y-41529887D02*
X169217438Y-41387030D01*
X169217438Y-41387030D02*
X169265057Y-41339411D01*
X170169819Y-40434649D02*
X170169819Y-40910839D01*
X170169819Y-40910839D02*
X169169819Y-40910839D01*
X171017438Y-107739411D02*
X170969819Y-107834649D01*
X170969819Y-107834649D02*
X170969819Y-107977506D01*
X170969819Y-107977506D02*
X171017438Y-108120363D01*
X171017438Y-108120363D02*
X171112676Y-108215601D01*
X171112676Y-108215601D02*
X171207914Y-108263220D01*
X171207914Y-108263220D02*
X171398390Y-108310839D01*
X171398390Y-108310839D02*
X171541247Y-108310839D01*
X171541247Y-108310839D02*
X171731723Y-108263220D01*
X171731723Y-108263220D02*
X171826961Y-108215601D01*
X171826961Y-108215601D02*
X171922200Y-108120363D01*
X171922200Y-108120363D02*
X171969819Y-107977506D01*
X171969819Y-107977506D02*
X171969819Y-107882268D01*
X171969819Y-107882268D02*
X171922200Y-107739411D01*
X171922200Y-107739411D02*
X171874580Y-107691792D01*
X171874580Y-107691792D02*
X171541247Y-107691792D01*
X171541247Y-107691792D02*
X171541247Y-107882268D01*
X171969819Y-107263220D02*
X170969819Y-107263220D01*
X170969819Y-107263220D02*
X171969819Y-106691792D01*
X171969819Y-106691792D02*
X170969819Y-106691792D01*
X171969819Y-106215601D02*
X170969819Y-106215601D01*
X170969819Y-106215601D02*
X170969819Y-105977506D01*
X170969819Y-105977506D02*
X171017438Y-105834649D01*
X171017438Y-105834649D02*
X171112676Y-105739411D01*
X171112676Y-105739411D02*
X171207914Y-105691792D01*
X171207914Y-105691792D02*
X171398390Y-105644173D01*
X171398390Y-105644173D02*
X171541247Y-105644173D01*
X171541247Y-105644173D02*
X171731723Y-105691792D01*
X171731723Y-105691792D02*
X171826961Y-105739411D01*
X171826961Y-105739411D02*
X171922200Y-105834649D01*
X171922200Y-105834649D02*
X171969819Y-105977506D01*
X171969819Y-105977506D02*
X171969819Y-106215601D01*
X175922200Y-108072744D02*
X175969819Y-107929887D01*
X175969819Y-107929887D02*
X175969819Y-107691792D01*
X175969819Y-107691792D02*
X175922200Y-107596554D01*
X175922200Y-107596554D02*
X175874580Y-107548935D01*
X175874580Y-107548935D02*
X175779342Y-107501316D01*
X175779342Y-107501316D02*
X175684104Y-107501316D01*
X175684104Y-107501316D02*
X175588866Y-107548935D01*
X175588866Y-107548935D02*
X175541247Y-107596554D01*
X175541247Y-107596554D02*
X175493628Y-107691792D01*
X175493628Y-107691792D02*
X175446009Y-107882268D01*
X175446009Y-107882268D02*
X175398390Y-107977506D01*
X175398390Y-107977506D02*
X175350771Y-108025125D01*
X175350771Y-108025125D02*
X175255533Y-108072744D01*
X175255533Y-108072744D02*
X175160295Y-108072744D01*
X175160295Y-108072744D02*
X175065057Y-108025125D01*
X175065057Y-108025125D02*
X175017438Y-107977506D01*
X175017438Y-107977506D02*
X174969819Y-107882268D01*
X174969819Y-107882268D02*
X174969819Y-107644173D01*
X174969819Y-107644173D02*
X175017438Y-107501316D01*
X175969819Y-107072744D02*
X174969819Y-107072744D01*
X174969819Y-107072744D02*
X174969819Y-106834649D01*
X174969819Y-106834649D02*
X175017438Y-106691792D01*
X175017438Y-106691792D02*
X175112676Y-106596554D01*
X175112676Y-106596554D02*
X175207914Y-106548935D01*
X175207914Y-106548935D02*
X175398390Y-106501316D01*
X175398390Y-106501316D02*
X175541247Y-106501316D01*
X175541247Y-106501316D02*
X175731723Y-106548935D01*
X175731723Y-106548935D02*
X175826961Y-106596554D01*
X175826961Y-106596554D02*
X175922200Y-106691792D01*
X175922200Y-106691792D02*
X175969819Y-106834649D01*
X175969819Y-106834649D02*
X175969819Y-107072744D01*
X175684104Y-106120363D02*
X175684104Y-105644173D01*
X175969819Y-106215601D02*
X174969819Y-105882268D01*
X174969819Y-105882268D02*
X175969819Y-105548935D01*
X178122200Y-108025125D02*
X178169819Y-107882268D01*
X178169819Y-107882268D02*
X178169819Y-107644173D01*
X178169819Y-107644173D02*
X178122200Y-107548935D01*
X178122200Y-107548935D02*
X178074580Y-107501316D01*
X178074580Y-107501316D02*
X177979342Y-107453697D01*
X177979342Y-107453697D02*
X177884104Y-107453697D01*
X177884104Y-107453697D02*
X177788866Y-107501316D01*
X177788866Y-107501316D02*
X177741247Y-107548935D01*
X177741247Y-107548935D02*
X177693628Y-107644173D01*
X177693628Y-107644173D02*
X177646009Y-107834649D01*
X177646009Y-107834649D02*
X177598390Y-107929887D01*
X177598390Y-107929887D02*
X177550771Y-107977506D01*
X177550771Y-107977506D02*
X177455533Y-108025125D01*
X177455533Y-108025125D02*
X177360295Y-108025125D01*
X177360295Y-108025125D02*
X177265057Y-107977506D01*
X177265057Y-107977506D02*
X177217438Y-107929887D01*
X177217438Y-107929887D02*
X177169819Y-107834649D01*
X177169819Y-107834649D02*
X177169819Y-107596554D01*
X177169819Y-107596554D02*
X177217438Y-107453697D01*
X178074580Y-106453697D02*
X178122200Y-106501316D01*
X178122200Y-106501316D02*
X178169819Y-106644173D01*
X178169819Y-106644173D02*
X178169819Y-106739411D01*
X178169819Y-106739411D02*
X178122200Y-106882268D01*
X178122200Y-106882268D02*
X178026961Y-106977506D01*
X178026961Y-106977506D02*
X177931723Y-107025125D01*
X177931723Y-107025125D02*
X177741247Y-107072744D01*
X177741247Y-107072744D02*
X177598390Y-107072744D01*
X177598390Y-107072744D02*
X177407914Y-107025125D01*
X177407914Y-107025125D02*
X177312676Y-106977506D01*
X177312676Y-106977506D02*
X177217438Y-106882268D01*
X177217438Y-106882268D02*
X177169819Y-106739411D01*
X177169819Y-106739411D02*
X177169819Y-106644173D01*
X177169819Y-106644173D02*
X177217438Y-106501316D01*
X177217438Y-106501316D02*
X177265057Y-106453697D01*
X178169819Y-105548935D02*
X178169819Y-106025125D01*
X178169819Y-106025125D02*
X177169819Y-106025125D01*
X172969819Y-108072744D02*
X172969819Y-107453697D01*
X172969819Y-107453697D02*
X173350771Y-107787030D01*
X173350771Y-107787030D02*
X173350771Y-107644173D01*
X173350771Y-107644173D02*
X173398390Y-107548935D01*
X173398390Y-107548935D02*
X173446009Y-107501316D01*
X173446009Y-107501316D02*
X173541247Y-107453697D01*
X173541247Y-107453697D02*
X173779342Y-107453697D01*
X173779342Y-107453697D02*
X173874580Y-107501316D01*
X173874580Y-107501316D02*
X173922200Y-107548935D01*
X173922200Y-107548935D02*
X173969819Y-107644173D01*
X173969819Y-107644173D02*
X173969819Y-107929887D01*
X173969819Y-107929887D02*
X173922200Y-108025125D01*
X173922200Y-108025125D02*
X173874580Y-108072744D01*
X172969819Y-107167982D02*
X173969819Y-106834649D01*
X173969819Y-106834649D02*
X172969819Y-106501316D01*
X172969819Y-106263220D02*
X172969819Y-105644173D01*
X172969819Y-105644173D02*
X173350771Y-105977506D01*
X173350771Y-105977506D02*
X173350771Y-105834649D01*
X173350771Y-105834649D02*
X173398390Y-105739411D01*
X173398390Y-105739411D02*
X173446009Y-105691792D01*
X173446009Y-105691792D02*
X173541247Y-105644173D01*
X173541247Y-105644173D02*
X173779342Y-105644173D01*
X173779342Y-105644173D02*
X173874580Y-105691792D01*
X173874580Y-105691792D02*
X173922200Y-105739411D01*
X173922200Y-105739411D02*
X173969819Y-105834649D01*
X173969819Y-105834649D02*
X173969819Y-106120363D01*
X173969819Y-106120363D02*
X173922200Y-106215601D01*
X173922200Y-106215601D02*
X173874580Y-106263220D01*
X119422200Y-107810839D02*
X119469819Y-107667982D01*
X119469819Y-107667982D02*
X119469819Y-107429887D01*
X119469819Y-107429887D02*
X119422200Y-107334649D01*
X119422200Y-107334649D02*
X119374580Y-107287030D01*
X119374580Y-107287030D02*
X119279342Y-107239411D01*
X119279342Y-107239411D02*
X119184104Y-107239411D01*
X119184104Y-107239411D02*
X119088866Y-107287030D01*
X119088866Y-107287030D02*
X119041247Y-107334649D01*
X119041247Y-107334649D02*
X118993628Y-107429887D01*
X118993628Y-107429887D02*
X118946009Y-107620363D01*
X118946009Y-107620363D02*
X118898390Y-107715601D01*
X118898390Y-107715601D02*
X118850771Y-107763220D01*
X118850771Y-107763220D02*
X118755533Y-107810839D01*
X118755533Y-107810839D02*
X118660295Y-107810839D01*
X118660295Y-107810839D02*
X118565057Y-107763220D01*
X118565057Y-107763220D02*
X118517438Y-107715601D01*
X118517438Y-107715601D02*
X118469819Y-107620363D01*
X118469819Y-107620363D02*
X118469819Y-107382268D01*
X118469819Y-107382268D02*
X118517438Y-107239411D01*
X119374580Y-106239411D02*
X119422200Y-106287030D01*
X119422200Y-106287030D02*
X119469819Y-106429887D01*
X119469819Y-106429887D02*
X119469819Y-106525125D01*
X119469819Y-106525125D02*
X119422200Y-106667982D01*
X119422200Y-106667982D02*
X119326961Y-106763220D01*
X119326961Y-106763220D02*
X119231723Y-106810839D01*
X119231723Y-106810839D02*
X119041247Y-106858458D01*
X119041247Y-106858458D02*
X118898390Y-106858458D01*
X118898390Y-106858458D02*
X118707914Y-106810839D01*
X118707914Y-106810839D02*
X118612676Y-106763220D01*
X118612676Y-106763220D02*
X118517438Y-106667982D01*
X118517438Y-106667982D02*
X118469819Y-106525125D01*
X118469819Y-106525125D02*
X118469819Y-106429887D01*
X118469819Y-106429887D02*
X118517438Y-106287030D01*
X118517438Y-106287030D02*
X118565057Y-106239411D01*
X119469819Y-105334649D02*
X119469819Y-105810839D01*
X119469819Y-105810839D02*
X118469819Y-105810839D01*
X117222200Y-107858458D02*
X117269819Y-107715601D01*
X117269819Y-107715601D02*
X117269819Y-107477506D01*
X117269819Y-107477506D02*
X117222200Y-107382268D01*
X117222200Y-107382268D02*
X117174580Y-107334649D01*
X117174580Y-107334649D02*
X117079342Y-107287030D01*
X117079342Y-107287030D02*
X116984104Y-107287030D01*
X116984104Y-107287030D02*
X116888866Y-107334649D01*
X116888866Y-107334649D02*
X116841247Y-107382268D01*
X116841247Y-107382268D02*
X116793628Y-107477506D01*
X116793628Y-107477506D02*
X116746009Y-107667982D01*
X116746009Y-107667982D02*
X116698390Y-107763220D01*
X116698390Y-107763220D02*
X116650771Y-107810839D01*
X116650771Y-107810839D02*
X116555533Y-107858458D01*
X116555533Y-107858458D02*
X116460295Y-107858458D01*
X116460295Y-107858458D02*
X116365057Y-107810839D01*
X116365057Y-107810839D02*
X116317438Y-107763220D01*
X116317438Y-107763220D02*
X116269819Y-107667982D01*
X116269819Y-107667982D02*
X116269819Y-107429887D01*
X116269819Y-107429887D02*
X116317438Y-107287030D01*
X117269819Y-106858458D02*
X116269819Y-106858458D01*
X116269819Y-106858458D02*
X116269819Y-106620363D01*
X116269819Y-106620363D02*
X116317438Y-106477506D01*
X116317438Y-106477506D02*
X116412676Y-106382268D01*
X116412676Y-106382268D02*
X116507914Y-106334649D01*
X116507914Y-106334649D02*
X116698390Y-106287030D01*
X116698390Y-106287030D02*
X116841247Y-106287030D01*
X116841247Y-106287030D02*
X117031723Y-106334649D01*
X117031723Y-106334649D02*
X117126961Y-106382268D01*
X117126961Y-106382268D02*
X117222200Y-106477506D01*
X117222200Y-106477506D02*
X117269819Y-106620363D01*
X117269819Y-106620363D02*
X117269819Y-106858458D01*
X116984104Y-105906077D02*
X116984104Y-105429887D01*
X117269819Y-106001315D02*
X116269819Y-105667982D01*
X116269819Y-105667982D02*
X117269819Y-105334649D01*
X114269819Y-107858458D02*
X114269819Y-107239411D01*
X114269819Y-107239411D02*
X114650771Y-107572744D01*
X114650771Y-107572744D02*
X114650771Y-107429887D01*
X114650771Y-107429887D02*
X114698390Y-107334649D01*
X114698390Y-107334649D02*
X114746009Y-107287030D01*
X114746009Y-107287030D02*
X114841247Y-107239411D01*
X114841247Y-107239411D02*
X115079342Y-107239411D01*
X115079342Y-107239411D02*
X115174580Y-107287030D01*
X115174580Y-107287030D02*
X115222200Y-107334649D01*
X115222200Y-107334649D02*
X115269819Y-107429887D01*
X115269819Y-107429887D02*
X115269819Y-107715601D01*
X115269819Y-107715601D02*
X115222200Y-107810839D01*
X115222200Y-107810839D02*
X115174580Y-107858458D01*
X114269819Y-106953696D02*
X115269819Y-106620363D01*
X115269819Y-106620363D02*
X114269819Y-106287030D01*
X114269819Y-106048934D02*
X114269819Y-105429887D01*
X114269819Y-105429887D02*
X114650771Y-105763220D01*
X114650771Y-105763220D02*
X114650771Y-105620363D01*
X114650771Y-105620363D02*
X114698390Y-105525125D01*
X114698390Y-105525125D02*
X114746009Y-105477506D01*
X114746009Y-105477506D02*
X114841247Y-105429887D01*
X114841247Y-105429887D02*
X115079342Y-105429887D01*
X115079342Y-105429887D02*
X115174580Y-105477506D01*
X115174580Y-105477506D02*
X115222200Y-105525125D01*
X115222200Y-105525125D02*
X115269819Y-105620363D01*
X115269819Y-105620363D02*
X115269819Y-105906077D01*
X115269819Y-105906077D02*
X115222200Y-106001315D01*
X115222200Y-106001315D02*
X115174580Y-106048934D01*
X112317438Y-107525125D02*
X112269819Y-107620363D01*
X112269819Y-107620363D02*
X112269819Y-107763220D01*
X112269819Y-107763220D02*
X112317438Y-107906077D01*
X112317438Y-107906077D02*
X112412676Y-108001315D01*
X112412676Y-108001315D02*
X112507914Y-108048934D01*
X112507914Y-108048934D02*
X112698390Y-108096553D01*
X112698390Y-108096553D02*
X112841247Y-108096553D01*
X112841247Y-108096553D02*
X113031723Y-108048934D01*
X113031723Y-108048934D02*
X113126961Y-108001315D01*
X113126961Y-108001315D02*
X113222200Y-107906077D01*
X113222200Y-107906077D02*
X113269819Y-107763220D01*
X113269819Y-107763220D02*
X113269819Y-107667982D01*
X113269819Y-107667982D02*
X113222200Y-107525125D01*
X113222200Y-107525125D02*
X113174580Y-107477506D01*
X113174580Y-107477506D02*
X112841247Y-107477506D01*
X112841247Y-107477506D02*
X112841247Y-107667982D01*
X113269819Y-107048934D02*
X112269819Y-107048934D01*
X112269819Y-107048934D02*
X113269819Y-106477506D01*
X113269819Y-106477506D02*
X112269819Y-106477506D01*
X113269819Y-106001315D02*
X112269819Y-106001315D01*
X112269819Y-106001315D02*
X112269819Y-105763220D01*
X112269819Y-105763220D02*
X112317438Y-105620363D01*
X112317438Y-105620363D02*
X112412676Y-105525125D01*
X112412676Y-105525125D02*
X112507914Y-105477506D01*
X112507914Y-105477506D02*
X112698390Y-105429887D01*
X112698390Y-105429887D02*
X112841247Y-105429887D01*
X112841247Y-105429887D02*
X113031723Y-105477506D01*
X113031723Y-105477506D02*
X113126961Y-105525125D01*
X113126961Y-105525125D02*
X113222200Y-105620363D01*
X113222200Y-105620363D02*
X113269819Y-105763220D01*
X113269819Y-105763220D02*
X113269819Y-106001315D01*
X162089160Y-83622200D02*
X162232017Y-83669819D01*
X162232017Y-83669819D02*
X162470112Y-83669819D01*
X162470112Y-83669819D02*
X162565350Y-83622200D01*
X162565350Y-83622200D02*
X162612969Y-83574580D01*
X162612969Y-83574580D02*
X162660588Y-83479342D01*
X162660588Y-83479342D02*
X162660588Y-83384104D01*
X162660588Y-83384104D02*
X162612969Y-83288866D01*
X162612969Y-83288866D02*
X162565350Y-83241247D01*
X162565350Y-83241247D02*
X162470112Y-83193628D01*
X162470112Y-83193628D02*
X162279636Y-83146009D01*
X162279636Y-83146009D02*
X162184398Y-83098390D01*
X162184398Y-83098390D02*
X162136779Y-83050771D01*
X162136779Y-83050771D02*
X162089160Y-82955533D01*
X162089160Y-82955533D02*
X162089160Y-82860295D01*
X162089160Y-82860295D02*
X162136779Y-82765057D01*
X162136779Y-82765057D02*
X162184398Y-82717438D01*
X162184398Y-82717438D02*
X162279636Y-82669819D01*
X162279636Y-82669819D02*
X162517731Y-82669819D01*
X162517731Y-82669819D02*
X162660588Y-82717438D01*
X163041541Y-83622200D02*
X163184398Y-83669819D01*
X163184398Y-83669819D02*
X163422493Y-83669819D01*
X163422493Y-83669819D02*
X163517731Y-83622200D01*
X163517731Y-83622200D02*
X163565350Y-83574580D01*
X163565350Y-83574580D02*
X163612969Y-83479342D01*
X163612969Y-83479342D02*
X163612969Y-83384104D01*
X163612969Y-83384104D02*
X163565350Y-83288866D01*
X163565350Y-83288866D02*
X163517731Y-83241247D01*
X163517731Y-83241247D02*
X163422493Y-83193628D01*
X163422493Y-83193628D02*
X163232017Y-83146009D01*
X163232017Y-83146009D02*
X163136779Y-83098390D01*
X163136779Y-83098390D02*
X163089160Y-83050771D01*
X163089160Y-83050771D02*
X163041541Y-82955533D01*
X163041541Y-82955533D02*
X163041541Y-82860295D01*
X163041541Y-82860295D02*
X163089160Y-82765057D01*
X163089160Y-82765057D02*
X163136779Y-82717438D01*
X163136779Y-82717438D02*
X163232017Y-82669819D01*
X163232017Y-82669819D02*
X163470112Y-82669819D01*
X163470112Y-82669819D02*
X163612969Y-82717438D01*
X164041541Y-83669819D02*
X164041541Y-82669819D01*
X164041541Y-82669819D02*
X164279636Y-82669819D01*
X164279636Y-82669819D02*
X164422493Y-82717438D01*
X164422493Y-82717438D02*
X164517731Y-82812676D01*
X164517731Y-82812676D02*
X164565350Y-82907914D01*
X164565350Y-82907914D02*
X164612969Y-83098390D01*
X164612969Y-83098390D02*
X164612969Y-83241247D01*
X164612969Y-83241247D02*
X164565350Y-83431723D01*
X164565350Y-83431723D02*
X164517731Y-83526961D01*
X164517731Y-83526961D02*
X164422493Y-83622200D01*
X164422493Y-83622200D02*
X164279636Y-83669819D01*
X164279636Y-83669819D02*
X164041541Y-83669819D01*
X165565350Y-83669819D02*
X164993922Y-83669819D01*
X165279636Y-83669819D02*
X165279636Y-82669819D01*
X165279636Y-82669819D02*
X165184398Y-82812676D01*
X165184398Y-82812676D02*
X165089160Y-82907914D01*
X165089160Y-82907914D02*
X164993922Y-82955533D01*
X165898684Y-82669819D02*
X166517731Y-82669819D01*
X166517731Y-82669819D02*
X166184398Y-83050771D01*
X166184398Y-83050771D02*
X166327255Y-83050771D01*
X166327255Y-83050771D02*
X166422493Y-83098390D01*
X166422493Y-83098390D02*
X166470112Y-83146009D01*
X166470112Y-83146009D02*
X166517731Y-83241247D01*
X166517731Y-83241247D02*
X166517731Y-83479342D01*
X166517731Y-83479342D02*
X166470112Y-83574580D01*
X166470112Y-83574580D02*
X166422493Y-83622200D01*
X166422493Y-83622200D02*
X166327255Y-83669819D01*
X166327255Y-83669819D02*
X166041541Y-83669819D01*
X166041541Y-83669819D02*
X165946303Y-83622200D01*
X165946303Y-83622200D02*
X165898684Y-83574580D01*
X167136779Y-82669819D02*
X167232017Y-82669819D01*
X167232017Y-82669819D02*
X167327255Y-82717438D01*
X167327255Y-82717438D02*
X167374874Y-82765057D01*
X167374874Y-82765057D02*
X167422493Y-82860295D01*
X167422493Y-82860295D02*
X167470112Y-83050771D01*
X167470112Y-83050771D02*
X167470112Y-83288866D01*
X167470112Y-83288866D02*
X167422493Y-83479342D01*
X167422493Y-83479342D02*
X167374874Y-83574580D01*
X167374874Y-83574580D02*
X167327255Y-83622200D01*
X167327255Y-83622200D02*
X167232017Y-83669819D01*
X167232017Y-83669819D02*
X167136779Y-83669819D01*
X167136779Y-83669819D02*
X167041541Y-83622200D01*
X167041541Y-83622200D02*
X166993922Y-83574580D01*
X166993922Y-83574580D02*
X166946303Y-83479342D01*
X166946303Y-83479342D02*
X166898684Y-83288866D01*
X166898684Y-83288866D02*
X166898684Y-83050771D01*
X166898684Y-83050771D02*
X166946303Y-82860295D01*
X166946303Y-82860295D02*
X166993922Y-82765057D01*
X166993922Y-82765057D02*
X167041541Y-82717438D01*
X167041541Y-82717438D02*
X167136779Y-82669819D01*
X168327255Y-82669819D02*
X168136779Y-82669819D01*
X168136779Y-82669819D02*
X168041541Y-82717438D01*
X168041541Y-82717438D02*
X167993922Y-82765057D01*
X167993922Y-82765057D02*
X167898684Y-82907914D01*
X167898684Y-82907914D02*
X167851065Y-83098390D01*
X167851065Y-83098390D02*
X167851065Y-83479342D01*
X167851065Y-83479342D02*
X167898684Y-83574580D01*
X167898684Y-83574580D02*
X167946303Y-83622200D01*
X167946303Y-83622200D02*
X168041541Y-83669819D01*
X168041541Y-83669819D02*
X168232017Y-83669819D01*
X168232017Y-83669819D02*
X168327255Y-83622200D01*
X168327255Y-83622200D02*
X168374874Y-83574580D01*
X168374874Y-83574580D02*
X168422493Y-83479342D01*
X168422493Y-83479342D02*
X168422493Y-83241247D01*
X168422493Y-83241247D02*
X168374874Y-83146009D01*
X168374874Y-83146009D02*
X168327255Y-83098390D01*
X168327255Y-83098390D02*
X168232017Y-83050771D01*
X168232017Y-83050771D02*
X168041541Y-83050771D01*
X168041541Y-83050771D02*
X167946303Y-83098390D01*
X167946303Y-83098390D02*
X167898684Y-83146009D01*
X167898684Y-83146009D02*
X167851065Y-83241247D01*
X124689160Y-83922200D02*
X124832017Y-83969819D01*
X124832017Y-83969819D02*
X125070112Y-83969819D01*
X125070112Y-83969819D02*
X125165350Y-83922200D01*
X125165350Y-83922200D02*
X125212969Y-83874580D01*
X125212969Y-83874580D02*
X125260588Y-83779342D01*
X125260588Y-83779342D02*
X125260588Y-83684104D01*
X125260588Y-83684104D02*
X125212969Y-83588866D01*
X125212969Y-83588866D02*
X125165350Y-83541247D01*
X125165350Y-83541247D02*
X125070112Y-83493628D01*
X125070112Y-83493628D02*
X124879636Y-83446009D01*
X124879636Y-83446009D02*
X124784398Y-83398390D01*
X124784398Y-83398390D02*
X124736779Y-83350771D01*
X124736779Y-83350771D02*
X124689160Y-83255533D01*
X124689160Y-83255533D02*
X124689160Y-83160295D01*
X124689160Y-83160295D02*
X124736779Y-83065057D01*
X124736779Y-83065057D02*
X124784398Y-83017438D01*
X124784398Y-83017438D02*
X124879636Y-82969819D01*
X124879636Y-82969819D02*
X125117731Y-82969819D01*
X125117731Y-82969819D02*
X125260588Y-83017438D01*
X125641541Y-83922200D02*
X125784398Y-83969819D01*
X125784398Y-83969819D02*
X126022493Y-83969819D01*
X126022493Y-83969819D02*
X126117731Y-83922200D01*
X126117731Y-83922200D02*
X126165350Y-83874580D01*
X126165350Y-83874580D02*
X126212969Y-83779342D01*
X126212969Y-83779342D02*
X126212969Y-83684104D01*
X126212969Y-83684104D02*
X126165350Y-83588866D01*
X126165350Y-83588866D02*
X126117731Y-83541247D01*
X126117731Y-83541247D02*
X126022493Y-83493628D01*
X126022493Y-83493628D02*
X125832017Y-83446009D01*
X125832017Y-83446009D02*
X125736779Y-83398390D01*
X125736779Y-83398390D02*
X125689160Y-83350771D01*
X125689160Y-83350771D02*
X125641541Y-83255533D01*
X125641541Y-83255533D02*
X125641541Y-83160295D01*
X125641541Y-83160295D02*
X125689160Y-83065057D01*
X125689160Y-83065057D02*
X125736779Y-83017438D01*
X125736779Y-83017438D02*
X125832017Y-82969819D01*
X125832017Y-82969819D02*
X126070112Y-82969819D01*
X126070112Y-82969819D02*
X126212969Y-83017438D01*
X126641541Y-83969819D02*
X126641541Y-82969819D01*
X126641541Y-82969819D02*
X126879636Y-82969819D01*
X126879636Y-82969819D02*
X127022493Y-83017438D01*
X127022493Y-83017438D02*
X127117731Y-83112676D01*
X127117731Y-83112676D02*
X127165350Y-83207914D01*
X127165350Y-83207914D02*
X127212969Y-83398390D01*
X127212969Y-83398390D02*
X127212969Y-83541247D01*
X127212969Y-83541247D02*
X127165350Y-83731723D01*
X127165350Y-83731723D02*
X127117731Y-83826961D01*
X127117731Y-83826961D02*
X127022493Y-83922200D01*
X127022493Y-83922200D02*
X126879636Y-83969819D01*
X126879636Y-83969819D02*
X126641541Y-83969819D01*
X128165350Y-83969819D02*
X127593922Y-83969819D01*
X127879636Y-83969819D02*
X127879636Y-82969819D01*
X127879636Y-82969819D02*
X127784398Y-83112676D01*
X127784398Y-83112676D02*
X127689160Y-83207914D01*
X127689160Y-83207914D02*
X127593922Y-83255533D01*
X128498684Y-82969819D02*
X129117731Y-82969819D01*
X129117731Y-82969819D02*
X128784398Y-83350771D01*
X128784398Y-83350771D02*
X128927255Y-83350771D01*
X128927255Y-83350771D02*
X129022493Y-83398390D01*
X129022493Y-83398390D02*
X129070112Y-83446009D01*
X129070112Y-83446009D02*
X129117731Y-83541247D01*
X129117731Y-83541247D02*
X129117731Y-83779342D01*
X129117731Y-83779342D02*
X129070112Y-83874580D01*
X129070112Y-83874580D02*
X129022493Y-83922200D01*
X129022493Y-83922200D02*
X128927255Y-83969819D01*
X128927255Y-83969819D02*
X128641541Y-83969819D01*
X128641541Y-83969819D02*
X128546303Y-83922200D01*
X128546303Y-83922200D02*
X128498684Y-83874580D01*
X129736779Y-82969819D02*
X129832017Y-82969819D01*
X129832017Y-82969819D02*
X129927255Y-83017438D01*
X129927255Y-83017438D02*
X129974874Y-83065057D01*
X129974874Y-83065057D02*
X130022493Y-83160295D01*
X130022493Y-83160295D02*
X130070112Y-83350771D01*
X130070112Y-83350771D02*
X130070112Y-83588866D01*
X130070112Y-83588866D02*
X130022493Y-83779342D01*
X130022493Y-83779342D02*
X129974874Y-83874580D01*
X129974874Y-83874580D02*
X129927255Y-83922200D01*
X129927255Y-83922200D02*
X129832017Y-83969819D01*
X129832017Y-83969819D02*
X129736779Y-83969819D01*
X129736779Y-83969819D02*
X129641541Y-83922200D01*
X129641541Y-83922200D02*
X129593922Y-83874580D01*
X129593922Y-83874580D02*
X129546303Y-83779342D01*
X129546303Y-83779342D02*
X129498684Y-83588866D01*
X129498684Y-83588866D02*
X129498684Y-83350771D01*
X129498684Y-83350771D02*
X129546303Y-83160295D01*
X129546303Y-83160295D02*
X129593922Y-83065057D01*
X129593922Y-83065057D02*
X129641541Y-83017438D01*
X129641541Y-83017438D02*
X129736779Y-82969819D01*
X130927255Y-82969819D02*
X130736779Y-82969819D01*
X130736779Y-82969819D02*
X130641541Y-83017438D01*
X130641541Y-83017438D02*
X130593922Y-83065057D01*
X130593922Y-83065057D02*
X130498684Y-83207914D01*
X130498684Y-83207914D02*
X130451065Y-83398390D01*
X130451065Y-83398390D02*
X130451065Y-83779342D01*
X130451065Y-83779342D02*
X130498684Y-83874580D01*
X130498684Y-83874580D02*
X130546303Y-83922200D01*
X130546303Y-83922200D02*
X130641541Y-83969819D01*
X130641541Y-83969819D02*
X130832017Y-83969819D01*
X130832017Y-83969819D02*
X130927255Y-83922200D01*
X130927255Y-83922200D02*
X130974874Y-83874580D01*
X130974874Y-83874580D02*
X131022493Y-83779342D01*
X131022493Y-83779342D02*
X131022493Y-83541247D01*
X131022493Y-83541247D02*
X130974874Y-83446009D01*
X130974874Y-83446009D02*
X130927255Y-83398390D01*
X130927255Y-83398390D02*
X130832017Y-83350771D01*
X130832017Y-83350771D02*
X130641541Y-83350771D01*
X130641541Y-83350771D02*
X130546303Y-83398390D01*
X130546303Y-83398390D02*
X130498684Y-83446009D01*
X130498684Y-83446009D02*
X130451065Y-83541247D01*
X141657143Y-41369104D02*
X142133333Y-41369104D01*
X141561905Y-41654819D02*
X141895238Y-40654819D01*
X141895238Y-40654819D02*
X142228571Y-41654819D01*
X142561905Y-41654819D02*
X142561905Y-40654819D01*
X142561905Y-40654819D02*
X143133333Y-41654819D01*
X143133333Y-41654819D02*
X143133333Y-40654819D01*
X143466667Y-40654819D02*
X144038095Y-40654819D01*
X143752381Y-41654819D02*
X143752381Y-40654819D01*
X175769819Y-62958458D02*
X175769819Y-62339411D01*
X175769819Y-62339411D02*
X176150771Y-62672744D01*
X176150771Y-62672744D02*
X176150771Y-62529887D01*
X176150771Y-62529887D02*
X176198390Y-62434649D01*
X176198390Y-62434649D02*
X176246009Y-62387030D01*
X176246009Y-62387030D02*
X176341247Y-62339411D01*
X176341247Y-62339411D02*
X176579342Y-62339411D01*
X176579342Y-62339411D02*
X176674580Y-62387030D01*
X176674580Y-62387030D02*
X176722200Y-62434649D01*
X176722200Y-62434649D02*
X176769819Y-62529887D01*
X176769819Y-62529887D02*
X176769819Y-62815601D01*
X176769819Y-62815601D02*
X176722200Y-62910839D01*
X176722200Y-62910839D02*
X176674580Y-62958458D01*
X175769819Y-62053696D02*
X176769819Y-61720363D01*
X176769819Y-61720363D02*
X175769819Y-61387030D01*
X113469819Y-52458458D02*
X113469819Y-51839411D01*
X113469819Y-51839411D02*
X113850771Y-52172744D01*
X113850771Y-52172744D02*
X113850771Y-52029887D01*
X113850771Y-52029887D02*
X113898390Y-51934649D01*
X113898390Y-51934649D02*
X113946009Y-51887030D01*
X113946009Y-51887030D02*
X114041247Y-51839411D01*
X114041247Y-51839411D02*
X114279342Y-51839411D01*
X114279342Y-51839411D02*
X114374580Y-51887030D01*
X114374580Y-51887030D02*
X114422200Y-51934649D01*
X114422200Y-51934649D02*
X114469819Y-52029887D01*
X114469819Y-52029887D02*
X114469819Y-52315601D01*
X114469819Y-52315601D02*
X114422200Y-52410839D01*
X114422200Y-52410839D02*
X114374580Y-52458458D01*
X113469819Y-51553696D02*
X114469819Y-51220363D01*
X114469819Y-51220363D02*
X113469819Y-50887030D01*
X162017438Y-74939411D02*
X161969819Y-75034649D01*
X161969819Y-75034649D02*
X161969819Y-75177506D01*
X161969819Y-75177506D02*
X162017438Y-75320363D01*
X162017438Y-75320363D02*
X162112676Y-75415601D01*
X162112676Y-75415601D02*
X162207914Y-75463220D01*
X162207914Y-75463220D02*
X162398390Y-75510839D01*
X162398390Y-75510839D02*
X162541247Y-75510839D01*
X162541247Y-75510839D02*
X162731723Y-75463220D01*
X162731723Y-75463220D02*
X162826961Y-75415601D01*
X162826961Y-75415601D02*
X162922200Y-75320363D01*
X162922200Y-75320363D02*
X162969819Y-75177506D01*
X162969819Y-75177506D02*
X162969819Y-75082268D01*
X162969819Y-75082268D02*
X162922200Y-74939411D01*
X162922200Y-74939411D02*
X162874580Y-74891792D01*
X162874580Y-74891792D02*
X162541247Y-74891792D01*
X162541247Y-74891792D02*
X162541247Y-75082268D01*
X162969819Y-74463220D02*
X161969819Y-74463220D01*
X161969819Y-74463220D02*
X162969819Y-73891792D01*
X162969819Y-73891792D02*
X161969819Y-73891792D01*
X162969819Y-73415601D02*
X161969819Y-73415601D01*
X161969819Y-73415601D02*
X161969819Y-73177506D01*
X161969819Y-73177506D02*
X162017438Y-73034649D01*
X162017438Y-73034649D02*
X162112676Y-72939411D01*
X162112676Y-72939411D02*
X162207914Y-72891792D01*
X162207914Y-72891792D02*
X162398390Y-72844173D01*
X162398390Y-72844173D02*
X162541247Y-72844173D01*
X162541247Y-72844173D02*
X162731723Y-72891792D01*
X162731723Y-72891792D02*
X162826961Y-72939411D01*
X162826961Y-72939411D02*
X162922200Y-73034649D01*
X162922200Y-73034649D02*
X162969819Y-73177506D01*
X162969819Y-73177506D02*
X162969819Y-73415601D01*
X159269819Y-75558458D02*
X159269819Y-74939411D01*
X159269819Y-74939411D02*
X159650771Y-75272744D01*
X159650771Y-75272744D02*
X159650771Y-75129887D01*
X159650771Y-75129887D02*
X159698390Y-75034649D01*
X159698390Y-75034649D02*
X159746009Y-74987030D01*
X159746009Y-74987030D02*
X159841247Y-74939411D01*
X159841247Y-74939411D02*
X160079342Y-74939411D01*
X160079342Y-74939411D02*
X160174580Y-74987030D01*
X160174580Y-74987030D02*
X160222200Y-75034649D01*
X160222200Y-75034649D02*
X160269819Y-75129887D01*
X160269819Y-75129887D02*
X160269819Y-75415601D01*
X160269819Y-75415601D02*
X160222200Y-75510839D01*
X160222200Y-75510839D02*
X160174580Y-75558458D01*
X159269819Y-74653696D02*
X160269819Y-74320363D01*
X160269819Y-74320363D02*
X159269819Y-73987030D01*
X159269819Y-73748934D02*
X159269819Y-73129887D01*
X159269819Y-73129887D02*
X159650771Y-73463220D01*
X159650771Y-73463220D02*
X159650771Y-73320363D01*
X159650771Y-73320363D02*
X159698390Y-73225125D01*
X159698390Y-73225125D02*
X159746009Y-73177506D01*
X159746009Y-73177506D02*
X159841247Y-73129887D01*
X159841247Y-73129887D02*
X160079342Y-73129887D01*
X160079342Y-73129887D02*
X160174580Y-73177506D01*
X160174580Y-73177506D02*
X160222200Y-73225125D01*
X160222200Y-73225125D02*
X160269819Y-73320363D01*
X160269819Y-73320363D02*
X160269819Y-73606077D01*
X160269819Y-73606077D02*
X160222200Y-73701315D01*
X160222200Y-73701315D02*
X160174580Y-73748934D01*
X167822200Y-75310839D02*
X167869819Y-75167982D01*
X167869819Y-75167982D02*
X167869819Y-74929887D01*
X167869819Y-74929887D02*
X167822200Y-74834649D01*
X167822200Y-74834649D02*
X167774580Y-74787030D01*
X167774580Y-74787030D02*
X167679342Y-74739411D01*
X167679342Y-74739411D02*
X167584104Y-74739411D01*
X167584104Y-74739411D02*
X167488866Y-74787030D01*
X167488866Y-74787030D02*
X167441247Y-74834649D01*
X167441247Y-74834649D02*
X167393628Y-74929887D01*
X167393628Y-74929887D02*
X167346009Y-75120363D01*
X167346009Y-75120363D02*
X167298390Y-75215601D01*
X167298390Y-75215601D02*
X167250771Y-75263220D01*
X167250771Y-75263220D02*
X167155533Y-75310839D01*
X167155533Y-75310839D02*
X167060295Y-75310839D01*
X167060295Y-75310839D02*
X166965057Y-75263220D01*
X166965057Y-75263220D02*
X166917438Y-75215601D01*
X166917438Y-75215601D02*
X166869819Y-75120363D01*
X166869819Y-75120363D02*
X166869819Y-74882268D01*
X166869819Y-74882268D02*
X166917438Y-74739411D01*
X167869819Y-74310839D02*
X166869819Y-74310839D01*
X166869819Y-74310839D02*
X166869819Y-74072744D01*
X166869819Y-74072744D02*
X166917438Y-73929887D01*
X166917438Y-73929887D02*
X167012676Y-73834649D01*
X167012676Y-73834649D02*
X167107914Y-73787030D01*
X167107914Y-73787030D02*
X167298390Y-73739411D01*
X167298390Y-73739411D02*
X167441247Y-73739411D01*
X167441247Y-73739411D02*
X167631723Y-73787030D01*
X167631723Y-73787030D02*
X167726961Y-73834649D01*
X167726961Y-73834649D02*
X167822200Y-73929887D01*
X167822200Y-73929887D02*
X167869819Y-74072744D01*
X167869819Y-74072744D02*
X167869819Y-74310839D01*
X167584104Y-73358458D02*
X167584104Y-72882268D01*
X167869819Y-73453696D02*
X166869819Y-73120363D01*
X166869819Y-73120363D02*
X167869819Y-72787030D01*
X165322200Y-75410839D02*
X165369819Y-75267982D01*
X165369819Y-75267982D02*
X165369819Y-75029887D01*
X165369819Y-75029887D02*
X165322200Y-74934649D01*
X165322200Y-74934649D02*
X165274580Y-74887030D01*
X165274580Y-74887030D02*
X165179342Y-74839411D01*
X165179342Y-74839411D02*
X165084104Y-74839411D01*
X165084104Y-74839411D02*
X164988866Y-74887030D01*
X164988866Y-74887030D02*
X164941247Y-74934649D01*
X164941247Y-74934649D02*
X164893628Y-75029887D01*
X164893628Y-75029887D02*
X164846009Y-75220363D01*
X164846009Y-75220363D02*
X164798390Y-75315601D01*
X164798390Y-75315601D02*
X164750771Y-75363220D01*
X164750771Y-75363220D02*
X164655533Y-75410839D01*
X164655533Y-75410839D02*
X164560295Y-75410839D01*
X164560295Y-75410839D02*
X164465057Y-75363220D01*
X164465057Y-75363220D02*
X164417438Y-75315601D01*
X164417438Y-75315601D02*
X164369819Y-75220363D01*
X164369819Y-75220363D02*
X164369819Y-74982268D01*
X164369819Y-74982268D02*
X164417438Y-74839411D01*
X165274580Y-73839411D02*
X165322200Y-73887030D01*
X165322200Y-73887030D02*
X165369819Y-74029887D01*
X165369819Y-74029887D02*
X165369819Y-74125125D01*
X165369819Y-74125125D02*
X165322200Y-74267982D01*
X165322200Y-74267982D02*
X165226961Y-74363220D01*
X165226961Y-74363220D02*
X165131723Y-74410839D01*
X165131723Y-74410839D02*
X164941247Y-74458458D01*
X164941247Y-74458458D02*
X164798390Y-74458458D01*
X164798390Y-74458458D02*
X164607914Y-74410839D01*
X164607914Y-74410839D02*
X164512676Y-74363220D01*
X164512676Y-74363220D02*
X164417438Y-74267982D01*
X164417438Y-74267982D02*
X164369819Y-74125125D01*
X164369819Y-74125125D02*
X164369819Y-74029887D01*
X164369819Y-74029887D02*
X164417438Y-73887030D01*
X164417438Y-73887030D02*
X164465057Y-73839411D01*
X165369819Y-72934649D02*
X165369819Y-73410839D01*
X165369819Y-73410839D02*
X164369819Y-73410839D01*
X130869819Y-76663220D02*
X129869819Y-76663220D01*
X129869819Y-76663220D02*
X130584104Y-76329887D01*
X130584104Y-76329887D02*
X129869819Y-75996554D01*
X129869819Y-75996554D02*
X130869819Y-75996554D01*
X130774580Y-75520363D02*
X130822200Y-75472744D01*
X130822200Y-75472744D02*
X130869819Y-75520363D01*
X130869819Y-75520363D02*
X130822200Y-75567982D01*
X130822200Y-75567982D02*
X130774580Y-75520363D01*
X130774580Y-75520363D02*
X130869819Y-75520363D01*
X130250771Y-75520363D02*
X130298390Y-75472744D01*
X130298390Y-75472744D02*
X130346009Y-75520363D01*
X130346009Y-75520363D02*
X130298390Y-75567982D01*
X130298390Y-75567982D02*
X130250771Y-75520363D01*
X130250771Y-75520363D02*
X130346009Y-75520363D01*
X130822200Y-75091792D02*
X130869819Y-74948935D01*
X130869819Y-74948935D02*
X130869819Y-74710840D01*
X130869819Y-74710840D02*
X130822200Y-74615602D01*
X130822200Y-74615602D02*
X130774580Y-74567983D01*
X130774580Y-74567983D02*
X130679342Y-74520364D01*
X130679342Y-74520364D02*
X130584104Y-74520364D01*
X130584104Y-74520364D02*
X130488866Y-74567983D01*
X130488866Y-74567983D02*
X130441247Y-74615602D01*
X130441247Y-74615602D02*
X130393628Y-74710840D01*
X130393628Y-74710840D02*
X130346009Y-74901316D01*
X130346009Y-74901316D02*
X130298390Y-74996554D01*
X130298390Y-74996554D02*
X130250771Y-75044173D01*
X130250771Y-75044173D02*
X130155533Y-75091792D01*
X130155533Y-75091792D02*
X130060295Y-75091792D01*
X130060295Y-75091792D02*
X129965057Y-75044173D01*
X129965057Y-75044173D02*
X129917438Y-74996554D01*
X129917438Y-74996554D02*
X129869819Y-74901316D01*
X129869819Y-74901316D02*
X129869819Y-74663221D01*
X129869819Y-74663221D02*
X129917438Y-74520364D01*
X130869819Y-74091792D02*
X129869819Y-74091792D01*
X129869819Y-74091792D02*
X129869819Y-73853697D01*
X129869819Y-73853697D02*
X129917438Y-73710840D01*
X129917438Y-73710840D02*
X130012676Y-73615602D01*
X130012676Y-73615602D02*
X130107914Y-73567983D01*
X130107914Y-73567983D02*
X130298390Y-73520364D01*
X130298390Y-73520364D02*
X130441247Y-73520364D01*
X130441247Y-73520364D02*
X130631723Y-73567983D01*
X130631723Y-73567983D02*
X130726961Y-73615602D01*
X130726961Y-73615602D02*
X130822200Y-73710840D01*
X130822200Y-73710840D02*
X130869819Y-73853697D01*
X130869819Y-73853697D02*
X130869819Y-74091792D01*
X130584104Y-73139411D02*
X130584104Y-72663221D01*
X130869819Y-73234649D02*
X129869819Y-72901316D01*
X129869819Y-72901316D02*
X130869819Y-72567983D01*
X128469819Y-76663220D02*
X127469819Y-76663220D01*
X127469819Y-76663220D02*
X128184104Y-76329887D01*
X128184104Y-76329887D02*
X127469819Y-75996554D01*
X127469819Y-75996554D02*
X128469819Y-75996554D01*
X128374580Y-75520363D02*
X128422200Y-75472744D01*
X128422200Y-75472744D02*
X128469819Y-75520363D01*
X128469819Y-75520363D02*
X128422200Y-75567982D01*
X128422200Y-75567982D02*
X128374580Y-75520363D01*
X128374580Y-75520363D02*
X128469819Y-75520363D01*
X127850771Y-75520363D02*
X127898390Y-75472744D01*
X127898390Y-75472744D02*
X127946009Y-75520363D01*
X127946009Y-75520363D02*
X127898390Y-75567982D01*
X127898390Y-75567982D02*
X127850771Y-75520363D01*
X127850771Y-75520363D02*
X127946009Y-75520363D01*
X128422200Y-75091792D02*
X128469819Y-74948935D01*
X128469819Y-74948935D02*
X128469819Y-74710840D01*
X128469819Y-74710840D02*
X128422200Y-74615602D01*
X128422200Y-74615602D02*
X128374580Y-74567983D01*
X128374580Y-74567983D02*
X128279342Y-74520364D01*
X128279342Y-74520364D02*
X128184104Y-74520364D01*
X128184104Y-74520364D02*
X128088866Y-74567983D01*
X128088866Y-74567983D02*
X128041247Y-74615602D01*
X128041247Y-74615602D02*
X127993628Y-74710840D01*
X127993628Y-74710840D02*
X127946009Y-74901316D01*
X127946009Y-74901316D02*
X127898390Y-74996554D01*
X127898390Y-74996554D02*
X127850771Y-75044173D01*
X127850771Y-75044173D02*
X127755533Y-75091792D01*
X127755533Y-75091792D02*
X127660295Y-75091792D01*
X127660295Y-75091792D02*
X127565057Y-75044173D01*
X127565057Y-75044173D02*
X127517438Y-74996554D01*
X127517438Y-74996554D02*
X127469819Y-74901316D01*
X127469819Y-74901316D02*
X127469819Y-74663221D01*
X127469819Y-74663221D02*
X127517438Y-74520364D01*
X128374580Y-73520364D02*
X128422200Y-73567983D01*
X128422200Y-73567983D02*
X128469819Y-73710840D01*
X128469819Y-73710840D02*
X128469819Y-73806078D01*
X128469819Y-73806078D02*
X128422200Y-73948935D01*
X128422200Y-73948935D02*
X128326961Y-74044173D01*
X128326961Y-74044173D02*
X128231723Y-74091792D01*
X128231723Y-74091792D02*
X128041247Y-74139411D01*
X128041247Y-74139411D02*
X127898390Y-74139411D01*
X127898390Y-74139411D02*
X127707914Y-74091792D01*
X127707914Y-74091792D02*
X127612676Y-74044173D01*
X127612676Y-74044173D02*
X127517438Y-73948935D01*
X127517438Y-73948935D02*
X127469819Y-73806078D01*
X127469819Y-73806078D02*
X127469819Y-73710840D01*
X127469819Y-73710840D02*
X127517438Y-73567983D01*
X127517438Y-73567983D02*
X127565057Y-73520364D01*
X128469819Y-72615602D02*
X128469819Y-73091792D01*
X128469819Y-73091792D02*
X127469819Y-73091792D01*
X122269819Y-75358458D02*
X122269819Y-74739411D01*
X122269819Y-74739411D02*
X122650771Y-75072744D01*
X122650771Y-75072744D02*
X122650771Y-74929887D01*
X122650771Y-74929887D02*
X122698390Y-74834649D01*
X122698390Y-74834649D02*
X122746009Y-74787030D01*
X122746009Y-74787030D02*
X122841247Y-74739411D01*
X122841247Y-74739411D02*
X123079342Y-74739411D01*
X123079342Y-74739411D02*
X123174580Y-74787030D01*
X123174580Y-74787030D02*
X123222200Y-74834649D01*
X123222200Y-74834649D02*
X123269819Y-74929887D01*
X123269819Y-74929887D02*
X123269819Y-75215601D01*
X123269819Y-75215601D02*
X123222200Y-75310839D01*
X123222200Y-75310839D02*
X123174580Y-75358458D01*
X122269819Y-74453696D02*
X123269819Y-74120363D01*
X123269819Y-74120363D02*
X122269819Y-73787030D01*
X122269819Y-73548934D02*
X122269819Y-72929887D01*
X122269819Y-72929887D02*
X122650771Y-73263220D01*
X122650771Y-73263220D02*
X122650771Y-73120363D01*
X122650771Y-73120363D02*
X122698390Y-73025125D01*
X122698390Y-73025125D02*
X122746009Y-72977506D01*
X122746009Y-72977506D02*
X122841247Y-72929887D01*
X122841247Y-72929887D02*
X123079342Y-72929887D01*
X123079342Y-72929887D02*
X123174580Y-72977506D01*
X123174580Y-72977506D02*
X123222200Y-73025125D01*
X123222200Y-73025125D02*
X123269819Y-73120363D01*
X123269819Y-73120363D02*
X123269819Y-73406077D01*
X123269819Y-73406077D02*
X123222200Y-73501315D01*
X123222200Y-73501315D02*
X123174580Y-73548934D01*
X125017438Y-74739411D02*
X124969819Y-74834649D01*
X124969819Y-74834649D02*
X124969819Y-74977506D01*
X124969819Y-74977506D02*
X125017438Y-75120363D01*
X125017438Y-75120363D02*
X125112676Y-75215601D01*
X125112676Y-75215601D02*
X125207914Y-75263220D01*
X125207914Y-75263220D02*
X125398390Y-75310839D01*
X125398390Y-75310839D02*
X125541247Y-75310839D01*
X125541247Y-75310839D02*
X125731723Y-75263220D01*
X125731723Y-75263220D02*
X125826961Y-75215601D01*
X125826961Y-75215601D02*
X125922200Y-75120363D01*
X125922200Y-75120363D02*
X125969819Y-74977506D01*
X125969819Y-74977506D02*
X125969819Y-74882268D01*
X125969819Y-74882268D02*
X125922200Y-74739411D01*
X125922200Y-74739411D02*
X125874580Y-74691792D01*
X125874580Y-74691792D02*
X125541247Y-74691792D01*
X125541247Y-74691792D02*
X125541247Y-74882268D01*
X125969819Y-74263220D02*
X124969819Y-74263220D01*
X124969819Y-74263220D02*
X125969819Y-73691792D01*
X125969819Y-73691792D02*
X124969819Y-73691792D01*
X125969819Y-73215601D02*
X124969819Y-73215601D01*
X124969819Y-73215601D02*
X124969819Y-72977506D01*
X124969819Y-72977506D02*
X125017438Y-72834649D01*
X125017438Y-72834649D02*
X125112676Y-72739411D01*
X125112676Y-72739411D02*
X125207914Y-72691792D01*
X125207914Y-72691792D02*
X125398390Y-72644173D01*
X125398390Y-72644173D02*
X125541247Y-72644173D01*
X125541247Y-72644173D02*
X125731723Y-72691792D01*
X125731723Y-72691792D02*
X125826961Y-72739411D01*
X125826961Y-72739411D02*
X125922200Y-72834649D01*
X125922200Y-72834649D02*
X125969819Y-72977506D01*
X125969819Y-72977506D02*
X125969819Y-73215601D01*
X183108207Y-100474580D02*
X183060588Y-100522200D01*
X183060588Y-100522200D02*
X182917731Y-100569819D01*
X182917731Y-100569819D02*
X182822493Y-100569819D01*
X182822493Y-100569819D02*
X182679636Y-100522200D01*
X182679636Y-100522200D02*
X182584398Y-100426961D01*
X182584398Y-100426961D02*
X182536779Y-100331723D01*
X182536779Y-100331723D02*
X182489160Y-100141247D01*
X182489160Y-100141247D02*
X182489160Y-99998390D01*
X182489160Y-99998390D02*
X182536779Y-99807914D01*
X182536779Y-99807914D02*
X182584398Y-99712676D01*
X182584398Y-99712676D02*
X182679636Y-99617438D01*
X182679636Y-99617438D02*
X182822493Y-99569819D01*
X182822493Y-99569819D02*
X182917731Y-99569819D01*
X182917731Y-99569819D02*
X183060588Y-99617438D01*
X183060588Y-99617438D02*
X183108207Y-99665057D01*
X182208207Y-71769819D02*
X181874874Y-71293628D01*
X181636779Y-71769819D02*
X181636779Y-70769819D01*
X181636779Y-70769819D02*
X182017731Y-70769819D01*
X182017731Y-70769819D02*
X182112969Y-70817438D01*
X182112969Y-70817438D02*
X182160588Y-70865057D01*
X182160588Y-70865057D02*
X182208207Y-70960295D01*
X182208207Y-70960295D02*
X182208207Y-71103152D01*
X182208207Y-71103152D02*
X182160588Y-71198390D01*
X182160588Y-71198390D02*
X182112969Y-71246009D01*
X182112969Y-71246009D02*
X182017731Y-71293628D01*
X182017731Y-71293628D02*
X181636779Y-71293628D01*
X182589160Y-71722200D02*
X182732017Y-71769819D01*
X182732017Y-71769819D02*
X182970112Y-71769819D01*
X182970112Y-71769819D02*
X183065350Y-71722200D01*
X183065350Y-71722200D02*
X183112969Y-71674580D01*
X183112969Y-71674580D02*
X183160588Y-71579342D01*
X183160588Y-71579342D02*
X183160588Y-71484104D01*
X183160588Y-71484104D02*
X183112969Y-71388866D01*
X183112969Y-71388866D02*
X183065350Y-71341247D01*
X183065350Y-71341247D02*
X182970112Y-71293628D01*
X182970112Y-71293628D02*
X182779636Y-71246009D01*
X182779636Y-71246009D02*
X182684398Y-71198390D01*
X182684398Y-71198390D02*
X182636779Y-71150771D01*
X182636779Y-71150771D02*
X182589160Y-71055533D01*
X182589160Y-71055533D02*
X182589160Y-70960295D01*
X182589160Y-70960295D02*
X182636779Y-70865057D01*
X182636779Y-70865057D02*
X182684398Y-70817438D01*
X182684398Y-70817438D02*
X182779636Y-70769819D01*
X182779636Y-70769819D02*
X183017731Y-70769819D01*
X183017731Y-70769819D02*
X183160588Y-70817438D01*
X183446303Y-70769819D02*
X184017731Y-70769819D01*
X183732017Y-71769819D02*
X183732017Y-70769819D01*
X182970112Y-90346009D02*
X183112969Y-90393628D01*
X183112969Y-90393628D02*
X183160588Y-90441247D01*
X183160588Y-90441247D02*
X183208207Y-90536485D01*
X183208207Y-90536485D02*
X183208207Y-90679342D01*
X183208207Y-90679342D02*
X183160588Y-90774580D01*
X183160588Y-90774580D02*
X183112969Y-90822200D01*
X183112969Y-90822200D02*
X183017731Y-90869819D01*
X183017731Y-90869819D02*
X182636779Y-90869819D01*
X182636779Y-90869819D02*
X182636779Y-89869819D01*
X182636779Y-89869819D02*
X182970112Y-89869819D01*
X182970112Y-89869819D02*
X183065350Y-89917438D01*
X183065350Y-89917438D02*
X183112969Y-89965057D01*
X183112969Y-89965057D02*
X183160588Y-90060295D01*
X183160588Y-90060295D02*
X183160588Y-90155533D01*
X183160588Y-90155533D02*
X183112969Y-90250771D01*
X183112969Y-90250771D02*
X183065350Y-90298390D01*
X183065350Y-90298390D02*
X182970112Y-90346009D01*
X182970112Y-90346009D02*
X182636779Y-90346009D01*
X182789160Y-81284104D02*
X183265350Y-81284104D01*
X182693922Y-81569819D02*
X183027255Y-80569819D01*
X183027255Y-80569819D02*
X183360588Y-81569819D01*
X106436779Y-100569819D02*
X106436779Y-99569819D01*
X106436779Y-99569819D02*
X106770112Y-100284104D01*
X106770112Y-100284104D02*
X107103445Y-99569819D01*
X107103445Y-99569819D02*
X107103445Y-100569819D01*
X107579636Y-100474580D02*
X107627255Y-100522200D01*
X107627255Y-100522200D02*
X107579636Y-100569819D01*
X107579636Y-100569819D02*
X107532017Y-100522200D01*
X107532017Y-100522200D02*
X107579636Y-100474580D01*
X107579636Y-100474580D02*
X107579636Y-100569819D01*
X107579636Y-99950771D02*
X107627255Y-99998390D01*
X107627255Y-99998390D02*
X107579636Y-100046009D01*
X107579636Y-100046009D02*
X107532017Y-99998390D01*
X107532017Y-99998390D02*
X107579636Y-99950771D01*
X107579636Y-99950771D02*
X107579636Y-100046009D01*
X108627254Y-100474580D02*
X108579635Y-100522200D01*
X108579635Y-100522200D02*
X108436778Y-100569819D01*
X108436778Y-100569819D02*
X108341540Y-100569819D01*
X108341540Y-100569819D02*
X108198683Y-100522200D01*
X108198683Y-100522200D02*
X108103445Y-100426961D01*
X108103445Y-100426961D02*
X108055826Y-100331723D01*
X108055826Y-100331723D02*
X108008207Y-100141247D01*
X108008207Y-100141247D02*
X108008207Y-99998390D01*
X108008207Y-99998390D02*
X108055826Y-99807914D01*
X108055826Y-99807914D02*
X108103445Y-99712676D01*
X108103445Y-99712676D02*
X108198683Y-99617438D01*
X108198683Y-99617438D02*
X108341540Y-99569819D01*
X108341540Y-99569819D02*
X108436778Y-99569819D01*
X108436778Y-99569819D02*
X108579635Y-99617438D01*
X108579635Y-99617438D02*
X108627254Y-99665057D01*
X106536779Y-90869819D02*
X106536779Y-89869819D01*
X106536779Y-89869819D02*
X106870112Y-90584104D01*
X106870112Y-90584104D02*
X107203445Y-89869819D01*
X107203445Y-89869819D02*
X107203445Y-90869819D01*
X107679636Y-90774580D02*
X107727255Y-90822200D01*
X107727255Y-90822200D02*
X107679636Y-90869819D01*
X107679636Y-90869819D02*
X107632017Y-90822200D01*
X107632017Y-90822200D02*
X107679636Y-90774580D01*
X107679636Y-90774580D02*
X107679636Y-90869819D01*
X107679636Y-90250771D02*
X107727255Y-90298390D01*
X107727255Y-90298390D02*
X107679636Y-90346009D01*
X107679636Y-90346009D02*
X107632017Y-90298390D01*
X107632017Y-90298390D02*
X107679636Y-90250771D01*
X107679636Y-90250771D02*
X107679636Y-90346009D01*
X108489159Y-90346009D02*
X108632016Y-90393628D01*
X108632016Y-90393628D02*
X108679635Y-90441247D01*
X108679635Y-90441247D02*
X108727254Y-90536485D01*
X108727254Y-90536485D02*
X108727254Y-90679342D01*
X108727254Y-90679342D02*
X108679635Y-90774580D01*
X108679635Y-90774580D02*
X108632016Y-90822200D01*
X108632016Y-90822200D02*
X108536778Y-90869819D01*
X108536778Y-90869819D02*
X108155826Y-90869819D01*
X108155826Y-90869819D02*
X108155826Y-89869819D01*
X108155826Y-89869819D02*
X108489159Y-89869819D01*
X108489159Y-89869819D02*
X108584397Y-89917438D01*
X108584397Y-89917438D02*
X108632016Y-89965057D01*
X108632016Y-89965057D02*
X108679635Y-90060295D01*
X108679635Y-90060295D02*
X108679635Y-90155533D01*
X108679635Y-90155533D02*
X108632016Y-90250771D01*
X108632016Y-90250771D02*
X108584397Y-90298390D01*
X108584397Y-90298390D02*
X108489159Y-90346009D01*
X108489159Y-90346009D02*
X108155826Y-90346009D01*
X106336779Y-81369819D02*
X106336779Y-80369819D01*
X106336779Y-80369819D02*
X106670112Y-81084104D01*
X106670112Y-81084104D02*
X107003445Y-80369819D01*
X107003445Y-80369819D02*
X107003445Y-81369819D01*
X107479636Y-81274580D02*
X107527255Y-81322200D01*
X107527255Y-81322200D02*
X107479636Y-81369819D01*
X107479636Y-81369819D02*
X107432017Y-81322200D01*
X107432017Y-81322200D02*
X107479636Y-81274580D01*
X107479636Y-81274580D02*
X107479636Y-81369819D01*
X107479636Y-80750771D02*
X107527255Y-80798390D01*
X107527255Y-80798390D02*
X107479636Y-80846009D01*
X107479636Y-80846009D02*
X107432017Y-80798390D01*
X107432017Y-80798390D02*
X107479636Y-80750771D01*
X107479636Y-80750771D02*
X107479636Y-80846009D01*
X107908207Y-81084104D02*
X108384397Y-81084104D01*
X107812969Y-81369819D02*
X108146302Y-80369819D01*
X108146302Y-80369819D02*
X108479635Y-81369819D01*
X106236779Y-71769819D02*
X106236779Y-70769819D01*
X106236779Y-70769819D02*
X106570112Y-71484104D01*
X106570112Y-71484104D02*
X106903445Y-70769819D01*
X106903445Y-70769819D02*
X106903445Y-71769819D01*
X107379636Y-71674580D02*
X107427255Y-71722200D01*
X107427255Y-71722200D02*
X107379636Y-71769819D01*
X107379636Y-71769819D02*
X107332017Y-71722200D01*
X107332017Y-71722200D02*
X107379636Y-71674580D01*
X107379636Y-71674580D02*
X107379636Y-71769819D01*
X107379636Y-71150771D02*
X107427255Y-71198390D01*
X107427255Y-71198390D02*
X107379636Y-71246009D01*
X107379636Y-71246009D02*
X107332017Y-71198390D01*
X107332017Y-71198390D02*
X107379636Y-71150771D01*
X107379636Y-71150771D02*
X107379636Y-71246009D01*
X108427254Y-71769819D02*
X108093921Y-71293628D01*
X107855826Y-71769819D02*
X107855826Y-70769819D01*
X107855826Y-70769819D02*
X108236778Y-70769819D01*
X108236778Y-70769819D02*
X108332016Y-70817438D01*
X108332016Y-70817438D02*
X108379635Y-70865057D01*
X108379635Y-70865057D02*
X108427254Y-70960295D01*
X108427254Y-70960295D02*
X108427254Y-71103152D01*
X108427254Y-71103152D02*
X108379635Y-71198390D01*
X108379635Y-71198390D02*
X108332016Y-71246009D01*
X108332016Y-71246009D02*
X108236778Y-71293628D01*
X108236778Y-71293628D02*
X107855826Y-71293628D01*
X108808207Y-71722200D02*
X108951064Y-71769819D01*
X108951064Y-71769819D02*
X109189159Y-71769819D01*
X109189159Y-71769819D02*
X109284397Y-71722200D01*
X109284397Y-71722200D02*
X109332016Y-71674580D01*
X109332016Y-71674580D02*
X109379635Y-71579342D01*
X109379635Y-71579342D02*
X109379635Y-71484104D01*
X109379635Y-71484104D02*
X109332016Y-71388866D01*
X109332016Y-71388866D02*
X109284397Y-71341247D01*
X109284397Y-71341247D02*
X109189159Y-71293628D01*
X109189159Y-71293628D02*
X108998683Y-71246009D01*
X108998683Y-71246009D02*
X108903445Y-71198390D01*
X108903445Y-71198390D02*
X108855826Y-71150771D01*
X108855826Y-71150771D02*
X108808207Y-71055533D01*
X108808207Y-71055533D02*
X108808207Y-70960295D01*
X108808207Y-70960295D02*
X108855826Y-70865057D01*
X108855826Y-70865057D02*
X108903445Y-70817438D01*
X108903445Y-70817438D02*
X108998683Y-70769819D01*
X108998683Y-70769819D02*
X109236778Y-70769819D01*
X109236778Y-70769819D02*
X109379635Y-70817438D01*
X109665350Y-70769819D02*
X110236778Y-70769819D01*
X109951064Y-71769819D02*
X109951064Y-70769819D01*
X143170112Y-65146009D02*
X143312969Y-65193628D01*
X143312969Y-65193628D02*
X143360588Y-65241247D01*
X143360588Y-65241247D02*
X143408207Y-65336485D01*
X143408207Y-65336485D02*
X143408207Y-65479342D01*
X143408207Y-65479342D02*
X143360588Y-65574580D01*
X143360588Y-65574580D02*
X143312969Y-65622200D01*
X143312969Y-65622200D02*
X143217731Y-65669819D01*
X143217731Y-65669819D02*
X142836779Y-65669819D01*
X142836779Y-65669819D02*
X142836779Y-64669819D01*
X142836779Y-64669819D02*
X143170112Y-64669819D01*
X143170112Y-64669819D02*
X143265350Y-64717438D01*
X143265350Y-64717438D02*
X143312969Y-64765057D01*
X143312969Y-64765057D02*
X143360588Y-64860295D01*
X143360588Y-64860295D02*
X143360588Y-64955533D01*
X143360588Y-64955533D02*
X143312969Y-65050771D01*
X143312969Y-65050771D02*
X143265350Y-65098390D01*
X143265350Y-65098390D02*
X143170112Y-65146009D01*
X143170112Y-65146009D02*
X142836779Y-65146009D01*
X144265350Y-65003152D02*
X144265350Y-65669819D01*
X143836779Y-65003152D02*
X143836779Y-65526961D01*
X143836779Y-65526961D02*
X143884398Y-65622200D01*
X143884398Y-65622200D02*
X143979636Y-65669819D01*
X143979636Y-65669819D02*
X144122493Y-65669819D01*
X144122493Y-65669819D02*
X144217731Y-65622200D01*
X144217731Y-65622200D02*
X144265350Y-65574580D01*
X144646303Y-65003152D02*
X145170112Y-65003152D01*
X145170112Y-65003152D02*
X144646303Y-65669819D01*
X144646303Y-65669819D02*
X145170112Y-65669819D01*
X145455827Y-65003152D02*
X145979636Y-65003152D01*
X145979636Y-65003152D02*
X145455827Y-65669819D01*
X145455827Y-65669819D02*
X145979636Y-65669819D01*
X146741541Y-65622200D02*
X146646303Y-65669819D01*
X146646303Y-65669819D02*
X146455827Y-65669819D01*
X146455827Y-65669819D02*
X146360589Y-65622200D01*
X146360589Y-65622200D02*
X146312970Y-65526961D01*
X146312970Y-65526961D02*
X146312970Y-65146009D01*
X146312970Y-65146009D02*
X146360589Y-65050771D01*
X146360589Y-65050771D02*
X146455827Y-65003152D01*
X146455827Y-65003152D02*
X146646303Y-65003152D01*
X146646303Y-65003152D02*
X146741541Y-65050771D01*
X146741541Y-65050771D02*
X146789160Y-65146009D01*
X146789160Y-65146009D02*
X146789160Y-65241247D01*
X146789160Y-65241247D02*
X146312970Y-65336485D01*
X147217732Y-65669819D02*
X147217732Y-65003152D01*
X147217732Y-65193628D02*
X147265351Y-65098390D01*
X147265351Y-65098390D02*
X147312970Y-65050771D01*
X147312970Y-65050771D02*
X147408208Y-65003152D01*
X147408208Y-65003152D02*
X147503446Y-65003152D01*
D11*
X124569673Y-40286266D02*
X125331578Y-40286266D01*
X132669673Y-40286266D02*
X133431578Y-40286266D01*
X133050625Y-40667219D02*
X133050625Y-39905314D01*
D10*
X107827255Y-41769819D02*
X108017731Y-41769819D01*
X108017731Y-41769819D02*
X108112969Y-41817438D01*
X108112969Y-41817438D02*
X108208207Y-41912676D01*
X108208207Y-41912676D02*
X108255826Y-42103152D01*
X108255826Y-42103152D02*
X108255826Y-42436485D01*
X108255826Y-42436485D02*
X108208207Y-42626961D01*
X108208207Y-42626961D02*
X108112969Y-42722200D01*
X108112969Y-42722200D02*
X108017731Y-42769819D01*
X108017731Y-42769819D02*
X107827255Y-42769819D01*
X107827255Y-42769819D02*
X107732017Y-42722200D01*
X107732017Y-42722200D02*
X107636779Y-42626961D01*
X107636779Y-42626961D02*
X107589160Y-42436485D01*
X107589160Y-42436485D02*
X107589160Y-42103152D01*
X107589160Y-42103152D02*
X107636779Y-41912676D01*
X107636779Y-41912676D02*
X107732017Y-41817438D01*
X107732017Y-41817438D02*
X107827255Y-41769819D01*
X109017731Y-42246009D02*
X108684398Y-42246009D01*
X108684398Y-42769819D02*
X108684398Y-41769819D01*
X108684398Y-41769819D02*
X109160588Y-41769819D01*
X109874874Y-42246009D02*
X109541541Y-42246009D01*
X109541541Y-42769819D02*
X109541541Y-41769819D01*
X109541541Y-41769819D02*
X110017731Y-41769819D01*
X122327255Y-41669819D02*
X122517731Y-41669819D01*
X122517731Y-41669819D02*
X122612969Y-41717438D01*
X122612969Y-41717438D02*
X122708207Y-41812676D01*
X122708207Y-41812676D02*
X122755826Y-42003152D01*
X122755826Y-42003152D02*
X122755826Y-42336485D01*
X122755826Y-42336485D02*
X122708207Y-42526961D01*
X122708207Y-42526961D02*
X122612969Y-42622200D01*
X122612969Y-42622200D02*
X122517731Y-42669819D01*
X122517731Y-42669819D02*
X122327255Y-42669819D01*
X122327255Y-42669819D02*
X122232017Y-42622200D01*
X122232017Y-42622200D02*
X122136779Y-42526961D01*
X122136779Y-42526961D02*
X122089160Y-42336485D01*
X122089160Y-42336485D02*
X122089160Y-42003152D01*
X122089160Y-42003152D02*
X122136779Y-41812676D01*
X122136779Y-41812676D02*
X122232017Y-41717438D01*
X122232017Y-41717438D02*
X122327255Y-41669819D01*
X123184398Y-42669819D02*
X123184398Y-41669819D01*
X123184398Y-41669819D02*
X123755826Y-42669819D01*
X123755826Y-42669819D02*
X123755826Y-41669819D01*
X149260588Y-110317438D02*
X149165350Y-110269819D01*
X149165350Y-110269819D02*
X149022493Y-110269819D01*
X149022493Y-110269819D02*
X148879636Y-110317438D01*
X148879636Y-110317438D02*
X148784398Y-110412676D01*
X148784398Y-110412676D02*
X148736779Y-110507914D01*
X148736779Y-110507914D02*
X148689160Y-110698390D01*
X148689160Y-110698390D02*
X148689160Y-110841247D01*
X148689160Y-110841247D02*
X148736779Y-111031723D01*
X148736779Y-111031723D02*
X148784398Y-111126961D01*
X148784398Y-111126961D02*
X148879636Y-111222200D01*
X148879636Y-111222200D02*
X149022493Y-111269819D01*
X149022493Y-111269819D02*
X149117731Y-111269819D01*
X149117731Y-111269819D02*
X149260588Y-111222200D01*
X149260588Y-111222200D02*
X149308207Y-111174580D01*
X149308207Y-111174580D02*
X149308207Y-110841247D01*
X149308207Y-110841247D02*
X149117731Y-110841247D01*
X149736779Y-111269819D02*
X149736779Y-110269819D01*
X149736779Y-110269819D02*
X150308207Y-111269819D01*
X150308207Y-111269819D02*
X150308207Y-110269819D01*
X150784398Y-111269819D02*
X150784398Y-110269819D01*
X150784398Y-110269819D02*
X151022493Y-110269819D01*
X151022493Y-110269819D02*
X151165350Y-110317438D01*
X151165350Y-110317438D02*
X151260588Y-110412676D01*
X151260588Y-110412676D02*
X151308207Y-110507914D01*
X151308207Y-110507914D02*
X151355826Y-110698390D01*
X151355826Y-110698390D02*
X151355826Y-110841247D01*
X151355826Y-110841247D02*
X151308207Y-111031723D01*
X151308207Y-111031723D02*
X151260588Y-111126961D01*
X151260588Y-111126961D02*
X151165350Y-111222200D01*
X151165350Y-111222200D02*
X151022493Y-111269819D01*
X151022493Y-111269819D02*
X150784398Y-111269819D01*
X160008207Y-111269819D02*
X159674874Y-110793628D01*
X159436779Y-111269819D02*
X159436779Y-110269819D01*
X159436779Y-110269819D02*
X159817731Y-110269819D01*
X159817731Y-110269819D02*
X159912969Y-110317438D01*
X159912969Y-110317438D02*
X159960588Y-110365057D01*
X159960588Y-110365057D02*
X160008207Y-110460295D01*
X160008207Y-110460295D02*
X160008207Y-110603152D01*
X160008207Y-110603152D02*
X159960588Y-110698390D01*
X159960588Y-110698390D02*
X159912969Y-110746009D01*
X159912969Y-110746009D02*
X159817731Y-110793628D01*
X159817731Y-110793628D02*
X159436779Y-110793628D01*
X160341541Y-110269819D02*
X161008207Y-111269819D01*
X161008207Y-110269819D02*
X160341541Y-111269819D01*
X153941541Y-110269819D02*
X154560588Y-110269819D01*
X154560588Y-110269819D02*
X154227255Y-110650771D01*
X154227255Y-110650771D02*
X154370112Y-110650771D01*
X154370112Y-110650771D02*
X154465350Y-110698390D01*
X154465350Y-110698390D02*
X154512969Y-110746009D01*
X154512969Y-110746009D02*
X154560588Y-110841247D01*
X154560588Y-110841247D02*
X154560588Y-111079342D01*
X154560588Y-111079342D02*
X154512969Y-111174580D01*
X154512969Y-111174580D02*
X154465350Y-111222200D01*
X154465350Y-111222200D02*
X154370112Y-111269819D01*
X154370112Y-111269819D02*
X154084398Y-111269819D01*
X154084398Y-111269819D02*
X153989160Y-111222200D01*
X153989160Y-111222200D02*
X153941541Y-111174580D01*
X154846303Y-110269819D02*
X155179636Y-111269819D01*
X155179636Y-111269819D02*
X155512969Y-110269819D01*
X155751065Y-110269819D02*
X156370112Y-110269819D01*
X156370112Y-110269819D02*
X156036779Y-110650771D01*
X156036779Y-110650771D02*
X156179636Y-110650771D01*
X156179636Y-110650771D02*
X156274874Y-110698390D01*
X156274874Y-110698390D02*
X156322493Y-110746009D01*
X156322493Y-110746009D02*
X156370112Y-110841247D01*
X156370112Y-110841247D02*
X156370112Y-111079342D01*
X156370112Y-111079342D02*
X156322493Y-111174580D01*
X156322493Y-111174580D02*
X156274874Y-111222200D01*
X156274874Y-111222200D02*
X156179636Y-111269819D01*
X156179636Y-111269819D02*
X155893922Y-111269819D01*
X155893922Y-111269819D02*
X155798684Y-111222200D01*
X155798684Y-111222200D02*
X155751065Y-111174580D01*
X137821541Y-110269819D02*
X138440588Y-110269819D01*
X138440588Y-110269819D02*
X138107255Y-110650771D01*
X138107255Y-110650771D02*
X138250112Y-110650771D01*
X138250112Y-110650771D02*
X138345350Y-110698390D01*
X138345350Y-110698390D02*
X138392969Y-110746009D01*
X138392969Y-110746009D02*
X138440588Y-110841247D01*
X138440588Y-110841247D02*
X138440588Y-111079342D01*
X138440588Y-111079342D02*
X138392969Y-111174580D01*
X138392969Y-111174580D02*
X138345350Y-111222200D01*
X138345350Y-111222200D02*
X138250112Y-111269819D01*
X138250112Y-111269819D02*
X137964398Y-111269819D01*
X137964398Y-111269819D02*
X137869160Y-111222200D01*
X137869160Y-111222200D02*
X137821541Y-111174580D01*
X138726303Y-110269819D02*
X139059636Y-111269819D01*
X139059636Y-111269819D02*
X139392969Y-110269819D01*
X139631065Y-110269819D02*
X140250112Y-110269819D01*
X140250112Y-110269819D02*
X139916779Y-110650771D01*
X139916779Y-110650771D02*
X140059636Y-110650771D01*
X140059636Y-110650771D02*
X140154874Y-110698390D01*
X140154874Y-110698390D02*
X140202493Y-110746009D01*
X140202493Y-110746009D02*
X140250112Y-110841247D01*
X140250112Y-110841247D02*
X140250112Y-111079342D01*
X140250112Y-111079342D02*
X140202493Y-111174580D01*
X140202493Y-111174580D02*
X140154874Y-111222200D01*
X140154874Y-111222200D02*
X140059636Y-111269819D01*
X140059636Y-111269819D02*
X139773922Y-111269819D01*
X139773922Y-111269819D02*
X139678684Y-111222200D01*
X139678684Y-111222200D02*
X139631065Y-111174580D01*
X143740588Y-110317438D02*
X143645350Y-110269819D01*
X143645350Y-110269819D02*
X143502493Y-110269819D01*
X143502493Y-110269819D02*
X143359636Y-110317438D01*
X143359636Y-110317438D02*
X143264398Y-110412676D01*
X143264398Y-110412676D02*
X143216779Y-110507914D01*
X143216779Y-110507914D02*
X143169160Y-110698390D01*
X143169160Y-110698390D02*
X143169160Y-110841247D01*
X143169160Y-110841247D02*
X143216779Y-111031723D01*
X143216779Y-111031723D02*
X143264398Y-111126961D01*
X143264398Y-111126961D02*
X143359636Y-111222200D01*
X143359636Y-111222200D02*
X143502493Y-111269819D01*
X143502493Y-111269819D02*
X143597731Y-111269819D01*
X143597731Y-111269819D02*
X143740588Y-111222200D01*
X143740588Y-111222200D02*
X143788207Y-111174580D01*
X143788207Y-111174580D02*
X143788207Y-110841247D01*
X143788207Y-110841247D02*
X143597731Y-110841247D01*
X144216779Y-111269819D02*
X144216779Y-110269819D01*
X144216779Y-110269819D02*
X144788207Y-111269819D01*
X144788207Y-111269819D02*
X144788207Y-110269819D01*
X145264398Y-111269819D02*
X145264398Y-110269819D01*
X145264398Y-110269819D02*
X145502493Y-110269819D01*
X145502493Y-110269819D02*
X145645350Y-110317438D01*
X145645350Y-110317438D02*
X145740588Y-110412676D01*
X145740588Y-110412676D02*
X145788207Y-110507914D01*
X145788207Y-110507914D02*
X145835826Y-110698390D01*
X145835826Y-110698390D02*
X145835826Y-110841247D01*
X145835826Y-110841247D02*
X145788207Y-111031723D01*
X145788207Y-111031723D02*
X145740588Y-111126961D01*
X145740588Y-111126961D02*
X145645350Y-111222200D01*
X145645350Y-111222200D02*
X145502493Y-111269819D01*
X145502493Y-111269819D02*
X145264398Y-111269819D01*
X133340588Y-111269819D02*
X132769160Y-111269819D01*
X133054874Y-111269819D02*
X133054874Y-110269819D01*
X133054874Y-110269819D02*
X132959636Y-110412676D01*
X132959636Y-110412676D02*
X132864398Y-110507914D01*
X132864398Y-110507914D02*
X132769160Y-110555533D01*
X133673922Y-110269819D02*
X133912017Y-111269819D01*
X133912017Y-111269819D02*
X134102493Y-110555533D01*
X134102493Y-110555533D02*
X134292969Y-111269819D01*
X134292969Y-111269819D02*
X134531065Y-110269819D01*
X164593922Y-110269819D02*
X165165350Y-110269819D01*
X164879636Y-111269819D02*
X164879636Y-110269819D01*
X165403446Y-110269819D02*
X166070112Y-111269819D01*
X166070112Y-110269819D02*
X165403446Y-111269819D01*
X187241541Y-46253152D02*
X187479636Y-46919819D01*
X187479636Y-46919819D02*
X187717731Y-46253152D01*
X188622493Y-46919819D02*
X188051065Y-46919819D01*
X188336779Y-46919819D02*
X188336779Y-45919819D01*
X188336779Y-45919819D02*
X188241541Y-46062676D01*
X188241541Y-46062676D02*
X188146303Y-46157914D01*
X188146303Y-46157914D02*
X188051065Y-46205533D01*
D12*
X186900000Y-45450000D02*
X188900000Y-45450000D01*
X188900000Y-47550000D01*
X186900000Y-47550000D01*
X186900000Y-45450000D01*
D10*
X135661905Y-46254819D02*
X135661905Y-45254819D01*
X135661905Y-45254819D02*
X135900000Y-45254819D01*
X135900000Y-45254819D02*
X136042857Y-45302438D01*
X136042857Y-45302438D02*
X136138095Y-45397676D01*
X136138095Y-45397676D02*
X136185714Y-45492914D01*
X136185714Y-45492914D02*
X136233333Y-45683390D01*
X136233333Y-45683390D02*
X136233333Y-45826247D01*
X136233333Y-45826247D02*
X136185714Y-46016723D01*
X136185714Y-46016723D02*
X136138095Y-46111961D01*
X136138095Y-46111961D02*
X136042857Y-46207200D01*
X136042857Y-46207200D02*
X135900000Y-46254819D01*
X135900000Y-46254819D02*
X135661905Y-46254819D01*
X136614286Y-45350057D02*
X136661905Y-45302438D01*
X136661905Y-45302438D02*
X136757143Y-45254819D01*
X136757143Y-45254819D02*
X136995238Y-45254819D01*
X136995238Y-45254819D02*
X137090476Y-45302438D01*
X137090476Y-45302438D02*
X137138095Y-45350057D01*
X137138095Y-45350057D02*
X137185714Y-45445295D01*
X137185714Y-45445295D02*
X137185714Y-45540533D01*
X137185714Y-45540533D02*
X137138095Y-45683390D01*
X137138095Y-45683390D02*
X136566667Y-46254819D01*
X136566667Y-46254819D02*
X137185714Y-46254819D01*
X153854819Y-41666666D02*
X153378628Y-41999999D01*
X153854819Y-42238094D02*
X152854819Y-42238094D01*
X152854819Y-42238094D02*
X152854819Y-41857142D01*
X152854819Y-41857142D02*
X152902438Y-41761904D01*
X152902438Y-41761904D02*
X152950057Y-41714285D01*
X152950057Y-41714285D02*
X153045295Y-41666666D01*
X153045295Y-41666666D02*
X153188152Y-41666666D01*
X153188152Y-41666666D02*
X153283390Y-41714285D01*
X153283390Y-41714285D02*
X153331009Y-41761904D01*
X153331009Y-41761904D02*
X153378628Y-41857142D01*
X153378628Y-41857142D02*
X153378628Y-42238094D01*
X152854819Y-41333332D02*
X152854819Y-40666666D01*
X152854819Y-40666666D02*
X153854819Y-41095237D01*
X110362855Y-57284200D02*
X110439046Y-57322295D01*
X110439046Y-57322295D02*
X110591427Y-57322295D01*
X110591427Y-57322295D02*
X110667617Y-57284200D01*
X110667617Y-57284200D02*
X110705713Y-57208009D01*
X110705713Y-57208009D02*
X110705713Y-57169914D01*
X110705713Y-57169914D02*
X110667617Y-57093723D01*
X110667617Y-57093723D02*
X110591427Y-57055628D01*
X110591427Y-57055628D02*
X110477141Y-57055628D01*
X110477141Y-57055628D02*
X110400951Y-57017533D01*
X110400951Y-57017533D02*
X110362855Y-56941342D01*
X110362855Y-56941342D02*
X110362855Y-56903247D01*
X110362855Y-56903247D02*
X110400951Y-56827057D01*
X110400951Y-56827057D02*
X110477141Y-56788961D01*
X110477141Y-56788961D02*
X110591427Y-56788961D01*
X110591427Y-56788961D02*
X110667617Y-56827057D01*
X111391427Y-56788961D02*
X111391427Y-57322295D01*
X111048570Y-56788961D02*
X111048570Y-57208009D01*
X111048570Y-57208009D02*
X111086665Y-57284200D01*
X111086665Y-57284200D02*
X111162855Y-57322295D01*
X111162855Y-57322295D02*
X111277141Y-57322295D01*
X111277141Y-57322295D02*
X111353332Y-57284200D01*
X111353332Y-57284200D02*
X111391427Y-57246104D01*
X111772380Y-56788961D02*
X111772380Y-57588961D01*
X111772380Y-56827057D02*
X111848570Y-56788961D01*
X111848570Y-56788961D02*
X112000951Y-56788961D01*
X112000951Y-56788961D02*
X112077142Y-56827057D01*
X112077142Y-56827057D02*
X112115237Y-56865152D01*
X112115237Y-56865152D02*
X112153332Y-56941342D01*
X112153332Y-56941342D02*
X112153332Y-57169914D01*
X112153332Y-57169914D02*
X112115237Y-57246104D01*
X112115237Y-57246104D02*
X112077142Y-57284200D01*
X112077142Y-57284200D02*
X112000951Y-57322295D01*
X112000951Y-57322295D02*
X111848570Y-57322295D01*
X111848570Y-57322295D02*
X111772380Y-57284200D01*
X112800952Y-57284200D02*
X112724761Y-57322295D01*
X112724761Y-57322295D02*
X112572380Y-57322295D01*
X112572380Y-57322295D02*
X112496190Y-57284200D01*
X112496190Y-57284200D02*
X112458094Y-57208009D01*
X112458094Y-57208009D02*
X112458094Y-56903247D01*
X112458094Y-56903247D02*
X112496190Y-56827057D01*
X112496190Y-56827057D02*
X112572380Y-56788961D01*
X112572380Y-56788961D02*
X112724761Y-56788961D01*
X112724761Y-56788961D02*
X112800952Y-56827057D01*
X112800952Y-56827057D02*
X112839047Y-56903247D01*
X112839047Y-56903247D02*
X112839047Y-56979438D01*
X112839047Y-56979438D02*
X112458094Y-57055628D01*
X113181904Y-57322295D02*
X113181904Y-56788961D01*
X113181904Y-56941342D02*
X113219999Y-56865152D01*
X113219999Y-56865152D02*
X113258094Y-56827057D01*
X113258094Y-56827057D02*
X113334285Y-56788961D01*
X113334285Y-56788961D02*
X113410475Y-56788961D01*
X113677142Y-57322295D02*
X113677142Y-56788961D01*
X113677142Y-56865152D02*
X113715237Y-56827057D01*
X113715237Y-56827057D02*
X113791427Y-56788961D01*
X113791427Y-56788961D02*
X113905713Y-56788961D01*
X113905713Y-56788961D02*
X113981904Y-56827057D01*
X113981904Y-56827057D02*
X114019999Y-56903247D01*
X114019999Y-56903247D02*
X114019999Y-57322295D01*
X114019999Y-56903247D02*
X114058094Y-56827057D01*
X114058094Y-56827057D02*
X114134285Y-56788961D01*
X114134285Y-56788961D02*
X114248570Y-56788961D01*
X114248570Y-56788961D02*
X114324761Y-56827057D01*
X114324761Y-56827057D02*
X114362856Y-56903247D01*
X114362856Y-56903247D02*
X114362856Y-57322295D01*
X114743809Y-57322295D02*
X114743809Y-56788961D01*
X114743809Y-56522295D02*
X114705713Y-56560390D01*
X114705713Y-56560390D02*
X114743809Y-56598485D01*
X114743809Y-56598485D02*
X114781904Y-56560390D01*
X114781904Y-56560390D02*
X114743809Y-56522295D01*
X114743809Y-56522295D02*
X114743809Y-56598485D01*
X115124761Y-56788961D02*
X115124761Y-57322295D01*
X115124761Y-56865152D02*
X115162856Y-56827057D01*
X115162856Y-56827057D02*
X115239046Y-56788961D01*
X115239046Y-56788961D02*
X115353332Y-56788961D01*
X115353332Y-56788961D02*
X115429523Y-56827057D01*
X115429523Y-56827057D02*
X115467618Y-56903247D01*
X115467618Y-56903247D02*
X115467618Y-57322295D01*
X115848571Y-57322295D02*
X115848571Y-56788961D01*
X115848571Y-56522295D02*
X115810475Y-56560390D01*
X115810475Y-56560390D02*
X115848571Y-56598485D01*
X115848571Y-56598485D02*
X115886666Y-56560390D01*
X115886666Y-56560390D02*
X115848571Y-56522295D01*
X115848571Y-56522295D02*
X115848571Y-56598485D01*
X117410475Y-56484200D02*
X116724761Y-57512771D01*
X118286666Y-56788961D02*
X118286666Y-57322295D01*
X118286666Y-56865152D02*
X118324761Y-56827057D01*
X118324761Y-56827057D02*
X118400951Y-56788961D01*
X118400951Y-56788961D02*
X118515237Y-56788961D01*
X118515237Y-56788961D02*
X118591428Y-56827057D01*
X118591428Y-56827057D02*
X118629523Y-56903247D01*
X118629523Y-56903247D02*
X118629523Y-57322295D01*
X119010476Y-57322295D02*
X119010476Y-56788961D01*
X119010476Y-56522295D02*
X118972380Y-56560390D01*
X118972380Y-56560390D02*
X119010476Y-56598485D01*
X119010476Y-56598485D02*
X119048571Y-56560390D01*
X119048571Y-56560390D02*
X119010476Y-56522295D01*
X119010476Y-56522295D02*
X119010476Y-56598485D01*
X119734285Y-57284200D02*
X119658094Y-57322295D01*
X119658094Y-57322295D02*
X119505713Y-57322295D01*
X119505713Y-57322295D02*
X119429523Y-57284200D01*
X119429523Y-57284200D02*
X119391428Y-57246104D01*
X119391428Y-57246104D02*
X119353332Y-57169914D01*
X119353332Y-57169914D02*
X119353332Y-56941342D01*
X119353332Y-56941342D02*
X119391428Y-56865152D01*
X119391428Y-56865152D02*
X119429523Y-56827057D01*
X119429523Y-56827057D02*
X119505713Y-56788961D01*
X119505713Y-56788961D02*
X119658094Y-56788961D01*
X119658094Y-56788961D02*
X119734285Y-56827057D01*
X120381904Y-57284200D02*
X120305713Y-57322295D01*
X120305713Y-57322295D02*
X120153332Y-57322295D01*
X120153332Y-57322295D02*
X120077142Y-57284200D01*
X120077142Y-57284200D02*
X120039046Y-57208009D01*
X120039046Y-57208009D02*
X120039046Y-56903247D01*
X120039046Y-56903247D02*
X120077142Y-56827057D01*
X120077142Y-56827057D02*
X120153332Y-56788961D01*
X120153332Y-56788961D02*
X120305713Y-56788961D01*
X120305713Y-56788961D02*
X120381904Y-56827057D01*
X120381904Y-56827057D02*
X120419999Y-56903247D01*
X120419999Y-56903247D02*
X120419999Y-56979438D01*
X120419999Y-56979438D02*
X120039046Y-57055628D01*
X120762856Y-57246104D02*
X120800951Y-57284200D01*
X120800951Y-57284200D02*
X120762856Y-57322295D01*
X120762856Y-57322295D02*
X120724760Y-57284200D01*
X120724760Y-57284200D02*
X120762856Y-57246104D01*
X120762856Y-57246104D02*
X120762856Y-57322295D01*
X120762856Y-57017533D02*
X120724760Y-56560390D01*
X120724760Y-56560390D02*
X120762856Y-56522295D01*
X120762856Y-56522295D02*
X120800951Y-56560390D01*
X120800951Y-56560390D02*
X120762856Y-57017533D01*
X120762856Y-57017533D02*
X120762856Y-56522295D01*
X121143808Y-56788961D02*
X121143808Y-57322295D01*
X121143808Y-56865152D02*
X121181903Y-56827057D01*
X121181903Y-56827057D02*
X121258093Y-56788961D01*
X121258093Y-56788961D02*
X121372379Y-56788961D01*
X121372379Y-56788961D02*
X121448570Y-56827057D01*
X121448570Y-56827057D02*
X121486665Y-56903247D01*
X121486665Y-56903247D02*
X121486665Y-57322295D01*
X122210475Y-57322295D02*
X122210475Y-56903247D01*
X122210475Y-56903247D02*
X122172380Y-56827057D01*
X122172380Y-56827057D02*
X122096189Y-56788961D01*
X122096189Y-56788961D02*
X121943808Y-56788961D01*
X121943808Y-56788961D02*
X121867618Y-56827057D01*
X122210475Y-57284200D02*
X122134284Y-57322295D01*
X122134284Y-57322295D02*
X121943808Y-57322295D01*
X121943808Y-57322295D02*
X121867618Y-57284200D01*
X121867618Y-57284200D02*
X121829522Y-57208009D01*
X121829522Y-57208009D02*
X121829522Y-57131819D01*
X121829522Y-57131819D02*
X121867618Y-57055628D01*
X121867618Y-57055628D02*
X121943808Y-57017533D01*
X121943808Y-57017533D02*
X122134284Y-57017533D01*
X122134284Y-57017533D02*
X122210475Y-56979438D01*
X122591428Y-56788961D02*
X122591428Y-57322295D01*
X122591428Y-56865152D02*
X122629523Y-56827057D01*
X122629523Y-56827057D02*
X122705713Y-56788961D01*
X122705713Y-56788961D02*
X122819999Y-56788961D01*
X122819999Y-56788961D02*
X122896190Y-56827057D01*
X122896190Y-56827057D02*
X122934285Y-56903247D01*
X122934285Y-56903247D02*
X122934285Y-57322295D01*
X123429523Y-57322295D02*
X123353333Y-57284200D01*
X123353333Y-57284200D02*
X123315238Y-57246104D01*
X123315238Y-57246104D02*
X123277142Y-57169914D01*
X123277142Y-57169914D02*
X123277142Y-56941342D01*
X123277142Y-56941342D02*
X123315238Y-56865152D01*
X123315238Y-56865152D02*
X123353333Y-56827057D01*
X123353333Y-56827057D02*
X123429523Y-56788961D01*
X123429523Y-56788961D02*
X123543809Y-56788961D01*
X123543809Y-56788961D02*
X123620000Y-56827057D01*
X123620000Y-56827057D02*
X123658095Y-56865152D01*
X123658095Y-56865152D02*
X123696190Y-56941342D01*
X123696190Y-56941342D02*
X123696190Y-57169914D01*
X123696190Y-57169914D02*
X123658095Y-57246104D01*
X123658095Y-57246104D02*
X123620000Y-57284200D01*
X123620000Y-57284200D02*
X123543809Y-57322295D01*
X123543809Y-57322295D02*
X123429523Y-57322295D01*
X125220000Y-56484200D02*
X124534286Y-57512771D01*
X126096191Y-56788961D02*
X126096191Y-57322295D01*
X126096191Y-56865152D02*
X126134286Y-56827057D01*
X126134286Y-56827057D02*
X126210476Y-56788961D01*
X126210476Y-56788961D02*
X126324762Y-56788961D01*
X126324762Y-56788961D02*
X126400953Y-56827057D01*
X126400953Y-56827057D02*
X126439048Y-56903247D01*
X126439048Y-56903247D02*
X126439048Y-57322295D01*
X126820001Y-57322295D02*
X126820001Y-56788961D01*
X126820001Y-56941342D02*
X126858096Y-56865152D01*
X126858096Y-56865152D02*
X126896191Y-56827057D01*
X126896191Y-56827057D02*
X126972382Y-56788961D01*
X126972382Y-56788961D02*
X127048572Y-56788961D01*
X127200953Y-56788961D02*
X127505715Y-56788961D01*
X127315239Y-57322295D02*
X127315239Y-56636580D01*
X127315239Y-56636580D02*
X127353334Y-56560390D01*
X127353334Y-56560390D02*
X127429524Y-56522295D01*
X127429524Y-56522295D02*
X127505715Y-56522295D01*
X128153334Y-56522295D02*
X127772382Y-56522295D01*
X127772382Y-56522295D02*
X127734286Y-56903247D01*
X127734286Y-56903247D02*
X127772382Y-56865152D01*
X127772382Y-56865152D02*
X127848572Y-56827057D01*
X127848572Y-56827057D02*
X128039048Y-56827057D01*
X128039048Y-56827057D02*
X128115239Y-56865152D01*
X128115239Y-56865152D02*
X128153334Y-56903247D01*
X128153334Y-56903247D02*
X128191429Y-56979438D01*
X128191429Y-56979438D02*
X128191429Y-57169914D01*
X128191429Y-57169914D02*
X128153334Y-57246104D01*
X128153334Y-57246104D02*
X128115239Y-57284200D01*
X128115239Y-57284200D02*
X128039048Y-57322295D01*
X128039048Y-57322295D02*
X127848572Y-57322295D01*
X127848572Y-57322295D02*
X127772382Y-57284200D01*
X127772382Y-57284200D02*
X127734286Y-57246104D01*
X128496191Y-56598485D02*
X128534287Y-56560390D01*
X128534287Y-56560390D02*
X128610477Y-56522295D01*
X128610477Y-56522295D02*
X128800953Y-56522295D01*
X128800953Y-56522295D02*
X128877144Y-56560390D01*
X128877144Y-56560390D02*
X128915239Y-56598485D01*
X128915239Y-56598485D02*
X128953334Y-56674676D01*
X128953334Y-56674676D02*
X128953334Y-56750866D01*
X128953334Y-56750866D02*
X128915239Y-56865152D01*
X128915239Y-56865152D02*
X128458096Y-57322295D01*
X128458096Y-57322295D02*
X128953334Y-57322295D01*
X129410477Y-56865152D02*
X129334287Y-56827057D01*
X129334287Y-56827057D02*
X129296192Y-56788961D01*
X129296192Y-56788961D02*
X129258096Y-56712771D01*
X129258096Y-56712771D02*
X129258096Y-56674676D01*
X129258096Y-56674676D02*
X129296192Y-56598485D01*
X129296192Y-56598485D02*
X129334287Y-56560390D01*
X129334287Y-56560390D02*
X129410477Y-56522295D01*
X129410477Y-56522295D02*
X129562858Y-56522295D01*
X129562858Y-56522295D02*
X129639049Y-56560390D01*
X129639049Y-56560390D02*
X129677144Y-56598485D01*
X129677144Y-56598485D02*
X129715239Y-56674676D01*
X129715239Y-56674676D02*
X129715239Y-56712771D01*
X129715239Y-56712771D02*
X129677144Y-56788961D01*
X129677144Y-56788961D02*
X129639049Y-56827057D01*
X129639049Y-56827057D02*
X129562858Y-56865152D01*
X129562858Y-56865152D02*
X129410477Y-56865152D01*
X129410477Y-56865152D02*
X129334287Y-56903247D01*
X129334287Y-56903247D02*
X129296192Y-56941342D01*
X129296192Y-56941342D02*
X129258096Y-57017533D01*
X129258096Y-57017533D02*
X129258096Y-57169914D01*
X129258096Y-57169914D02*
X129296192Y-57246104D01*
X129296192Y-57246104D02*
X129334287Y-57284200D01*
X129334287Y-57284200D02*
X129410477Y-57322295D01*
X129410477Y-57322295D02*
X129562858Y-57322295D01*
X129562858Y-57322295D02*
X129639049Y-57284200D01*
X129639049Y-57284200D02*
X129677144Y-57246104D01*
X129677144Y-57246104D02*
X129715239Y-57169914D01*
X129715239Y-57169914D02*
X129715239Y-57017533D01*
X129715239Y-57017533D02*
X129677144Y-56941342D01*
X129677144Y-56941342D02*
X129639049Y-56903247D01*
X129639049Y-56903247D02*
X129562858Y-56865152D01*
X130210478Y-56522295D02*
X130286668Y-56522295D01*
X130286668Y-56522295D02*
X130362859Y-56560390D01*
X130362859Y-56560390D02*
X130400954Y-56598485D01*
X130400954Y-56598485D02*
X130439049Y-56674676D01*
X130439049Y-56674676D02*
X130477144Y-56827057D01*
X130477144Y-56827057D02*
X130477144Y-57017533D01*
X130477144Y-57017533D02*
X130439049Y-57169914D01*
X130439049Y-57169914D02*
X130400954Y-57246104D01*
X130400954Y-57246104D02*
X130362859Y-57284200D01*
X130362859Y-57284200D02*
X130286668Y-57322295D01*
X130286668Y-57322295D02*
X130210478Y-57322295D01*
X130210478Y-57322295D02*
X130134287Y-57284200D01*
X130134287Y-57284200D02*
X130096192Y-57246104D01*
X130096192Y-57246104D02*
X130058097Y-57169914D01*
X130058097Y-57169914D02*
X130020001Y-57017533D01*
X130020001Y-57017533D02*
X130020001Y-56827057D01*
X130020001Y-56827057D02*
X130058097Y-56674676D01*
X130058097Y-56674676D02*
X130096192Y-56598485D01*
X130096192Y-56598485D02*
X130134287Y-56560390D01*
X130134287Y-56560390D02*
X130210478Y-56522295D01*
X103672295Y-59364761D02*
X104319914Y-59364761D01*
X104319914Y-59364761D02*
X104396104Y-59326666D01*
X104396104Y-59326666D02*
X104434200Y-59288571D01*
X104434200Y-59288571D02*
X104472295Y-59212380D01*
X104472295Y-59212380D02*
X104472295Y-59059999D01*
X104472295Y-59059999D02*
X104434200Y-58983809D01*
X104434200Y-58983809D02*
X104396104Y-58945714D01*
X104396104Y-58945714D02*
X104319914Y-58907618D01*
X104319914Y-58907618D02*
X103672295Y-58907618D01*
X104434200Y-58564762D02*
X104472295Y-58450476D01*
X104472295Y-58450476D02*
X104472295Y-58260000D01*
X104472295Y-58260000D02*
X104434200Y-58183809D01*
X104434200Y-58183809D02*
X104396104Y-58145714D01*
X104396104Y-58145714D02*
X104319914Y-58107619D01*
X104319914Y-58107619D02*
X104243723Y-58107619D01*
X104243723Y-58107619D02*
X104167533Y-58145714D01*
X104167533Y-58145714D02*
X104129438Y-58183809D01*
X104129438Y-58183809D02*
X104091342Y-58260000D01*
X104091342Y-58260000D02*
X104053247Y-58412381D01*
X104053247Y-58412381D02*
X104015152Y-58488571D01*
X104015152Y-58488571D02*
X103977057Y-58526666D01*
X103977057Y-58526666D02*
X103900866Y-58564762D01*
X103900866Y-58564762D02*
X103824676Y-58564762D01*
X103824676Y-58564762D02*
X103748485Y-58526666D01*
X103748485Y-58526666D02*
X103710390Y-58488571D01*
X103710390Y-58488571D02*
X103672295Y-58412381D01*
X103672295Y-58412381D02*
X103672295Y-58221904D01*
X103672295Y-58221904D02*
X103710390Y-58107619D01*
X104053247Y-57498095D02*
X104091342Y-57383809D01*
X104091342Y-57383809D02*
X104129438Y-57345714D01*
X104129438Y-57345714D02*
X104205628Y-57307618D01*
X104205628Y-57307618D02*
X104319914Y-57307618D01*
X104319914Y-57307618D02*
X104396104Y-57345714D01*
X104396104Y-57345714D02*
X104434200Y-57383809D01*
X104434200Y-57383809D02*
X104472295Y-57459999D01*
X104472295Y-57459999D02*
X104472295Y-57764761D01*
X104472295Y-57764761D02*
X103672295Y-57764761D01*
X103672295Y-57764761D02*
X103672295Y-57498095D01*
X103672295Y-57498095D02*
X103710390Y-57421904D01*
X103710390Y-57421904D02*
X103748485Y-57383809D01*
X103748485Y-57383809D02*
X103824676Y-57345714D01*
X103824676Y-57345714D02*
X103900866Y-57345714D01*
X103900866Y-57345714D02*
X103977057Y-57383809D01*
X103977057Y-57383809D02*
X104015152Y-57421904D01*
X104015152Y-57421904D02*
X104053247Y-57498095D01*
X104053247Y-57498095D02*
X104053247Y-57764761D01*
X104167533Y-56964761D02*
X104167533Y-56355238D01*
X104396104Y-55517142D02*
X104434200Y-55555238D01*
X104434200Y-55555238D02*
X104472295Y-55669523D01*
X104472295Y-55669523D02*
X104472295Y-55745714D01*
X104472295Y-55745714D02*
X104434200Y-55860000D01*
X104434200Y-55860000D02*
X104358009Y-55936190D01*
X104358009Y-55936190D02*
X104281819Y-55974285D01*
X104281819Y-55974285D02*
X104129438Y-56012381D01*
X104129438Y-56012381D02*
X104015152Y-56012381D01*
X104015152Y-56012381D02*
X103862771Y-55974285D01*
X103862771Y-55974285D02*
X103786580Y-55936190D01*
X103786580Y-55936190D02*
X103710390Y-55860000D01*
X103710390Y-55860000D02*
X103672295Y-55745714D01*
X103672295Y-55745714D02*
X103672295Y-55669523D01*
X103672295Y-55669523D02*
X103710390Y-55555238D01*
X103710390Y-55555238D02*
X103748485Y-55517142D01*
X185432295Y-58684761D02*
X186079914Y-58684761D01*
X186079914Y-58684761D02*
X186156104Y-58646666D01*
X186156104Y-58646666D02*
X186194200Y-58608571D01*
X186194200Y-58608571D02*
X186232295Y-58532380D01*
X186232295Y-58532380D02*
X186232295Y-58379999D01*
X186232295Y-58379999D02*
X186194200Y-58303809D01*
X186194200Y-58303809D02*
X186156104Y-58265714D01*
X186156104Y-58265714D02*
X186079914Y-58227618D01*
X186079914Y-58227618D02*
X185432295Y-58227618D01*
X186194200Y-57884762D02*
X186232295Y-57770476D01*
X186232295Y-57770476D02*
X186232295Y-57580000D01*
X186232295Y-57580000D02*
X186194200Y-57503809D01*
X186194200Y-57503809D02*
X186156104Y-57465714D01*
X186156104Y-57465714D02*
X186079914Y-57427619D01*
X186079914Y-57427619D02*
X186003723Y-57427619D01*
X186003723Y-57427619D02*
X185927533Y-57465714D01*
X185927533Y-57465714D02*
X185889438Y-57503809D01*
X185889438Y-57503809D02*
X185851342Y-57580000D01*
X185851342Y-57580000D02*
X185813247Y-57732381D01*
X185813247Y-57732381D02*
X185775152Y-57808571D01*
X185775152Y-57808571D02*
X185737057Y-57846666D01*
X185737057Y-57846666D02*
X185660866Y-57884762D01*
X185660866Y-57884762D02*
X185584676Y-57884762D01*
X185584676Y-57884762D02*
X185508485Y-57846666D01*
X185508485Y-57846666D02*
X185470390Y-57808571D01*
X185470390Y-57808571D02*
X185432295Y-57732381D01*
X185432295Y-57732381D02*
X185432295Y-57541904D01*
X185432295Y-57541904D02*
X185470390Y-57427619D01*
X185813247Y-56818095D02*
X185851342Y-56703809D01*
X185851342Y-56703809D02*
X185889438Y-56665714D01*
X185889438Y-56665714D02*
X185965628Y-56627618D01*
X185965628Y-56627618D02*
X186079914Y-56627618D01*
X186079914Y-56627618D02*
X186156104Y-56665714D01*
X186156104Y-56665714D02*
X186194200Y-56703809D01*
X186194200Y-56703809D02*
X186232295Y-56779999D01*
X186232295Y-56779999D02*
X186232295Y-57084761D01*
X186232295Y-57084761D02*
X185432295Y-57084761D01*
X185432295Y-57084761D02*
X185432295Y-56818095D01*
X185432295Y-56818095D02*
X185470390Y-56741904D01*
X185470390Y-56741904D02*
X185508485Y-56703809D01*
X185508485Y-56703809D02*
X185584676Y-56665714D01*
X185584676Y-56665714D02*
X185660866Y-56665714D01*
X185660866Y-56665714D02*
X185737057Y-56703809D01*
X185737057Y-56703809D02*
X185775152Y-56741904D01*
X185775152Y-56741904D02*
X185813247Y-56818095D01*
X185813247Y-56818095D02*
X185813247Y-57084761D01*
X185927533Y-56284761D02*
X185927533Y-55675238D01*
X186156104Y-54837142D02*
X186194200Y-54875238D01*
X186194200Y-54875238D02*
X186232295Y-54989523D01*
X186232295Y-54989523D02*
X186232295Y-55065714D01*
X186232295Y-55065714D02*
X186194200Y-55180000D01*
X186194200Y-55180000D02*
X186118009Y-55256190D01*
X186118009Y-55256190D02*
X186041819Y-55294285D01*
X186041819Y-55294285D02*
X185889438Y-55332381D01*
X185889438Y-55332381D02*
X185775152Y-55332381D01*
X185775152Y-55332381D02*
X185622771Y-55294285D01*
X185622771Y-55294285D02*
X185546580Y-55256190D01*
X185546580Y-55256190D02*
X185470390Y-55180000D01*
X185470390Y-55180000D02*
X185432295Y-55065714D01*
X185432295Y-55065714D02*
X185432295Y-54989523D01*
X185432295Y-54989523D02*
X185470390Y-54875238D01*
X185470390Y-54875238D02*
X185508485Y-54837142D01*
X160762855Y-57284200D02*
X160839046Y-57322295D01*
X160839046Y-57322295D02*
X160991427Y-57322295D01*
X160991427Y-57322295D02*
X161067617Y-57284200D01*
X161067617Y-57284200D02*
X161105713Y-57208009D01*
X161105713Y-57208009D02*
X161105713Y-57169914D01*
X161105713Y-57169914D02*
X161067617Y-57093723D01*
X161067617Y-57093723D02*
X160991427Y-57055628D01*
X160991427Y-57055628D02*
X160877141Y-57055628D01*
X160877141Y-57055628D02*
X160800951Y-57017533D01*
X160800951Y-57017533D02*
X160762855Y-56941342D01*
X160762855Y-56941342D02*
X160762855Y-56903247D01*
X160762855Y-56903247D02*
X160800951Y-56827057D01*
X160800951Y-56827057D02*
X160877141Y-56788961D01*
X160877141Y-56788961D02*
X160991427Y-56788961D01*
X160991427Y-56788961D02*
X161067617Y-56827057D01*
X161791427Y-56788961D02*
X161791427Y-57322295D01*
X161448570Y-56788961D02*
X161448570Y-57208009D01*
X161448570Y-57208009D02*
X161486665Y-57284200D01*
X161486665Y-57284200D02*
X161562855Y-57322295D01*
X161562855Y-57322295D02*
X161677141Y-57322295D01*
X161677141Y-57322295D02*
X161753332Y-57284200D01*
X161753332Y-57284200D02*
X161791427Y-57246104D01*
X162172380Y-56788961D02*
X162172380Y-57588961D01*
X162172380Y-56827057D02*
X162248570Y-56788961D01*
X162248570Y-56788961D02*
X162400951Y-56788961D01*
X162400951Y-56788961D02*
X162477142Y-56827057D01*
X162477142Y-56827057D02*
X162515237Y-56865152D01*
X162515237Y-56865152D02*
X162553332Y-56941342D01*
X162553332Y-56941342D02*
X162553332Y-57169914D01*
X162553332Y-57169914D02*
X162515237Y-57246104D01*
X162515237Y-57246104D02*
X162477142Y-57284200D01*
X162477142Y-57284200D02*
X162400951Y-57322295D01*
X162400951Y-57322295D02*
X162248570Y-57322295D01*
X162248570Y-57322295D02*
X162172380Y-57284200D01*
X163200952Y-57284200D02*
X163124761Y-57322295D01*
X163124761Y-57322295D02*
X162972380Y-57322295D01*
X162972380Y-57322295D02*
X162896190Y-57284200D01*
X162896190Y-57284200D02*
X162858094Y-57208009D01*
X162858094Y-57208009D02*
X162858094Y-56903247D01*
X162858094Y-56903247D02*
X162896190Y-56827057D01*
X162896190Y-56827057D02*
X162972380Y-56788961D01*
X162972380Y-56788961D02*
X163124761Y-56788961D01*
X163124761Y-56788961D02*
X163200952Y-56827057D01*
X163200952Y-56827057D02*
X163239047Y-56903247D01*
X163239047Y-56903247D02*
X163239047Y-56979438D01*
X163239047Y-56979438D02*
X162858094Y-57055628D01*
X163581904Y-57322295D02*
X163581904Y-56788961D01*
X163581904Y-56941342D02*
X163619999Y-56865152D01*
X163619999Y-56865152D02*
X163658094Y-56827057D01*
X163658094Y-56827057D02*
X163734285Y-56788961D01*
X163734285Y-56788961D02*
X163810475Y-56788961D01*
X164077142Y-57322295D02*
X164077142Y-56788961D01*
X164077142Y-56865152D02*
X164115237Y-56827057D01*
X164115237Y-56827057D02*
X164191427Y-56788961D01*
X164191427Y-56788961D02*
X164305713Y-56788961D01*
X164305713Y-56788961D02*
X164381904Y-56827057D01*
X164381904Y-56827057D02*
X164419999Y-56903247D01*
X164419999Y-56903247D02*
X164419999Y-57322295D01*
X164419999Y-56903247D02*
X164458094Y-56827057D01*
X164458094Y-56827057D02*
X164534285Y-56788961D01*
X164534285Y-56788961D02*
X164648570Y-56788961D01*
X164648570Y-56788961D02*
X164724761Y-56827057D01*
X164724761Y-56827057D02*
X164762856Y-56903247D01*
X164762856Y-56903247D02*
X164762856Y-57322295D01*
X165143809Y-57322295D02*
X165143809Y-56788961D01*
X165143809Y-56522295D02*
X165105713Y-56560390D01*
X165105713Y-56560390D02*
X165143809Y-56598485D01*
X165143809Y-56598485D02*
X165181904Y-56560390D01*
X165181904Y-56560390D02*
X165143809Y-56522295D01*
X165143809Y-56522295D02*
X165143809Y-56598485D01*
X165524761Y-56788961D02*
X165524761Y-57322295D01*
X165524761Y-56865152D02*
X165562856Y-56827057D01*
X165562856Y-56827057D02*
X165639046Y-56788961D01*
X165639046Y-56788961D02*
X165753332Y-56788961D01*
X165753332Y-56788961D02*
X165829523Y-56827057D01*
X165829523Y-56827057D02*
X165867618Y-56903247D01*
X165867618Y-56903247D02*
X165867618Y-57322295D01*
X166248571Y-57322295D02*
X166248571Y-56788961D01*
X166248571Y-56522295D02*
X166210475Y-56560390D01*
X166210475Y-56560390D02*
X166248571Y-56598485D01*
X166248571Y-56598485D02*
X166286666Y-56560390D01*
X166286666Y-56560390D02*
X166248571Y-56522295D01*
X166248571Y-56522295D02*
X166248571Y-56598485D01*
X167810475Y-56484200D02*
X167124761Y-57512771D01*
X168686666Y-56788961D02*
X168686666Y-57322295D01*
X168686666Y-56865152D02*
X168724761Y-56827057D01*
X168724761Y-56827057D02*
X168800951Y-56788961D01*
X168800951Y-56788961D02*
X168915237Y-56788961D01*
X168915237Y-56788961D02*
X168991428Y-56827057D01*
X168991428Y-56827057D02*
X169029523Y-56903247D01*
X169029523Y-56903247D02*
X169029523Y-57322295D01*
X169410476Y-57322295D02*
X169410476Y-56788961D01*
X169410476Y-56522295D02*
X169372380Y-56560390D01*
X169372380Y-56560390D02*
X169410476Y-56598485D01*
X169410476Y-56598485D02*
X169448571Y-56560390D01*
X169448571Y-56560390D02*
X169410476Y-56522295D01*
X169410476Y-56522295D02*
X169410476Y-56598485D01*
X170134285Y-57284200D02*
X170058094Y-57322295D01*
X170058094Y-57322295D02*
X169905713Y-57322295D01*
X169905713Y-57322295D02*
X169829523Y-57284200D01*
X169829523Y-57284200D02*
X169791428Y-57246104D01*
X169791428Y-57246104D02*
X169753332Y-57169914D01*
X169753332Y-57169914D02*
X169753332Y-56941342D01*
X169753332Y-56941342D02*
X169791428Y-56865152D01*
X169791428Y-56865152D02*
X169829523Y-56827057D01*
X169829523Y-56827057D02*
X169905713Y-56788961D01*
X169905713Y-56788961D02*
X170058094Y-56788961D01*
X170058094Y-56788961D02*
X170134285Y-56827057D01*
X170781904Y-57284200D02*
X170705713Y-57322295D01*
X170705713Y-57322295D02*
X170553332Y-57322295D01*
X170553332Y-57322295D02*
X170477142Y-57284200D01*
X170477142Y-57284200D02*
X170439046Y-57208009D01*
X170439046Y-57208009D02*
X170439046Y-56903247D01*
X170439046Y-56903247D02*
X170477142Y-56827057D01*
X170477142Y-56827057D02*
X170553332Y-56788961D01*
X170553332Y-56788961D02*
X170705713Y-56788961D01*
X170705713Y-56788961D02*
X170781904Y-56827057D01*
X170781904Y-56827057D02*
X170819999Y-56903247D01*
X170819999Y-56903247D02*
X170819999Y-56979438D01*
X170819999Y-56979438D02*
X170439046Y-57055628D01*
X171162856Y-57246104D02*
X171200951Y-57284200D01*
X171200951Y-57284200D02*
X171162856Y-57322295D01*
X171162856Y-57322295D02*
X171124760Y-57284200D01*
X171124760Y-57284200D02*
X171162856Y-57246104D01*
X171162856Y-57246104D02*
X171162856Y-57322295D01*
X171162856Y-57017533D02*
X171124760Y-56560390D01*
X171124760Y-56560390D02*
X171162856Y-56522295D01*
X171162856Y-56522295D02*
X171200951Y-56560390D01*
X171200951Y-56560390D02*
X171162856Y-57017533D01*
X171162856Y-57017533D02*
X171162856Y-56522295D01*
X171543808Y-56788961D02*
X171543808Y-57322295D01*
X171543808Y-56865152D02*
X171581903Y-56827057D01*
X171581903Y-56827057D02*
X171658093Y-56788961D01*
X171658093Y-56788961D02*
X171772379Y-56788961D01*
X171772379Y-56788961D02*
X171848570Y-56827057D01*
X171848570Y-56827057D02*
X171886665Y-56903247D01*
X171886665Y-56903247D02*
X171886665Y-57322295D01*
X172610475Y-57322295D02*
X172610475Y-56903247D01*
X172610475Y-56903247D02*
X172572380Y-56827057D01*
X172572380Y-56827057D02*
X172496189Y-56788961D01*
X172496189Y-56788961D02*
X172343808Y-56788961D01*
X172343808Y-56788961D02*
X172267618Y-56827057D01*
X172610475Y-57284200D02*
X172534284Y-57322295D01*
X172534284Y-57322295D02*
X172343808Y-57322295D01*
X172343808Y-57322295D02*
X172267618Y-57284200D01*
X172267618Y-57284200D02*
X172229522Y-57208009D01*
X172229522Y-57208009D02*
X172229522Y-57131819D01*
X172229522Y-57131819D02*
X172267618Y-57055628D01*
X172267618Y-57055628D02*
X172343808Y-57017533D01*
X172343808Y-57017533D02*
X172534284Y-57017533D01*
X172534284Y-57017533D02*
X172610475Y-56979438D01*
X172991428Y-56788961D02*
X172991428Y-57322295D01*
X172991428Y-56865152D02*
X173029523Y-56827057D01*
X173029523Y-56827057D02*
X173105713Y-56788961D01*
X173105713Y-56788961D02*
X173219999Y-56788961D01*
X173219999Y-56788961D02*
X173296190Y-56827057D01*
X173296190Y-56827057D02*
X173334285Y-56903247D01*
X173334285Y-56903247D02*
X173334285Y-57322295D01*
X173829523Y-57322295D02*
X173753333Y-57284200D01*
X173753333Y-57284200D02*
X173715238Y-57246104D01*
X173715238Y-57246104D02*
X173677142Y-57169914D01*
X173677142Y-57169914D02*
X173677142Y-56941342D01*
X173677142Y-56941342D02*
X173715238Y-56865152D01*
X173715238Y-56865152D02*
X173753333Y-56827057D01*
X173753333Y-56827057D02*
X173829523Y-56788961D01*
X173829523Y-56788961D02*
X173943809Y-56788961D01*
X173943809Y-56788961D02*
X174020000Y-56827057D01*
X174020000Y-56827057D02*
X174058095Y-56865152D01*
X174058095Y-56865152D02*
X174096190Y-56941342D01*
X174096190Y-56941342D02*
X174096190Y-57169914D01*
X174096190Y-57169914D02*
X174058095Y-57246104D01*
X174058095Y-57246104D02*
X174020000Y-57284200D01*
X174020000Y-57284200D02*
X173943809Y-57322295D01*
X173943809Y-57322295D02*
X173829523Y-57322295D01*
X175620000Y-56484200D02*
X174934286Y-57512771D01*
X176496191Y-56788961D02*
X176496191Y-57322295D01*
X176496191Y-56865152D02*
X176534286Y-56827057D01*
X176534286Y-56827057D02*
X176610476Y-56788961D01*
X176610476Y-56788961D02*
X176724762Y-56788961D01*
X176724762Y-56788961D02*
X176800953Y-56827057D01*
X176800953Y-56827057D02*
X176839048Y-56903247D01*
X176839048Y-56903247D02*
X176839048Y-57322295D01*
X177220001Y-57322295D02*
X177220001Y-56788961D01*
X177220001Y-56941342D02*
X177258096Y-56865152D01*
X177258096Y-56865152D02*
X177296191Y-56827057D01*
X177296191Y-56827057D02*
X177372382Y-56788961D01*
X177372382Y-56788961D02*
X177448572Y-56788961D01*
X177600953Y-56788961D02*
X177905715Y-56788961D01*
X177715239Y-57322295D02*
X177715239Y-56636580D01*
X177715239Y-56636580D02*
X177753334Y-56560390D01*
X177753334Y-56560390D02*
X177829524Y-56522295D01*
X177829524Y-56522295D02*
X177905715Y-56522295D01*
X178553334Y-56522295D02*
X178172382Y-56522295D01*
X178172382Y-56522295D02*
X178134286Y-56903247D01*
X178134286Y-56903247D02*
X178172382Y-56865152D01*
X178172382Y-56865152D02*
X178248572Y-56827057D01*
X178248572Y-56827057D02*
X178439048Y-56827057D01*
X178439048Y-56827057D02*
X178515239Y-56865152D01*
X178515239Y-56865152D02*
X178553334Y-56903247D01*
X178553334Y-56903247D02*
X178591429Y-56979438D01*
X178591429Y-56979438D02*
X178591429Y-57169914D01*
X178591429Y-57169914D02*
X178553334Y-57246104D01*
X178553334Y-57246104D02*
X178515239Y-57284200D01*
X178515239Y-57284200D02*
X178439048Y-57322295D01*
X178439048Y-57322295D02*
X178248572Y-57322295D01*
X178248572Y-57322295D02*
X178172382Y-57284200D01*
X178172382Y-57284200D02*
X178134286Y-57246104D01*
X178896191Y-56598485D02*
X178934287Y-56560390D01*
X178934287Y-56560390D02*
X179010477Y-56522295D01*
X179010477Y-56522295D02*
X179200953Y-56522295D01*
X179200953Y-56522295D02*
X179277144Y-56560390D01*
X179277144Y-56560390D02*
X179315239Y-56598485D01*
X179315239Y-56598485D02*
X179353334Y-56674676D01*
X179353334Y-56674676D02*
X179353334Y-56750866D01*
X179353334Y-56750866D02*
X179315239Y-56865152D01*
X179315239Y-56865152D02*
X178858096Y-57322295D01*
X178858096Y-57322295D02*
X179353334Y-57322295D01*
X179810477Y-56865152D02*
X179734287Y-56827057D01*
X179734287Y-56827057D02*
X179696192Y-56788961D01*
X179696192Y-56788961D02*
X179658096Y-56712771D01*
X179658096Y-56712771D02*
X179658096Y-56674676D01*
X179658096Y-56674676D02*
X179696192Y-56598485D01*
X179696192Y-56598485D02*
X179734287Y-56560390D01*
X179734287Y-56560390D02*
X179810477Y-56522295D01*
X179810477Y-56522295D02*
X179962858Y-56522295D01*
X179962858Y-56522295D02*
X180039049Y-56560390D01*
X180039049Y-56560390D02*
X180077144Y-56598485D01*
X180077144Y-56598485D02*
X180115239Y-56674676D01*
X180115239Y-56674676D02*
X180115239Y-56712771D01*
X180115239Y-56712771D02*
X180077144Y-56788961D01*
X180077144Y-56788961D02*
X180039049Y-56827057D01*
X180039049Y-56827057D02*
X179962858Y-56865152D01*
X179962858Y-56865152D02*
X179810477Y-56865152D01*
X179810477Y-56865152D02*
X179734287Y-56903247D01*
X179734287Y-56903247D02*
X179696192Y-56941342D01*
X179696192Y-56941342D02*
X179658096Y-57017533D01*
X179658096Y-57017533D02*
X179658096Y-57169914D01*
X179658096Y-57169914D02*
X179696192Y-57246104D01*
X179696192Y-57246104D02*
X179734287Y-57284200D01*
X179734287Y-57284200D02*
X179810477Y-57322295D01*
X179810477Y-57322295D02*
X179962858Y-57322295D01*
X179962858Y-57322295D02*
X180039049Y-57284200D01*
X180039049Y-57284200D02*
X180077144Y-57246104D01*
X180077144Y-57246104D02*
X180115239Y-57169914D01*
X180115239Y-57169914D02*
X180115239Y-57017533D01*
X180115239Y-57017533D02*
X180077144Y-56941342D01*
X180077144Y-56941342D02*
X180039049Y-56903247D01*
X180039049Y-56903247D02*
X179962858Y-56865152D01*
X180610478Y-56522295D02*
X180686668Y-56522295D01*
X180686668Y-56522295D02*
X180762859Y-56560390D01*
X180762859Y-56560390D02*
X180800954Y-56598485D01*
X180800954Y-56598485D02*
X180839049Y-56674676D01*
X180839049Y-56674676D02*
X180877144Y-56827057D01*
X180877144Y-56827057D02*
X180877144Y-57017533D01*
X180877144Y-57017533D02*
X180839049Y-57169914D01*
X180839049Y-57169914D02*
X180800954Y-57246104D01*
X180800954Y-57246104D02*
X180762859Y-57284200D01*
X180762859Y-57284200D02*
X180686668Y-57322295D01*
X180686668Y-57322295D02*
X180610478Y-57322295D01*
X180610478Y-57322295D02*
X180534287Y-57284200D01*
X180534287Y-57284200D02*
X180496192Y-57246104D01*
X180496192Y-57246104D02*
X180458097Y-57169914D01*
X180458097Y-57169914D02*
X180420001Y-57017533D01*
X180420001Y-57017533D02*
X180420001Y-56827057D01*
X180420001Y-56827057D02*
X180458097Y-56674676D01*
X180458097Y-56674676D02*
X180496192Y-56598485D01*
X180496192Y-56598485D02*
X180534287Y-56560390D01*
X180534287Y-56560390D02*
X180610478Y-56522295D01*
X112228333Y-47254819D02*
X111895000Y-46778628D01*
X111656905Y-47254819D02*
X111656905Y-46254819D01*
X111656905Y-46254819D02*
X112037857Y-46254819D01*
X112037857Y-46254819D02*
X112133095Y-46302438D01*
X112133095Y-46302438D02*
X112180714Y-46350057D01*
X112180714Y-46350057D02*
X112228333Y-46445295D01*
X112228333Y-46445295D02*
X112228333Y-46588152D01*
X112228333Y-46588152D02*
X112180714Y-46683390D01*
X112180714Y-46683390D02*
X112133095Y-46731009D01*
X112133095Y-46731009D02*
X112037857Y-46778628D01*
X112037857Y-46778628D02*
X111656905Y-46778628D01*
X113180714Y-47254819D02*
X112609286Y-47254819D01*
X112895000Y-47254819D02*
X112895000Y-46254819D01*
X112895000Y-46254819D02*
X112799762Y-46397676D01*
X112799762Y-46397676D02*
X112704524Y-46492914D01*
X112704524Y-46492914D02*
X112609286Y-46540533D01*
X140809048Y-59733866D02*
X141570953Y-59733866D01*
X141190000Y-60114819D02*
X141190000Y-59352914D01*
X156454819Y-41766666D02*
X155978628Y-42099999D01*
X156454819Y-42338094D02*
X155454819Y-42338094D01*
X155454819Y-42338094D02*
X155454819Y-41957142D01*
X155454819Y-41957142D02*
X155502438Y-41861904D01*
X155502438Y-41861904D02*
X155550057Y-41814285D01*
X155550057Y-41814285D02*
X155645295Y-41766666D01*
X155645295Y-41766666D02*
X155788152Y-41766666D01*
X155788152Y-41766666D02*
X155883390Y-41814285D01*
X155883390Y-41814285D02*
X155931009Y-41861904D01*
X155931009Y-41861904D02*
X155978628Y-41957142D01*
X155978628Y-41957142D02*
X155978628Y-42338094D01*
X155454819Y-40909523D02*
X155454819Y-41099999D01*
X155454819Y-41099999D02*
X155502438Y-41195237D01*
X155502438Y-41195237D02*
X155550057Y-41242856D01*
X155550057Y-41242856D02*
X155692914Y-41338094D01*
X155692914Y-41338094D02*
X155883390Y-41385713D01*
X155883390Y-41385713D02*
X156264342Y-41385713D01*
X156264342Y-41385713D02*
X156359580Y-41338094D01*
X156359580Y-41338094D02*
X156407200Y-41290475D01*
X156407200Y-41290475D02*
X156454819Y-41195237D01*
X156454819Y-41195237D02*
X156454819Y-41004761D01*
X156454819Y-41004761D02*
X156407200Y-40909523D01*
X156407200Y-40909523D02*
X156359580Y-40861904D01*
X156359580Y-40861904D02*
X156264342Y-40814285D01*
X156264342Y-40814285D02*
X156026247Y-40814285D01*
X156026247Y-40814285D02*
X155931009Y-40861904D01*
X155931009Y-40861904D02*
X155883390Y-40909523D01*
X155883390Y-40909523D02*
X155835771Y-41004761D01*
X155835771Y-41004761D02*
X155835771Y-41195237D01*
X155835771Y-41195237D02*
X155883390Y-41290475D01*
X155883390Y-41290475D02*
X155931009Y-41338094D01*
X155931009Y-41338094D02*
X156026247Y-41385713D01*
X158854819Y-41666666D02*
X158378628Y-41999999D01*
X158854819Y-42238094D02*
X157854819Y-42238094D01*
X157854819Y-42238094D02*
X157854819Y-41857142D01*
X157854819Y-41857142D02*
X157902438Y-41761904D01*
X157902438Y-41761904D02*
X157950057Y-41714285D01*
X157950057Y-41714285D02*
X158045295Y-41666666D01*
X158045295Y-41666666D02*
X158188152Y-41666666D01*
X158188152Y-41666666D02*
X158283390Y-41714285D01*
X158283390Y-41714285D02*
X158331009Y-41761904D01*
X158331009Y-41761904D02*
X158378628Y-41857142D01*
X158378628Y-41857142D02*
X158378628Y-42238094D01*
X157854819Y-40761904D02*
X157854819Y-41238094D01*
X157854819Y-41238094D02*
X158331009Y-41285713D01*
X158331009Y-41285713D02*
X158283390Y-41238094D01*
X158283390Y-41238094D02*
X158235771Y-41142856D01*
X158235771Y-41142856D02*
X158235771Y-40904761D01*
X158235771Y-40904761D02*
X158283390Y-40809523D01*
X158283390Y-40809523D02*
X158331009Y-40761904D01*
X158331009Y-40761904D02*
X158426247Y-40714285D01*
X158426247Y-40714285D02*
X158664342Y-40714285D01*
X158664342Y-40714285D02*
X158759580Y-40761904D01*
X158759580Y-40761904D02*
X158807200Y-40809523D01*
X158807200Y-40809523D02*
X158854819Y-40904761D01*
X158854819Y-40904761D02*
X158854819Y-41142856D01*
X158854819Y-41142856D02*
X158807200Y-41238094D01*
X158807200Y-41238094D02*
X158759580Y-41285713D01*
X124933333Y-47254819D02*
X124600000Y-46778628D01*
X124361905Y-47254819D02*
X124361905Y-46254819D01*
X124361905Y-46254819D02*
X124742857Y-46254819D01*
X124742857Y-46254819D02*
X124838095Y-46302438D01*
X124838095Y-46302438D02*
X124885714Y-46350057D01*
X124885714Y-46350057D02*
X124933333Y-46445295D01*
X124933333Y-46445295D02*
X124933333Y-46588152D01*
X124933333Y-46588152D02*
X124885714Y-46683390D01*
X124885714Y-46683390D02*
X124838095Y-46731009D01*
X124838095Y-46731009D02*
X124742857Y-46778628D01*
X124742857Y-46778628D02*
X124361905Y-46778628D01*
X125266667Y-46254819D02*
X125885714Y-46254819D01*
X125885714Y-46254819D02*
X125552381Y-46635771D01*
X125552381Y-46635771D02*
X125695238Y-46635771D01*
X125695238Y-46635771D02*
X125790476Y-46683390D01*
X125790476Y-46683390D02*
X125838095Y-46731009D01*
X125838095Y-46731009D02*
X125885714Y-46826247D01*
X125885714Y-46826247D02*
X125885714Y-47064342D01*
X125885714Y-47064342D02*
X125838095Y-47159580D01*
X125838095Y-47159580D02*
X125790476Y-47207200D01*
X125790476Y-47207200D02*
X125695238Y-47254819D01*
X125695238Y-47254819D02*
X125409524Y-47254819D01*
X125409524Y-47254819D02*
X125314286Y-47207200D01*
X125314286Y-47207200D02*
X125266667Y-47159580D01*
X105828333Y-47154819D02*
X105495000Y-46678628D01*
X105256905Y-47154819D02*
X105256905Y-46154819D01*
X105256905Y-46154819D02*
X105637857Y-46154819D01*
X105637857Y-46154819D02*
X105733095Y-46202438D01*
X105733095Y-46202438D02*
X105780714Y-46250057D01*
X105780714Y-46250057D02*
X105828333Y-46345295D01*
X105828333Y-46345295D02*
X105828333Y-46488152D01*
X105828333Y-46488152D02*
X105780714Y-46583390D01*
X105780714Y-46583390D02*
X105733095Y-46631009D01*
X105733095Y-46631009D02*
X105637857Y-46678628D01*
X105637857Y-46678628D02*
X105256905Y-46678628D01*
X106209286Y-46250057D02*
X106256905Y-46202438D01*
X106256905Y-46202438D02*
X106352143Y-46154819D01*
X106352143Y-46154819D02*
X106590238Y-46154819D01*
X106590238Y-46154819D02*
X106685476Y-46202438D01*
X106685476Y-46202438D02*
X106733095Y-46250057D01*
X106733095Y-46250057D02*
X106780714Y-46345295D01*
X106780714Y-46345295D02*
X106780714Y-46440533D01*
X106780714Y-46440533D02*
X106733095Y-46583390D01*
X106733095Y-46583390D02*
X106161667Y-47154819D01*
X106161667Y-47154819D02*
X106780714Y-47154819D01*
X140495238Y-48888152D02*
X140685714Y-49554819D01*
X140685714Y-49554819D02*
X140876190Y-49078628D01*
X140876190Y-49078628D02*
X141066666Y-49554819D01*
X141066666Y-49554819D02*
X141257142Y-48888152D01*
X141638095Y-49554819D02*
X141638095Y-48888152D01*
X141638095Y-48554819D02*
X141590476Y-48602438D01*
X141590476Y-48602438D02*
X141638095Y-48650057D01*
X141638095Y-48650057D02*
X141685714Y-48602438D01*
X141685714Y-48602438D02*
X141638095Y-48554819D01*
X141638095Y-48554819D02*
X141638095Y-48650057D01*
X142257142Y-49554819D02*
X142161904Y-49507200D01*
X142161904Y-49507200D02*
X142114285Y-49459580D01*
X142114285Y-49459580D02*
X142066666Y-49364342D01*
X142066666Y-49364342D02*
X142066666Y-49078628D01*
X142066666Y-49078628D02*
X142114285Y-48983390D01*
X142114285Y-48983390D02*
X142161904Y-48935771D01*
X142161904Y-48935771D02*
X142257142Y-48888152D01*
X142257142Y-48888152D02*
X142399999Y-48888152D01*
X142399999Y-48888152D02*
X142495237Y-48935771D01*
X142495237Y-48935771D02*
X142542856Y-48983390D01*
X142542856Y-48983390D02*
X142590475Y-49078628D01*
X142590475Y-49078628D02*
X142590475Y-49364342D01*
X142590475Y-49364342D02*
X142542856Y-49459580D01*
X142542856Y-49459580D02*
X142495237Y-49507200D01*
X142495237Y-49507200D02*
X142399999Y-49554819D01*
X142399999Y-49554819D02*
X142257142Y-49554819D01*
X143019047Y-49173866D02*
X143780952Y-49173866D01*
X144209523Y-49507200D02*
X144304761Y-49554819D01*
X144304761Y-49554819D02*
X144495237Y-49554819D01*
X144495237Y-49554819D02*
X144590475Y-49507200D01*
X144590475Y-49507200D02*
X144638094Y-49411961D01*
X144638094Y-49411961D02*
X144638094Y-49364342D01*
X144638094Y-49364342D02*
X144590475Y-49269104D01*
X144590475Y-49269104D02*
X144495237Y-49221485D01*
X144495237Y-49221485D02*
X144352380Y-49221485D01*
X144352380Y-49221485D02*
X144257142Y-49173866D01*
X144257142Y-49173866D02*
X144209523Y-49078628D01*
X144209523Y-49078628D02*
X144209523Y-49031009D01*
X144209523Y-49031009D02*
X144257142Y-48935771D01*
X144257142Y-48935771D02*
X144352380Y-48888152D01*
X144352380Y-48888152D02*
X144495237Y-48888152D01*
X144495237Y-48888152D02*
X144590475Y-48935771D01*
X144971428Y-49554819D02*
X145495237Y-48888152D01*
X144971428Y-48888152D02*
X145495237Y-49554819D01*
X146399999Y-49554819D02*
X145828571Y-49554819D01*
X146114285Y-49554819D02*
X146114285Y-48554819D01*
X146114285Y-48554819D02*
X146019047Y-48697676D01*
X146019047Y-48697676D02*
X145923809Y-48792914D01*
X145923809Y-48792914D02*
X145828571Y-48840533D01*
X146780952Y-48650057D02*
X146828571Y-48602438D01*
X146828571Y-48602438D02*
X146923809Y-48554819D01*
X146923809Y-48554819D02*
X147161904Y-48554819D01*
X147161904Y-48554819D02*
X147257142Y-48602438D01*
X147257142Y-48602438D02*
X147304761Y-48650057D01*
X147304761Y-48650057D02*
X147352380Y-48745295D01*
X147352380Y-48745295D02*
X147352380Y-48840533D01*
X147352380Y-48840533D02*
X147304761Y-48983390D01*
X147304761Y-48983390D02*
X146733333Y-49554819D01*
X146733333Y-49554819D02*
X147352380Y-49554819D01*
X148209523Y-48554819D02*
X148019047Y-48554819D01*
X148019047Y-48554819D02*
X147923809Y-48602438D01*
X147923809Y-48602438D02*
X147876190Y-48650057D01*
X147876190Y-48650057D02*
X147780952Y-48792914D01*
X147780952Y-48792914D02*
X147733333Y-48983390D01*
X147733333Y-48983390D02*
X147733333Y-49364342D01*
X147733333Y-49364342D02*
X147780952Y-49459580D01*
X147780952Y-49459580D02*
X147828571Y-49507200D01*
X147828571Y-49507200D02*
X147923809Y-49554819D01*
X147923809Y-49554819D02*
X148114285Y-49554819D01*
X148114285Y-49554819D02*
X148209523Y-49507200D01*
X148209523Y-49507200D02*
X148257142Y-49459580D01*
X148257142Y-49459580D02*
X148304761Y-49364342D01*
X148304761Y-49364342D02*
X148304761Y-49126247D01*
X148304761Y-49126247D02*
X148257142Y-49031009D01*
X148257142Y-49031009D02*
X148209523Y-48983390D01*
X148209523Y-48983390D02*
X148114285Y-48935771D01*
X148114285Y-48935771D02*
X147923809Y-48935771D01*
X147923809Y-48935771D02*
X147828571Y-48983390D01*
X147828571Y-48983390D02*
X147780952Y-49031009D01*
X147780952Y-49031009D02*
X147733333Y-49126247D01*
X148685714Y-48650057D02*
X148733333Y-48602438D01*
X148733333Y-48602438D02*
X148828571Y-48554819D01*
X148828571Y-48554819D02*
X149066666Y-48554819D01*
X149066666Y-48554819D02*
X149161904Y-48602438D01*
X149161904Y-48602438D02*
X149209523Y-48650057D01*
X149209523Y-48650057D02*
X149257142Y-48745295D01*
X149257142Y-48745295D02*
X149257142Y-48840533D01*
X149257142Y-48840533D02*
X149209523Y-48983390D01*
X149209523Y-48983390D02*
X148638095Y-49554819D01*
X148638095Y-49554819D02*
X149257142Y-49554819D01*
X118333333Y-47154819D02*
X118000000Y-46678628D01*
X117761905Y-47154819D02*
X117761905Y-46154819D01*
X117761905Y-46154819D02*
X118142857Y-46154819D01*
X118142857Y-46154819D02*
X118238095Y-46202438D01*
X118238095Y-46202438D02*
X118285714Y-46250057D01*
X118285714Y-46250057D02*
X118333333Y-46345295D01*
X118333333Y-46345295D02*
X118333333Y-46488152D01*
X118333333Y-46488152D02*
X118285714Y-46583390D01*
X118285714Y-46583390D02*
X118238095Y-46631009D01*
X118238095Y-46631009D02*
X118142857Y-46678628D01*
X118142857Y-46678628D02*
X117761905Y-46678628D01*
X119190476Y-46488152D02*
X119190476Y-47154819D01*
X118952381Y-46107200D02*
X118714286Y-46821485D01*
X118714286Y-46821485D02*
X119333333Y-46821485D01*
D13*
%TO.C,D2*%
X137636000Y-40970000D02*
X137480000Y-40970000D01*
X135320000Y-40970000D02*
X135164000Y-40970000D01*
X137635516Y-40970000D02*
G75*
G02*
X137478608Y-44202335I-1235516J-1560000D01*
G01*
X137480000Y-41489039D02*
G75*
G02*
X137479837Y-43571130I-1080000J-1040961D01*
G01*
X135320163Y-43571130D02*
G75*
G02*
X135320000Y-41489039I1079837J1041130D01*
G01*
X135321392Y-44202335D02*
G75*
G02*
X135164484Y-40970000I1078608J1672335D01*
G01*
%TO.C,SW8*%
X108100000Y-96190000D02*
X108610000Y-96190000D01*
X103400000Y-96190000D02*
X105500000Y-96190000D01*
X108610000Y-96710000D02*
X108610000Y-96190000D01*
X108100000Y-96710000D02*
X108610000Y-96710000D01*
X105270000Y-96710000D02*
X105500000Y-96710000D01*
X105270000Y-97250000D02*
X105270000Y-96710000D01*
X105270000Y-101750000D02*
X105270000Y-98350000D01*
X108100000Y-103390000D02*
X108610000Y-103390000D01*
X105270000Y-103390000D02*
X105270000Y-102850000D01*
X105270000Y-103390000D02*
X105500000Y-103390000D01*
X108610000Y-103910000D02*
X108610000Y-103390000D01*
X108100000Y-103910000D02*
X108610000Y-103910000D01*
X103400000Y-103910000D02*
X105500000Y-103910000D01*
%TO.C,R7*%
X154149359Y-45179905D02*
G75*
G02*
X152700000Y-45082867I-749359J-320095D01*
G01*
%TO.C,J1*%
X131110000Y-45010000D02*
X132360000Y-45010000D01*
X132360000Y-45010000D02*
X132360000Y-43760000D01*
X130300000Y-44910000D02*
X130600000Y-44910000D01*
X130600000Y-44910000D02*
X130600000Y-44710000D01*
X130300000Y-44810000D02*
X130600000Y-44810000D01*
X125940000Y-44710000D02*
X132060000Y-44710000D01*
X129500000Y-44710000D02*
X129500000Y-44100000D01*
X130300000Y-44710000D02*
X130300000Y-44910000D01*
X132060000Y-44710000D02*
X132060000Y-39990000D01*
X126550000Y-44100000D02*
X128500000Y-44100000D01*
X128500000Y-44100000D02*
X128500000Y-44710000D01*
X129500000Y-44100000D02*
X131450000Y-44100000D01*
X131450000Y-44100000D02*
X131450000Y-40600000D01*
X125940000Y-43400000D02*
X126550000Y-43400000D01*
X132060000Y-43400000D02*
X131450000Y-43400000D01*
X125940000Y-42100000D02*
X126550000Y-42100000D01*
X132060000Y-42100000D02*
X131450000Y-42100000D01*
X128900000Y-41100000D02*
X128900000Y-40600000D01*
X129100000Y-41100000D02*
X128900000Y-41100000D01*
X126550000Y-40600000D02*
X126550000Y-44100000D01*
X129000000Y-40600000D02*
X129000000Y-41100000D01*
X129100000Y-40600000D02*
X129100000Y-41100000D01*
X131450000Y-40600000D02*
X126550000Y-40600000D01*
X125940000Y-39990000D02*
X125940000Y-44710000D01*
X132060000Y-39990000D02*
X125940000Y-39990000D01*
D14*
%TO.C,U2*%
X102330000Y-48270000D02*
X102330000Y-66050000D01*
X102330000Y-66050000D02*
X104870000Y-66050000D01*
D11*
X102410000Y-53604000D02*
X105886000Y-53604000D01*
D14*
X104870000Y-48270000D02*
X102330000Y-48270000D01*
X104870000Y-66050000D02*
X135350000Y-66050000D01*
D11*
X105886000Y-53604000D02*
X105886000Y-60970000D01*
X105886000Y-60970000D02*
X102310000Y-60970000D01*
D14*
X135350000Y-48270000D02*
X104870000Y-48270000D01*
X135350000Y-66050000D02*
X135350000Y-48270000D01*
D13*
%TO.C,U5*%
X169560000Y-98320000D02*
X171150000Y-98320000D01*
X169560000Y-104910000D02*
X169560000Y-98320000D01*
X170440000Y-101440000D02*
X170440000Y-103560000D01*
X171150000Y-98320000D02*
X171150000Y-99800000D01*
X176500000Y-101440000D02*
X170440000Y-101440000D01*
X176500000Y-101440000D02*
X176500000Y-103560000D01*
X176500000Y-103560000D02*
X170440000Y-103560000D01*
X177970000Y-98320000D02*
X177970000Y-99800000D01*
X177970000Y-99800000D02*
X171150000Y-99800000D01*
X178560000Y-102500000D02*
X178560000Y-103560000D01*
X178560000Y-103560000D02*
X177500000Y-103560000D01*
X179560000Y-98320000D02*
X177970000Y-98320000D01*
X179560000Y-104910000D02*
X169560000Y-104910000D01*
X179560000Y-104910000D02*
X179560000Y-98320000D01*
D14*
%TO.C,U3*%
X187650000Y-65970000D02*
X187650000Y-48190000D01*
X187650000Y-48190000D02*
X185110000Y-48190000D01*
D11*
X187570000Y-60636000D02*
X184094000Y-60636000D01*
D14*
X185110000Y-65970000D02*
X187650000Y-65970000D01*
X185110000Y-48190000D02*
X154630000Y-48190000D01*
D11*
X184094000Y-60636000D02*
X184094000Y-53270000D01*
X184094000Y-53270000D02*
X187670000Y-53270000D01*
D14*
X154630000Y-65970000D02*
X185110000Y-65970000D01*
X154630000Y-48190000D02*
X154630000Y-65970000D01*
D13*
%TO.C,J6*%
X147260000Y-108960000D02*
X147260000Y-109700000D01*
X147260000Y-109700000D02*
X147760000Y-109700000D01*
X147500000Y-99539000D02*
X147500000Y-109460000D01*
X147500000Y-99539000D02*
X167940000Y-99539000D01*
X147500000Y-102499000D02*
X167940000Y-102499000D01*
X147500000Y-107400000D02*
X167940000Y-107400000D01*
X147500000Y-108900000D02*
X167940000Y-108900000D01*
X147500000Y-109460000D02*
X167940000Y-109460000D01*
X153953000Y-105823000D02*
X153906000Y-105869000D01*
X154146000Y-106039000D02*
X154111000Y-106074000D01*
X156250000Y-103525000D02*
X156215000Y-103561000D01*
X156455000Y-103731000D02*
X156408000Y-103777000D01*
X159033000Y-105823000D02*
X158986000Y-105869000D01*
X159226000Y-106039000D02*
X159191000Y-106074000D01*
X161330000Y-103525000D02*
X161295000Y-103561000D01*
X161535000Y-103731000D02*
X161488000Y-103777000D01*
X164113000Y-105823000D02*
X164066000Y-105869000D01*
X164306000Y-106039000D02*
X164271000Y-106074000D01*
X166410000Y-103525000D02*
X166375000Y-103561000D01*
X166615000Y-103731000D02*
X166568000Y-103777000D01*
X167940000Y-99539000D02*
X167940000Y-109460000D01*
X148564573Y-105483042D02*
G75*
G02*
X148565000Y-104116000I1535420J683041D01*
G01*
X149416958Y-103264573D02*
G75*
G02*
X150784000Y-103265000I683041J-1535420D01*
G01*
X150128805Y-106480253D02*
G75*
G02*
X149416000Y-106335000I-28806J1680254D01*
G01*
X150783318Y-106334756D02*
G75*
G02*
X150100000Y-106480000I-683318J1534756D01*
G01*
X151635427Y-104116958D02*
G75*
G02*
X151635000Y-105484000I-1535427J-683042D01*
G01*
X156860000Y-104800000D02*
G75*
G02*
X153500000Y-104800000I-1680000J0D01*
G01*
X153500000Y-104800000D02*
G75*
G02*
X156860000Y-104800000I1680000J0D01*
G01*
X161940000Y-104800000D02*
G75*
G02*
X158580000Y-104800000I-1680000J0D01*
G01*
X158580000Y-104800000D02*
G75*
G02*
X161940000Y-104800000I1680000J0D01*
G01*
X167020000Y-104800000D02*
G75*
G02*
X163660000Y-104800000I-1680000J0D01*
G01*
X163660000Y-104800000D02*
G75*
G02*
X167020000Y-104800000I1680000J0D01*
G01*
%TO.C,SW1*%
X108610000Y-75110000D02*
X108610000Y-74590000D01*
X108610000Y-67910000D02*
X108610000Y-67390000D01*
X108100000Y-75110000D02*
X108610000Y-75110000D01*
X108100000Y-74590000D02*
X108610000Y-74590000D01*
X108100000Y-67910000D02*
X108610000Y-67910000D01*
X108100000Y-67390000D02*
X108610000Y-67390000D01*
X105270000Y-74590000D02*
X105500000Y-74590000D01*
X105270000Y-74590000D02*
X105270000Y-74050000D01*
X105270000Y-72950000D02*
X105270000Y-69550000D01*
X105270000Y-68450000D02*
X105270000Y-67910000D01*
X105270000Y-67910000D02*
X105500000Y-67910000D01*
X103400000Y-75110000D02*
X105500000Y-75110000D01*
X103400000Y-67390000D02*
X105500000Y-67390000D01*
%TO.C,R1*%
X114415095Y-47449359D02*
G75*
G02*
X114512133Y-46000000I-320095J749359D01*
G01*
%TO.C,J11*%
X127410000Y-101230000D02*
X122270000Y-101230000D01*
X122270000Y-98570000D02*
X122270000Y-101230000D01*
X127410000Y-98570000D02*
X127410000Y-101230000D01*
X127410000Y-98570000D02*
X122270000Y-98570000D01*
X128680000Y-98570000D02*
X130010000Y-98570000D01*
X130010000Y-98570000D02*
X130010000Y-99900000D01*
%TO.C,J9*%
X151100000Y-62200000D02*
G75*
G02*
X138900000Y-62200000I-6100000J0D01*
G01*
X138900000Y-62200000D02*
G75*
G02*
X151100000Y-62200000I6100000J0D01*
G01*
%TO.C,SW7*%
X108610000Y-94310000D02*
X108610000Y-93790000D01*
X108610000Y-87110000D02*
X108610000Y-86590000D01*
X108100000Y-94310000D02*
X108610000Y-94310000D01*
X108100000Y-93790000D02*
X108610000Y-93790000D01*
X108100000Y-87110000D02*
X108610000Y-87110000D01*
X108100000Y-86590000D02*
X108610000Y-86590000D01*
X105270000Y-93790000D02*
X105500000Y-93790000D01*
X105270000Y-93790000D02*
X105270000Y-93250000D01*
X105270000Y-92150000D02*
X105270000Y-88750000D01*
X105270000Y-87650000D02*
X105270000Y-87110000D01*
X105270000Y-87110000D02*
X105500000Y-87110000D01*
X103400000Y-94310000D02*
X105500000Y-94310000D01*
X103400000Y-86590000D02*
X105500000Y-86590000D01*
%TO.C,R6*%
X156649359Y-45179905D02*
G75*
G02*
X155200000Y-45082867I-749359J-320095D01*
G01*
%TO.C,SW6*%
X186800000Y-104010000D02*
X184700000Y-104010000D01*
X186800000Y-96290000D02*
X184700000Y-96290000D01*
X184930000Y-103490000D02*
X184700000Y-103490000D01*
X184930000Y-102950000D02*
X184930000Y-103490000D01*
X184930000Y-98450000D02*
X184930000Y-101850000D01*
X184930000Y-96810000D02*
X184930000Y-97350000D01*
X184930000Y-96810000D02*
X184700000Y-96810000D01*
X182100000Y-104010000D02*
X181590000Y-104010000D01*
X182100000Y-103490000D02*
X181590000Y-103490000D01*
X182100000Y-96810000D02*
X181590000Y-96810000D01*
X182100000Y-96290000D02*
X181590000Y-96290000D01*
X181590000Y-103490000D02*
X181590000Y-104010000D01*
X181590000Y-96290000D02*
X181590000Y-96810000D01*
%TO.C,SW5*%
X186800000Y-94310000D02*
X184700000Y-94310000D01*
X186800000Y-86590000D02*
X184700000Y-86590000D01*
X184930000Y-93790000D02*
X184700000Y-93790000D01*
X184930000Y-93250000D02*
X184930000Y-93790000D01*
X184930000Y-88750000D02*
X184930000Y-92150000D01*
X184930000Y-87110000D02*
X184930000Y-87650000D01*
X184930000Y-87110000D02*
X184700000Y-87110000D01*
X182100000Y-94310000D02*
X181590000Y-94310000D01*
X182100000Y-93790000D02*
X181590000Y-93790000D01*
X182100000Y-87110000D02*
X181590000Y-87110000D01*
X182100000Y-86590000D02*
X181590000Y-86590000D01*
X181590000Y-93790000D02*
X181590000Y-94310000D01*
X181590000Y-86590000D02*
X181590000Y-87110000D01*
%TO.C,R5*%
X159149359Y-45179905D02*
G75*
G02*
X157700000Y-45082867I-749359J-320095D01*
G01*
%TO.C,SW3*%
X186800000Y-75110000D02*
X184700000Y-75110000D01*
X186800000Y-67390000D02*
X184700000Y-67390000D01*
X184930000Y-74590000D02*
X184700000Y-74590000D01*
X184930000Y-74050000D02*
X184930000Y-74590000D01*
X184930000Y-69550000D02*
X184930000Y-72950000D01*
X184930000Y-67910000D02*
X184930000Y-68450000D01*
X184930000Y-67910000D02*
X184700000Y-67910000D01*
X182100000Y-75110000D02*
X181590000Y-75110000D01*
X182100000Y-74590000D02*
X181590000Y-74590000D01*
X182100000Y-67910000D02*
X181590000Y-67910000D01*
X182100000Y-67390000D02*
X181590000Y-67390000D01*
X181590000Y-74590000D02*
X181590000Y-75110000D01*
X181590000Y-67390000D02*
X181590000Y-67910000D01*
%TO.C,J3*%
X110835000Y-68695000D02*
X110835000Y-97270000D01*
X110835000Y-97270000D02*
X138775000Y-97270000D01*
X120995000Y-68695000D02*
X110835000Y-68695000D01*
X120995000Y-68695000D02*
X138775000Y-68695000D01*
X121570000Y-69270000D02*
X121570000Y-71930000D01*
X129250000Y-69270000D02*
X121570000Y-69270000D01*
X129250000Y-69270000D02*
X129250000Y-71930000D01*
X129250000Y-71930000D02*
X121570000Y-71930000D01*
X131850000Y-70600000D02*
X131850000Y-71930000D01*
X131850000Y-71930000D02*
X130520000Y-71930000D01*
X132425000Y-68695000D02*
X142585000Y-68695000D01*
X142585000Y-68695000D02*
X142585000Y-97270000D01*
X142585000Y-97270000D02*
X138775000Y-97270000D01*
%TO.C,R3*%
X128479905Y-45950641D02*
G75*
G02*
X128382867Y-47400000I320095J-749359D01*
G01*
%TO.C,R2*%
X108315095Y-47449359D02*
G75*
G02*
X108412133Y-46000000I-320095J749359D01*
G01*
%TO.C,U4*%
X110960000Y-98220000D02*
X112550000Y-98220000D01*
X110960000Y-104810000D02*
X110960000Y-98220000D01*
X111840000Y-101340000D02*
X111840000Y-103460000D01*
X112550000Y-98220000D02*
X112550000Y-99700000D01*
X117900000Y-101340000D02*
X111840000Y-101340000D01*
X117900000Y-101340000D02*
X117900000Y-103460000D01*
X117900000Y-103460000D02*
X111840000Y-103460000D01*
X119370000Y-98220000D02*
X119370000Y-99700000D01*
X119370000Y-99700000D02*
X112550000Y-99700000D01*
X119960000Y-102400000D02*
X119960000Y-103460000D01*
X119960000Y-103460000D02*
X118900000Y-103460000D01*
X120960000Y-98220000D02*
X119370000Y-98220000D01*
X120960000Y-104810000D02*
X110960000Y-104810000D01*
X120960000Y-104810000D02*
X120960000Y-98220000D01*
%TO.C,SW4*%
X186800000Y-84710000D02*
X184700000Y-84710000D01*
X186800000Y-76990000D02*
X184700000Y-76990000D01*
X184930000Y-84190000D02*
X184700000Y-84190000D01*
X184930000Y-83650000D02*
X184930000Y-84190000D01*
X184930000Y-79150000D02*
X184930000Y-82550000D01*
X184930000Y-77510000D02*
X184930000Y-78050000D01*
X184930000Y-77510000D02*
X184700000Y-77510000D01*
X182100000Y-84710000D02*
X181590000Y-84710000D01*
X182100000Y-84190000D02*
X181590000Y-84190000D01*
X182100000Y-77510000D02*
X181590000Y-77510000D01*
X182100000Y-76990000D02*
X181590000Y-76990000D01*
X181590000Y-84190000D02*
X181590000Y-84710000D01*
X181590000Y-76990000D02*
X181590000Y-77510000D01*
%TO.C,J13*%
X181135000Y-46105000D02*
X181135000Y-43445000D01*
X163295000Y-46105000D02*
X181135000Y-46105000D01*
X163295000Y-46105000D02*
X163295000Y-43445000D01*
X163295000Y-43445000D02*
X181135000Y-43445000D01*
X160695000Y-44775000D02*
X160695000Y-43445000D01*
X160695000Y-43445000D02*
X162025000Y-43445000D01*
%TO.C,J12*%
X129910000Y-105670000D02*
X129910000Y-107000000D01*
X128580000Y-105670000D02*
X129910000Y-105670000D01*
X127310000Y-105670000D02*
X122170000Y-105670000D01*
X127310000Y-105670000D02*
X127310000Y-108330000D01*
X122170000Y-105670000D02*
X122170000Y-108330000D01*
X127310000Y-108330000D02*
X122170000Y-108330000D01*
D15*
%TO.C,U1*%
X138926000Y-54954000D02*
X138926000Y-54573000D01*
D13*
X139180000Y-43700000D02*
X150780000Y-43700000D01*
X139180000Y-54700000D02*
X139180000Y-43700000D01*
D15*
X139307000Y-54954000D02*
X138926000Y-54954000D01*
D13*
X150780000Y-43700000D02*
X150780000Y-54700000D01*
X150780000Y-54700000D02*
X139180000Y-54700000D01*
%TO.C,J7*%
X145640000Y-104800000D02*
G75*
G02*
X142280000Y-104800000I-1680000J0D01*
G01*
X142280000Y-104800000D02*
G75*
G02*
X145640000Y-104800000I1680000J0D01*
G01*
X140560000Y-104800000D02*
G75*
G02*
X137200000Y-104800000I-1680000J0D01*
G01*
X137200000Y-104800000D02*
G75*
G02*
X140560000Y-104800000I1680000J0D01*
G01*
X135335427Y-104116958D02*
G75*
G02*
X135335000Y-105484000I-1535427J-683042D01*
G01*
X134483318Y-106334756D02*
G75*
G02*
X133800000Y-106480000I-683318J1534756D01*
G01*
X133828805Y-106480253D02*
G75*
G02*
X133116000Y-106335000I-28806J1680254D01*
G01*
X133116958Y-103264573D02*
G75*
G02*
X134484000Y-103265000I683041J-1535420D01*
G01*
X132264573Y-105483042D02*
G75*
G02*
X132265000Y-104116000I1535420J683041D01*
G01*
X146560000Y-99539000D02*
X146560000Y-109460000D01*
X145235000Y-103731000D02*
X145188000Y-103777000D01*
X145030000Y-103525000D02*
X144995000Y-103561000D01*
X142926000Y-106039000D02*
X142891000Y-106074000D01*
X142733000Y-105823000D02*
X142686000Y-105869000D01*
X140155000Y-103731000D02*
X140108000Y-103777000D01*
X139950000Y-103525000D02*
X139915000Y-103561000D01*
X137846000Y-106039000D02*
X137811000Y-106074000D01*
X137653000Y-105823000D02*
X137606000Y-105869000D01*
X131200000Y-109460000D02*
X146560000Y-109460000D01*
X131200000Y-108900000D02*
X146560000Y-108900000D01*
X131200000Y-107400000D02*
X146560000Y-107400000D01*
X131200000Y-102499000D02*
X146560000Y-102499000D01*
X131200000Y-99539000D02*
X146560000Y-99539000D01*
X131200000Y-99539000D02*
X131200000Y-109460000D01*
X130960000Y-109700000D02*
X131460000Y-109700000D01*
X130960000Y-108960000D02*
X130960000Y-109700000D01*
%TO.C,J4*%
X144270000Y-42810000D02*
X144270000Y-42930000D01*
X144270000Y-42930000D02*
X146930000Y-42930000D01*
X145600000Y-40270000D02*
X146930000Y-40270000D01*
X146930000Y-40270000D02*
X146930000Y-41600000D01*
X146930000Y-42810000D02*
X146930000Y-42930000D01*
%TO.C,R4*%
X121979905Y-45950641D02*
G75*
G02*
X121882867Y-47400000I320095J-749359D01*
G01*
%TO.C,SW2*%
X108610000Y-84710000D02*
X108610000Y-84190000D01*
X108610000Y-77510000D02*
X108610000Y-76990000D01*
X108100000Y-84710000D02*
X108610000Y-84710000D01*
X108100000Y-84190000D02*
X108610000Y-84190000D01*
X108100000Y-77510000D02*
X108610000Y-77510000D01*
X108100000Y-76990000D02*
X108610000Y-76990000D01*
X105270000Y-84190000D02*
X105500000Y-84190000D01*
X105270000Y-84190000D02*
X105270000Y-83650000D01*
X105270000Y-82550000D02*
X105270000Y-79150000D01*
X105270000Y-78050000D02*
X105270000Y-77510000D01*
X105270000Y-77510000D02*
X105500000Y-77510000D01*
X103400000Y-84710000D02*
X105500000Y-84710000D01*
X103400000Y-76990000D02*
X105500000Y-76990000D01*
%TO.C,J5*%
X179485000Y-97270000D02*
X175675000Y-97270000D01*
X179485000Y-68695000D02*
X179485000Y-97270000D01*
X169325000Y-68695000D02*
X179485000Y-68695000D01*
X168750000Y-71930000D02*
X167420000Y-71930000D01*
X168750000Y-70600000D02*
X168750000Y-71930000D01*
X166150000Y-71930000D02*
X158470000Y-71930000D01*
X166150000Y-69270000D02*
X166150000Y-71930000D01*
X166150000Y-69270000D02*
X158470000Y-69270000D01*
X158470000Y-69270000D02*
X158470000Y-71930000D01*
X157895000Y-68695000D02*
X175675000Y-68695000D01*
X157895000Y-68695000D02*
X147735000Y-68695000D01*
X147735000Y-97270000D02*
X175675000Y-97270000D01*
X147735000Y-68695000D02*
X147735000Y-97270000D01*
%TO.C,J8*%
X117230000Y-41070000D02*
X112090000Y-41070000D01*
X117230000Y-41070000D02*
X117230000Y-43730000D01*
X112090000Y-41070000D02*
X112090000Y-43730000D01*
X119830000Y-42400000D02*
X119830000Y-43730000D01*
X119830000Y-43730000D02*
X118500000Y-43730000D01*
X117230000Y-43730000D02*
X112090000Y-43730000D01*
D12*
X121700000Y-39500000D02*
X110300000Y-39500000D01*
X110300000Y-45100000D01*
X121700000Y-45100000D01*
X121700000Y-39500000D01*
%TD*%
D16*
%TO.C,U2*%
X106140000Y-64780000D03*
X108680000Y-64780000D03*
X111220000Y-64780000D03*
X113760000Y-64780000D03*
X116300000Y-64780000D03*
X118840000Y-64780000D03*
X121380000Y-64780000D03*
X123920000Y-64780000D03*
X126460000Y-64780000D03*
X129000000Y-64780000D03*
X131540000Y-64780000D03*
X134080000Y-64780000D03*
X134080000Y-49540000D03*
X131540000Y-49540000D03*
X129000000Y-49540000D03*
X126460000Y-49540000D03*
X123920000Y-49540000D03*
X121380000Y-49540000D03*
X118840000Y-49540000D03*
X116300000Y-49540000D03*
X113760000Y-49540000D03*
X111220000Y-49540000D03*
X108680000Y-49540000D03*
X106140000Y-49540000D03*
X103600000Y-49540000D03*
X103600000Y-64780000D03*
%TD*%
%TO.C,U3*%
X186380000Y-49460000D03*
X186380000Y-64700000D03*
X183840000Y-64700000D03*
X181300000Y-64700000D03*
X178760000Y-64700000D03*
X176220000Y-64700000D03*
X173680000Y-64700000D03*
X171140000Y-64700000D03*
X168600000Y-64700000D03*
X166060000Y-64700000D03*
X163520000Y-64700000D03*
X160980000Y-64700000D03*
X158440000Y-64700000D03*
X155900000Y-64700000D03*
X155900000Y-49460000D03*
X158440000Y-49460000D03*
X160980000Y-49460000D03*
X163520000Y-49460000D03*
X166060000Y-49460000D03*
X168600000Y-49460000D03*
X171140000Y-49460000D03*
X173680000Y-49460000D03*
X176220000Y-49460000D03*
X178760000Y-49460000D03*
X181300000Y-49460000D03*
X183840000Y-49460000D03*
%TD*%
M02*
