%TF.GenerationSoftware,KiCad,Pcbnew,8.0.6-8.0.6-0~ubuntu24.04.1*%
%TF.CreationDate,2025-07-02T20:36:48-04:00*%
%TF.ProjectId,meshbot_kicad_v1,6d657368-626f-4745-9f6b-696361645f76,rev?*%
%TF.SameCoordinates,Original*%
%TF.FileFunction,Legend,Bot*%
%TF.FilePolarity,Positive*%
%FSLAX46Y46*%
G04 Gerber Fmt 4.6, Leading zero omitted, Abs format (unit mm)*
G04 Created by KiCad (PCBNEW 8.0.6-8.0.6-0~ubuntu24.04.1) date 2025-07-02 20:36:48*
%MOMM*%
%LPD*%
G01*
G04 APERTURE LIST*
%ADD10C,0.150000*%
%ADD11C,0.100000*%
%ADD12C,0.120000*%
%ADD13C,0.381000*%
%ADD14C,1.752600*%
G04 APERTURE END LIST*
D10*
X149063220Y-74469819D02*
X149063220Y-73469819D01*
X149063220Y-73469819D02*
X148491792Y-74469819D01*
X148491792Y-74469819D02*
X148491792Y-73469819D01*
X148015601Y-73946009D02*
X147682268Y-73946009D01*
X147539411Y-74469819D02*
X148015601Y-74469819D01*
X148015601Y-74469819D02*
X148015601Y-73469819D01*
X148015601Y-73469819D02*
X147539411Y-73469819D01*
X146920363Y-73469819D02*
X146729887Y-73469819D01*
X146729887Y-73469819D02*
X146634649Y-73517438D01*
X146634649Y-73517438D02*
X146539411Y-73612676D01*
X146539411Y-73612676D02*
X146491792Y-73803152D01*
X146491792Y-73803152D02*
X146491792Y-74136485D01*
X146491792Y-74136485D02*
X146539411Y-74326961D01*
X146539411Y-74326961D02*
X146634649Y-74422200D01*
X146634649Y-74422200D02*
X146729887Y-74469819D01*
X146729887Y-74469819D02*
X146920363Y-74469819D01*
X146920363Y-74469819D02*
X147015601Y-74422200D01*
X147015601Y-74422200D02*
X147110839Y-74326961D01*
X147110839Y-74326961D02*
X147158458Y-74136485D01*
X147158458Y-74136485D02*
X147158458Y-73803152D01*
X147158458Y-73803152D02*
X147110839Y-73612676D01*
X147110839Y-73612676D02*
X147015601Y-73517438D01*
X147015601Y-73517438D02*
X146920363Y-73469819D01*
X145634649Y-73469819D02*
X145825125Y-73469819D01*
X145825125Y-73469819D02*
X145920363Y-73517438D01*
X145920363Y-73517438D02*
X145967982Y-73565057D01*
X145967982Y-73565057D02*
X146063220Y-73707914D01*
X146063220Y-73707914D02*
X146110839Y-73898390D01*
X146110839Y-73898390D02*
X146110839Y-74279342D01*
X146110839Y-74279342D02*
X146063220Y-74374580D01*
X146063220Y-74374580D02*
X146015601Y-74422200D01*
X146015601Y-74422200D02*
X145920363Y-74469819D01*
X145920363Y-74469819D02*
X145729887Y-74469819D01*
X145729887Y-74469819D02*
X145634649Y-74422200D01*
X145634649Y-74422200D02*
X145587030Y-74374580D01*
X145587030Y-74374580D02*
X145539411Y-74279342D01*
X145539411Y-74279342D02*
X145539411Y-74041247D01*
X145539411Y-74041247D02*
X145587030Y-73946009D01*
X145587030Y-73946009D02*
X145634649Y-73898390D01*
X145634649Y-73898390D02*
X145729887Y-73850771D01*
X145729887Y-73850771D02*
X145920363Y-73850771D01*
X145920363Y-73850771D02*
X146015601Y-73898390D01*
X146015601Y-73898390D02*
X146063220Y-73946009D01*
X146063220Y-73946009D02*
X146110839Y-74041247D01*
X145110839Y-74469819D02*
X145110839Y-73469819D01*
X145110839Y-73469819D02*
X144777506Y-74184104D01*
X144777506Y-74184104D02*
X144444173Y-73469819D01*
X144444173Y-73469819D02*
X144444173Y-74469819D01*
X142682268Y-73517438D02*
X142777506Y-73469819D01*
X142777506Y-73469819D02*
X142920363Y-73469819D01*
X142920363Y-73469819D02*
X143063220Y-73517438D01*
X143063220Y-73517438D02*
X143158458Y-73612676D01*
X143158458Y-73612676D02*
X143206077Y-73707914D01*
X143206077Y-73707914D02*
X143253696Y-73898390D01*
X143253696Y-73898390D02*
X143253696Y-74041247D01*
X143253696Y-74041247D02*
X143206077Y-74231723D01*
X143206077Y-74231723D02*
X143158458Y-74326961D01*
X143158458Y-74326961D02*
X143063220Y-74422200D01*
X143063220Y-74422200D02*
X142920363Y-74469819D01*
X142920363Y-74469819D02*
X142825125Y-74469819D01*
X142825125Y-74469819D02*
X142682268Y-74422200D01*
X142682268Y-74422200D02*
X142634649Y-74374580D01*
X142634649Y-74374580D02*
X142634649Y-74041247D01*
X142634649Y-74041247D02*
X142825125Y-74041247D01*
X142206077Y-74469819D02*
X142206077Y-73469819D01*
X142206077Y-73469819D02*
X141825125Y-73469819D01*
X141825125Y-73469819D02*
X141729887Y-73517438D01*
X141729887Y-73517438D02*
X141682268Y-73565057D01*
X141682268Y-73565057D02*
X141634649Y-73660295D01*
X141634649Y-73660295D02*
X141634649Y-73803152D01*
X141634649Y-73803152D02*
X141682268Y-73898390D01*
X141682268Y-73898390D02*
X141729887Y-73946009D01*
X141729887Y-73946009D02*
X141825125Y-73993628D01*
X141825125Y-73993628D02*
X142206077Y-73993628D01*
X141253696Y-74422200D02*
X141110839Y-74469819D01*
X141110839Y-74469819D02*
X140872744Y-74469819D01*
X140872744Y-74469819D02*
X140777506Y-74422200D01*
X140777506Y-74422200D02*
X140729887Y-74374580D01*
X140729887Y-74374580D02*
X140682268Y-74279342D01*
X140682268Y-74279342D02*
X140682268Y-74184104D01*
X140682268Y-74184104D02*
X140729887Y-74088866D01*
X140729887Y-74088866D02*
X140777506Y-74041247D01*
X140777506Y-74041247D02*
X140872744Y-73993628D01*
X140872744Y-73993628D02*
X141063220Y-73946009D01*
X141063220Y-73946009D02*
X141158458Y-73898390D01*
X141158458Y-73898390D02*
X141206077Y-73850771D01*
X141206077Y-73850771D02*
X141253696Y-73755533D01*
X141253696Y-73755533D02*
X141253696Y-73660295D01*
X141253696Y-73660295D02*
X141206077Y-73565057D01*
X141206077Y-73565057D02*
X141158458Y-73517438D01*
X141158458Y-73517438D02*
X141063220Y-73469819D01*
X141063220Y-73469819D02*
X140825125Y-73469819D01*
X140825125Y-73469819D02*
X140682268Y-73517438D01*
X126361904Y-42502438D02*
X126457142Y-42454819D01*
X126457142Y-42454819D02*
X126599999Y-42454819D01*
X126599999Y-42454819D02*
X126742856Y-42502438D01*
X126742856Y-42502438D02*
X126838094Y-42597676D01*
X126838094Y-42597676D02*
X126885713Y-42692914D01*
X126885713Y-42692914D02*
X126933332Y-42883390D01*
X126933332Y-42883390D02*
X126933332Y-43026247D01*
X126933332Y-43026247D02*
X126885713Y-43216723D01*
X126885713Y-43216723D02*
X126838094Y-43311961D01*
X126838094Y-43311961D02*
X126742856Y-43407200D01*
X126742856Y-43407200D02*
X126599999Y-43454819D01*
X126599999Y-43454819D02*
X126504761Y-43454819D01*
X126504761Y-43454819D02*
X126361904Y-43407200D01*
X126361904Y-43407200D02*
X126314285Y-43359580D01*
X126314285Y-43359580D02*
X126314285Y-43026247D01*
X126314285Y-43026247D02*
X126504761Y-43026247D01*
X125885713Y-43454819D02*
X125885713Y-42454819D01*
X125885713Y-42454819D02*
X125314285Y-43454819D01*
X125314285Y-43454819D02*
X125314285Y-42454819D01*
X124838094Y-43454819D02*
X124838094Y-42454819D01*
X124838094Y-42454819D02*
X124599999Y-42454819D01*
X124599999Y-42454819D02*
X124457142Y-42502438D01*
X124457142Y-42502438D02*
X124361904Y-42597676D01*
X124361904Y-42597676D02*
X124314285Y-42692914D01*
X124314285Y-42692914D02*
X124266666Y-42883390D01*
X124266666Y-42883390D02*
X124266666Y-43026247D01*
X124266666Y-43026247D02*
X124314285Y-43216723D01*
X124314285Y-43216723D02*
X124361904Y-43311961D01*
X124361904Y-43311961D02*
X124457142Y-43407200D01*
X124457142Y-43407200D02*
X124599999Y-43454819D01*
X124599999Y-43454819D02*
X124838094Y-43454819D01*
X134242856Y-42454819D02*
X133909523Y-43454819D01*
X133909523Y-43454819D02*
X133576190Y-42454819D01*
X133242856Y-42931009D02*
X132909523Y-42931009D01*
X132766666Y-43454819D02*
X133242856Y-43454819D01*
X133242856Y-43454819D02*
X133242856Y-42454819D01*
X133242856Y-42454819D02*
X132766666Y-42454819D01*
X132433332Y-42454819D02*
X131766666Y-43454819D01*
X131766666Y-42454819D02*
X132433332Y-43454819D01*
X131528570Y-42454819D02*
X130957142Y-42454819D01*
X131242856Y-43454819D02*
X131242856Y-42454819D01*
D11*
X117300000Y-89600000D02*
X169800000Y-89600000D01*
X169800000Y-98200000D01*
X117300000Y-98200000D01*
X117300000Y-89600000D01*
D10*
X155625125Y-92947438D02*
X155625125Y-90947438D01*
X155625125Y-90947438D02*
X154958458Y-92376009D01*
X154958458Y-92376009D02*
X154291792Y-90947438D01*
X154291792Y-90947438D02*
X154291792Y-92947438D01*
X153339411Y-91899819D02*
X152672744Y-91899819D01*
X152387030Y-92947438D02*
X153339411Y-92947438D01*
X153339411Y-92947438D02*
X153339411Y-90947438D01*
X153339411Y-90947438D02*
X152387030Y-90947438D01*
X151625125Y-92852200D02*
X151339411Y-92947438D01*
X151339411Y-92947438D02*
X150863220Y-92947438D01*
X150863220Y-92947438D02*
X150672744Y-92852200D01*
X150672744Y-92852200D02*
X150577506Y-92756961D01*
X150577506Y-92756961D02*
X150482268Y-92566485D01*
X150482268Y-92566485D02*
X150482268Y-92376009D01*
X150482268Y-92376009D02*
X150577506Y-92185533D01*
X150577506Y-92185533D02*
X150672744Y-92090295D01*
X150672744Y-92090295D02*
X150863220Y-91995057D01*
X150863220Y-91995057D02*
X151244173Y-91899819D01*
X151244173Y-91899819D02*
X151434649Y-91804580D01*
X151434649Y-91804580D02*
X151529887Y-91709342D01*
X151529887Y-91709342D02*
X151625125Y-91518866D01*
X151625125Y-91518866D02*
X151625125Y-91328390D01*
X151625125Y-91328390D02*
X151529887Y-91137914D01*
X151529887Y-91137914D02*
X151434649Y-91042676D01*
X151434649Y-91042676D02*
X151244173Y-90947438D01*
X151244173Y-90947438D02*
X150767982Y-90947438D01*
X150767982Y-90947438D02*
X150482268Y-91042676D01*
X149625125Y-92947438D02*
X149625125Y-90947438D01*
X149625125Y-91899819D02*
X148482268Y-91899819D01*
X148482268Y-92947438D02*
X148482268Y-90947438D01*
X146863220Y-91899819D02*
X146577506Y-91995057D01*
X146577506Y-91995057D02*
X146482268Y-92090295D01*
X146482268Y-92090295D02*
X146387030Y-92280771D01*
X146387030Y-92280771D02*
X146387030Y-92566485D01*
X146387030Y-92566485D02*
X146482268Y-92756961D01*
X146482268Y-92756961D02*
X146577506Y-92852200D01*
X146577506Y-92852200D02*
X146767982Y-92947438D01*
X146767982Y-92947438D02*
X147529887Y-92947438D01*
X147529887Y-92947438D02*
X147529887Y-90947438D01*
X147529887Y-90947438D02*
X146863220Y-90947438D01*
X146863220Y-90947438D02*
X146672744Y-91042676D01*
X146672744Y-91042676D02*
X146577506Y-91137914D01*
X146577506Y-91137914D02*
X146482268Y-91328390D01*
X146482268Y-91328390D02*
X146482268Y-91518866D01*
X146482268Y-91518866D02*
X146577506Y-91709342D01*
X146577506Y-91709342D02*
X146672744Y-91804580D01*
X146672744Y-91804580D02*
X146863220Y-91899819D01*
X146863220Y-91899819D02*
X147529887Y-91899819D01*
X145148935Y-90947438D02*
X144767982Y-90947438D01*
X144767982Y-90947438D02*
X144577506Y-91042676D01*
X144577506Y-91042676D02*
X144387030Y-91233152D01*
X144387030Y-91233152D02*
X144291792Y-91614104D01*
X144291792Y-91614104D02*
X144291792Y-92280771D01*
X144291792Y-92280771D02*
X144387030Y-92661723D01*
X144387030Y-92661723D02*
X144577506Y-92852200D01*
X144577506Y-92852200D02*
X144767982Y-92947438D01*
X144767982Y-92947438D02*
X145148935Y-92947438D01*
X145148935Y-92947438D02*
X145339411Y-92852200D01*
X145339411Y-92852200D02*
X145529887Y-92661723D01*
X145529887Y-92661723D02*
X145625125Y-92280771D01*
X145625125Y-92280771D02*
X145625125Y-91614104D01*
X145625125Y-91614104D02*
X145529887Y-91233152D01*
X145529887Y-91233152D02*
X145339411Y-91042676D01*
X145339411Y-91042676D02*
X145148935Y-90947438D01*
X143720363Y-90947438D02*
X142577506Y-90947438D01*
X143148935Y-92947438D02*
X143148935Y-90947438D01*
X140577505Y-91614104D02*
X140101315Y-92947438D01*
X140101315Y-92947438D02*
X139625124Y-91614104D01*
X138101314Y-92852200D02*
X138291790Y-92947438D01*
X138291790Y-92947438D02*
X138672743Y-92947438D01*
X138672743Y-92947438D02*
X138863219Y-92852200D01*
X138863219Y-92852200D02*
X138958457Y-92661723D01*
X138958457Y-92661723D02*
X138958457Y-91899819D01*
X138958457Y-91899819D02*
X138863219Y-91709342D01*
X138863219Y-91709342D02*
X138672743Y-91614104D01*
X138672743Y-91614104D02*
X138291790Y-91614104D01*
X138291790Y-91614104D02*
X138101314Y-91709342D01*
X138101314Y-91709342D02*
X138006076Y-91899819D01*
X138006076Y-91899819D02*
X138006076Y-92090295D01*
X138006076Y-92090295D02*
X138958457Y-92280771D01*
X137148933Y-92947438D02*
X137148933Y-91614104D01*
X137148933Y-91995057D02*
X137053695Y-91804580D01*
X137053695Y-91804580D02*
X136958457Y-91709342D01*
X136958457Y-91709342D02*
X136767981Y-91614104D01*
X136767981Y-91614104D02*
X136577504Y-91614104D01*
X136006076Y-92852200D02*
X135815600Y-92947438D01*
X135815600Y-92947438D02*
X135434648Y-92947438D01*
X135434648Y-92947438D02*
X135244171Y-92852200D01*
X135244171Y-92852200D02*
X135148933Y-92661723D01*
X135148933Y-92661723D02*
X135148933Y-92566485D01*
X135148933Y-92566485D02*
X135244171Y-92376009D01*
X135244171Y-92376009D02*
X135434648Y-92280771D01*
X135434648Y-92280771D02*
X135720362Y-92280771D01*
X135720362Y-92280771D02*
X135910838Y-92185533D01*
X135910838Y-92185533D02*
X136006076Y-91995057D01*
X136006076Y-91995057D02*
X136006076Y-91899819D01*
X136006076Y-91899819D02*
X135910838Y-91709342D01*
X135910838Y-91709342D02*
X135720362Y-91614104D01*
X135720362Y-91614104D02*
X135434648Y-91614104D01*
X135434648Y-91614104D02*
X135244171Y-91709342D01*
X134291790Y-92947438D02*
X134291790Y-91614104D01*
X134291790Y-90947438D02*
X134387028Y-91042676D01*
X134387028Y-91042676D02*
X134291790Y-91137914D01*
X134291790Y-91137914D02*
X134196552Y-91042676D01*
X134196552Y-91042676D02*
X134291790Y-90947438D01*
X134291790Y-90947438D02*
X134291790Y-91137914D01*
X133053695Y-92947438D02*
X133244171Y-92852200D01*
X133244171Y-92852200D02*
X133339409Y-92756961D01*
X133339409Y-92756961D02*
X133434647Y-92566485D01*
X133434647Y-92566485D02*
X133434647Y-91995057D01*
X133434647Y-91995057D02*
X133339409Y-91804580D01*
X133339409Y-91804580D02*
X133244171Y-91709342D01*
X133244171Y-91709342D02*
X133053695Y-91614104D01*
X133053695Y-91614104D02*
X132767980Y-91614104D01*
X132767980Y-91614104D02*
X132577504Y-91709342D01*
X132577504Y-91709342D02*
X132482266Y-91804580D01*
X132482266Y-91804580D02*
X132387028Y-91995057D01*
X132387028Y-91995057D02*
X132387028Y-92566485D01*
X132387028Y-92566485D02*
X132482266Y-92756961D01*
X132482266Y-92756961D02*
X132577504Y-92852200D01*
X132577504Y-92852200D02*
X132767980Y-92947438D01*
X132767980Y-92947438D02*
X133053695Y-92947438D01*
X131529885Y-91614104D02*
X131529885Y-92947438D01*
X131529885Y-91804580D02*
X131434647Y-91709342D01*
X131434647Y-91709342D02*
X131244171Y-91614104D01*
X131244171Y-91614104D02*
X130958456Y-91614104D01*
X130958456Y-91614104D02*
X130767980Y-91709342D01*
X130767980Y-91709342D02*
X130672742Y-91899819D01*
X130672742Y-91899819D02*
X130672742Y-92947438D01*
X127148932Y-92947438D02*
X128291789Y-92947438D01*
X127720361Y-92947438D02*
X127720361Y-90947438D01*
X127720361Y-90947438D02*
X127910837Y-91233152D01*
X127910837Y-91233152D02*
X128101313Y-91423628D01*
X128101313Y-91423628D02*
X128291789Y-91518866D01*
X169215601Y-95214104D02*
X168834649Y-96547438D01*
X168834649Y-96547438D02*
X168453696Y-95595057D01*
X168453696Y-95595057D02*
X168072744Y-96547438D01*
X168072744Y-96547438D02*
X167691792Y-95214104D01*
X166072744Y-96547438D02*
X166072744Y-95499819D01*
X166072744Y-95499819D02*
X166167982Y-95309342D01*
X166167982Y-95309342D02*
X166358458Y-95214104D01*
X166358458Y-95214104D02*
X166739411Y-95214104D01*
X166739411Y-95214104D02*
X166929887Y-95309342D01*
X166072744Y-96452200D02*
X166263220Y-96547438D01*
X166263220Y-96547438D02*
X166739411Y-96547438D01*
X166739411Y-96547438D02*
X166929887Y-96452200D01*
X166929887Y-96452200D02*
X167025125Y-96261723D01*
X167025125Y-96261723D02*
X167025125Y-96071247D01*
X167025125Y-96071247D02*
X166929887Y-95880771D01*
X166929887Y-95880771D02*
X166739411Y-95785533D01*
X166739411Y-95785533D02*
X166263220Y-95785533D01*
X166263220Y-95785533D02*
X166072744Y-95690295D01*
X165406077Y-95214104D02*
X164644173Y-95214104D01*
X165120363Y-94547438D02*
X165120363Y-96261723D01*
X165120363Y-96261723D02*
X165025125Y-96452200D01*
X165025125Y-96452200D02*
X164834649Y-96547438D01*
X164834649Y-96547438D02*
X164644173Y-96547438D01*
X163215601Y-96452200D02*
X163406077Y-96547438D01*
X163406077Y-96547438D02*
X163787030Y-96547438D01*
X163787030Y-96547438D02*
X163977506Y-96452200D01*
X163977506Y-96452200D02*
X164072744Y-96261723D01*
X164072744Y-96261723D02*
X164072744Y-95499819D01*
X164072744Y-95499819D02*
X163977506Y-95309342D01*
X163977506Y-95309342D02*
X163787030Y-95214104D01*
X163787030Y-95214104D02*
X163406077Y-95214104D01*
X163406077Y-95214104D02*
X163215601Y-95309342D01*
X163215601Y-95309342D02*
X163120363Y-95499819D01*
X163120363Y-95499819D02*
X163120363Y-95690295D01*
X163120363Y-95690295D02*
X164072744Y-95880771D01*
X162263220Y-96547438D02*
X162263220Y-95214104D01*
X162263220Y-95595057D02*
X162167982Y-95404580D01*
X162167982Y-95404580D02*
X162072744Y-95309342D01*
X162072744Y-95309342D02*
X161882268Y-95214104D01*
X161882268Y-95214104D02*
X161691791Y-95214104D01*
X161025125Y-96547438D02*
X161025125Y-94547438D01*
X161025125Y-95309342D02*
X160834649Y-95214104D01*
X160834649Y-95214104D02*
X160453696Y-95214104D01*
X160453696Y-95214104D02*
X160263220Y-95309342D01*
X160263220Y-95309342D02*
X160167982Y-95404580D01*
X160167982Y-95404580D02*
X160072744Y-95595057D01*
X160072744Y-95595057D02*
X160072744Y-96166485D01*
X160072744Y-96166485D02*
X160167982Y-96356961D01*
X160167982Y-96356961D02*
X160263220Y-96452200D01*
X160263220Y-96452200D02*
X160453696Y-96547438D01*
X160453696Y-96547438D02*
X160834649Y-96547438D01*
X160834649Y-96547438D02*
X161025125Y-96452200D01*
X158453696Y-96452200D02*
X158644172Y-96547438D01*
X158644172Y-96547438D02*
X159025125Y-96547438D01*
X159025125Y-96547438D02*
X159215601Y-96452200D01*
X159215601Y-96452200D02*
X159310839Y-96261723D01*
X159310839Y-96261723D02*
X159310839Y-95499819D01*
X159310839Y-95499819D02*
X159215601Y-95309342D01*
X159215601Y-95309342D02*
X159025125Y-95214104D01*
X159025125Y-95214104D02*
X158644172Y-95214104D01*
X158644172Y-95214104D02*
X158453696Y-95309342D01*
X158453696Y-95309342D02*
X158358458Y-95499819D01*
X158358458Y-95499819D02*
X158358458Y-95690295D01*
X158358458Y-95690295D02*
X159310839Y-95880771D01*
X156644172Y-96547438D02*
X156644172Y-95499819D01*
X156644172Y-95499819D02*
X156739410Y-95309342D01*
X156739410Y-95309342D02*
X156929886Y-95214104D01*
X156929886Y-95214104D02*
X157310839Y-95214104D01*
X157310839Y-95214104D02*
X157501315Y-95309342D01*
X156644172Y-96452200D02*
X156834648Y-96547438D01*
X156834648Y-96547438D02*
X157310839Y-96547438D01*
X157310839Y-96547438D02*
X157501315Y-96452200D01*
X157501315Y-96452200D02*
X157596553Y-96261723D01*
X157596553Y-96261723D02*
X157596553Y-96071247D01*
X157596553Y-96071247D02*
X157501315Y-95880771D01*
X157501315Y-95880771D02*
X157310839Y-95785533D01*
X157310839Y-95785533D02*
X156834648Y-95785533D01*
X156834648Y-95785533D02*
X156644172Y-95690295D01*
X155691791Y-96547438D02*
X155691791Y-95214104D01*
X155691791Y-95595057D02*
X155596553Y-95404580D01*
X155596553Y-95404580D02*
X155501315Y-95309342D01*
X155501315Y-95309342D02*
X155310839Y-95214104D01*
X155310839Y-95214104D02*
X155120362Y-95214104D01*
X154739410Y-95214104D02*
X153977506Y-95214104D01*
X154453696Y-96547438D02*
X154453696Y-94833152D01*
X154453696Y-94833152D02*
X154358458Y-94642676D01*
X154358458Y-94642676D02*
X154167982Y-94547438D01*
X154167982Y-94547438D02*
X153977506Y-94547438D01*
X153310839Y-96547438D02*
X153310839Y-95214104D01*
X153310839Y-94547438D02*
X153406077Y-94642676D01*
X153406077Y-94642676D02*
X153310839Y-94737914D01*
X153310839Y-94737914D02*
X153215601Y-94642676D01*
X153215601Y-94642676D02*
X153310839Y-94547438D01*
X153310839Y-94547438D02*
X153310839Y-94737914D01*
X151596553Y-96452200D02*
X151787029Y-96547438D01*
X151787029Y-96547438D02*
X152167982Y-96547438D01*
X152167982Y-96547438D02*
X152358458Y-96452200D01*
X152358458Y-96452200D02*
X152453696Y-96261723D01*
X152453696Y-96261723D02*
X152453696Y-95499819D01*
X152453696Y-95499819D02*
X152358458Y-95309342D01*
X152358458Y-95309342D02*
X152167982Y-95214104D01*
X152167982Y-95214104D02*
X151787029Y-95214104D01*
X151787029Y-95214104D02*
X151596553Y-95309342D01*
X151596553Y-95309342D02*
X151501315Y-95499819D01*
X151501315Y-95499819D02*
X151501315Y-95690295D01*
X151501315Y-95690295D02*
X152453696Y-95880771D01*
X150358458Y-96547438D02*
X150548934Y-96452200D01*
X150548934Y-96452200D02*
X150644172Y-96261723D01*
X150644172Y-96261723D02*
X150644172Y-94547438D01*
X148739410Y-96547438D02*
X148739410Y-94547438D01*
X148739410Y-96452200D02*
X148929886Y-96547438D01*
X148929886Y-96547438D02*
X149310839Y-96547438D01*
X149310839Y-96547438D02*
X149501315Y-96452200D01*
X149501315Y-96452200D02*
X149596553Y-96356961D01*
X149596553Y-96356961D02*
X149691791Y-96166485D01*
X149691791Y-96166485D02*
X149691791Y-95595057D01*
X149691791Y-95595057D02*
X149596553Y-95404580D01*
X149596553Y-95404580D02*
X149501315Y-95309342D01*
X149501315Y-95309342D02*
X149310839Y-95214104D01*
X149310839Y-95214104D02*
X148929886Y-95214104D01*
X148929886Y-95214104D02*
X148739410Y-95309342D01*
X147882267Y-96452200D02*
X147691791Y-96547438D01*
X147691791Y-96547438D02*
X147310839Y-96547438D01*
X147310839Y-96547438D02*
X147120362Y-96452200D01*
X147120362Y-96452200D02*
X147025124Y-96261723D01*
X147025124Y-96261723D02*
X147025124Y-96166485D01*
X147025124Y-96166485D02*
X147120362Y-95976009D01*
X147120362Y-95976009D02*
X147310839Y-95880771D01*
X147310839Y-95880771D02*
X147596553Y-95880771D01*
X147596553Y-95880771D02*
X147787029Y-95785533D01*
X147787029Y-95785533D02*
X147882267Y-95595057D01*
X147882267Y-95595057D02*
X147882267Y-95499819D01*
X147882267Y-95499819D02*
X147787029Y-95309342D01*
X147787029Y-95309342D02*
X147596553Y-95214104D01*
X147596553Y-95214104D02*
X147310839Y-95214104D01*
X147310839Y-95214104D02*
X147120362Y-95309342D01*
X145310838Y-96452200D02*
X145501314Y-96547438D01*
X145501314Y-96547438D02*
X145882267Y-96547438D01*
X145882267Y-96547438D02*
X146072743Y-96452200D01*
X146072743Y-96452200D02*
X146167981Y-96356961D01*
X146167981Y-96356961D02*
X146263219Y-96166485D01*
X146263219Y-96166485D02*
X146263219Y-95595057D01*
X146263219Y-95595057D02*
X146167981Y-95404580D01*
X146167981Y-95404580D02*
X146072743Y-95309342D01*
X146072743Y-95309342D02*
X145882267Y-95214104D01*
X145882267Y-95214104D02*
X145501314Y-95214104D01*
X145501314Y-95214104D02*
X145310838Y-95309342D01*
X144453695Y-96547438D02*
X144453695Y-94547438D01*
X143596552Y-96547438D02*
X143596552Y-95499819D01*
X143596552Y-95499819D02*
X143691790Y-95309342D01*
X143691790Y-95309342D02*
X143882266Y-95214104D01*
X143882266Y-95214104D02*
X144167981Y-95214104D01*
X144167981Y-95214104D02*
X144358457Y-95309342D01*
X144358457Y-95309342D02*
X144453695Y-95404580D01*
X142358457Y-96547438D02*
X142548933Y-96452200D01*
X142548933Y-96452200D02*
X142644171Y-96356961D01*
X142644171Y-96356961D02*
X142739409Y-96166485D01*
X142739409Y-96166485D02*
X142739409Y-95595057D01*
X142739409Y-95595057D02*
X142644171Y-95404580D01*
X142644171Y-95404580D02*
X142548933Y-95309342D01*
X142548933Y-95309342D02*
X142358457Y-95214104D01*
X142358457Y-95214104D02*
X142072742Y-95214104D01*
X142072742Y-95214104D02*
X141882266Y-95309342D01*
X141882266Y-95309342D02*
X141787028Y-95404580D01*
X141787028Y-95404580D02*
X141691790Y-95595057D01*
X141691790Y-95595057D02*
X141691790Y-96166485D01*
X141691790Y-96166485D02*
X141787028Y-96356961D01*
X141787028Y-96356961D02*
X141882266Y-96452200D01*
X141882266Y-96452200D02*
X142072742Y-96547438D01*
X142072742Y-96547438D02*
X142358457Y-96547438D01*
X140548933Y-96547438D02*
X140739409Y-96452200D01*
X140739409Y-96452200D02*
X140834647Y-96356961D01*
X140834647Y-96356961D02*
X140929885Y-96166485D01*
X140929885Y-96166485D02*
X140929885Y-95595057D01*
X140929885Y-95595057D02*
X140834647Y-95404580D01*
X140834647Y-95404580D02*
X140739409Y-95309342D01*
X140739409Y-95309342D02*
X140548933Y-95214104D01*
X140548933Y-95214104D02*
X140263218Y-95214104D01*
X140263218Y-95214104D02*
X140072742Y-95309342D01*
X140072742Y-95309342D02*
X139977504Y-95404580D01*
X139977504Y-95404580D02*
X139882266Y-95595057D01*
X139882266Y-95595057D02*
X139882266Y-96166485D01*
X139882266Y-96166485D02*
X139977504Y-96356961D01*
X139977504Y-96356961D02*
X140072742Y-96452200D01*
X140072742Y-96452200D02*
X140263218Y-96547438D01*
X140263218Y-96547438D02*
X140548933Y-96547438D01*
X138739409Y-96547438D02*
X138929885Y-96452200D01*
X138929885Y-96452200D02*
X139025123Y-96261723D01*
X139025123Y-96261723D02*
X139025123Y-94547438D01*
X137977504Y-96356961D02*
X137882266Y-96452200D01*
X137882266Y-96452200D02*
X137977504Y-96547438D01*
X137977504Y-96547438D02*
X138072742Y-96452200D01*
X138072742Y-96452200D02*
X137977504Y-96356961D01*
X137977504Y-96356961D02*
X137977504Y-96547438D01*
X136739409Y-96547438D02*
X136929885Y-96452200D01*
X136929885Y-96452200D02*
X137025123Y-96356961D01*
X137025123Y-96356961D02*
X137120361Y-96166485D01*
X137120361Y-96166485D02*
X137120361Y-95595057D01*
X137120361Y-95595057D02*
X137025123Y-95404580D01*
X137025123Y-95404580D02*
X136929885Y-95309342D01*
X136929885Y-95309342D02*
X136739409Y-95214104D01*
X136739409Y-95214104D02*
X136453694Y-95214104D01*
X136453694Y-95214104D02*
X136263218Y-95309342D01*
X136263218Y-95309342D02*
X136167980Y-95404580D01*
X136167980Y-95404580D02*
X136072742Y-95595057D01*
X136072742Y-95595057D02*
X136072742Y-96166485D01*
X136072742Y-96166485D02*
X136167980Y-96356961D01*
X136167980Y-96356961D02*
X136263218Y-96452200D01*
X136263218Y-96452200D02*
X136453694Y-96547438D01*
X136453694Y-96547438D02*
X136739409Y-96547438D01*
X135215599Y-96547438D02*
X135215599Y-95214104D01*
X135215599Y-95595057D02*
X135120361Y-95404580D01*
X135120361Y-95404580D02*
X135025123Y-95309342D01*
X135025123Y-95309342D02*
X134834647Y-95214104D01*
X134834647Y-95214104D02*
X134644170Y-95214104D01*
X133120361Y-95214104D02*
X133120361Y-96833152D01*
X133120361Y-96833152D02*
X133215599Y-97023628D01*
X133215599Y-97023628D02*
X133310837Y-97118866D01*
X133310837Y-97118866D02*
X133501314Y-97214104D01*
X133501314Y-97214104D02*
X133787028Y-97214104D01*
X133787028Y-97214104D02*
X133977504Y-97118866D01*
X133120361Y-96452200D02*
X133310837Y-96547438D01*
X133310837Y-96547438D02*
X133691790Y-96547438D01*
X133691790Y-96547438D02*
X133882266Y-96452200D01*
X133882266Y-96452200D02*
X133977504Y-96356961D01*
X133977504Y-96356961D02*
X134072742Y-96166485D01*
X134072742Y-96166485D02*
X134072742Y-95595057D01*
X134072742Y-95595057D02*
X133977504Y-95404580D01*
X133977504Y-95404580D02*
X133882266Y-95309342D01*
X133882266Y-95309342D02*
X133691790Y-95214104D01*
X133691790Y-95214104D02*
X133310837Y-95214104D01*
X133310837Y-95214104D02*
X133120361Y-95309342D01*
X130739409Y-94452200D02*
X132453694Y-97023628D01*
X130072742Y-96547438D02*
X130072742Y-95214104D01*
X130072742Y-95404580D02*
X129977504Y-95309342D01*
X129977504Y-95309342D02*
X129787028Y-95214104D01*
X129787028Y-95214104D02*
X129501313Y-95214104D01*
X129501313Y-95214104D02*
X129310837Y-95309342D01*
X129310837Y-95309342D02*
X129215599Y-95499819D01*
X129215599Y-95499819D02*
X129215599Y-96547438D01*
X129215599Y-95499819D02*
X129120361Y-95309342D01*
X129120361Y-95309342D02*
X128929885Y-95214104D01*
X128929885Y-95214104D02*
X128644171Y-95214104D01*
X128644171Y-95214104D02*
X128453694Y-95309342D01*
X128453694Y-95309342D02*
X128358456Y-95499819D01*
X128358456Y-95499819D02*
X128358456Y-96547438D01*
X126644170Y-96452200D02*
X126834646Y-96547438D01*
X126834646Y-96547438D02*
X127215599Y-96547438D01*
X127215599Y-96547438D02*
X127406075Y-96452200D01*
X127406075Y-96452200D02*
X127501313Y-96261723D01*
X127501313Y-96261723D02*
X127501313Y-95499819D01*
X127501313Y-95499819D02*
X127406075Y-95309342D01*
X127406075Y-95309342D02*
X127215599Y-95214104D01*
X127215599Y-95214104D02*
X126834646Y-95214104D01*
X126834646Y-95214104D02*
X126644170Y-95309342D01*
X126644170Y-95309342D02*
X126548932Y-95499819D01*
X126548932Y-95499819D02*
X126548932Y-95690295D01*
X126548932Y-95690295D02*
X127501313Y-95880771D01*
X125787027Y-96452200D02*
X125596551Y-96547438D01*
X125596551Y-96547438D02*
X125215599Y-96547438D01*
X125215599Y-96547438D02*
X125025122Y-96452200D01*
X125025122Y-96452200D02*
X124929884Y-96261723D01*
X124929884Y-96261723D02*
X124929884Y-96166485D01*
X124929884Y-96166485D02*
X125025122Y-95976009D01*
X125025122Y-95976009D02*
X125215599Y-95880771D01*
X125215599Y-95880771D02*
X125501313Y-95880771D01*
X125501313Y-95880771D02*
X125691789Y-95785533D01*
X125691789Y-95785533D02*
X125787027Y-95595057D01*
X125787027Y-95595057D02*
X125787027Y-95499819D01*
X125787027Y-95499819D02*
X125691789Y-95309342D01*
X125691789Y-95309342D02*
X125501313Y-95214104D01*
X125501313Y-95214104D02*
X125215599Y-95214104D01*
X125215599Y-95214104D02*
X125025122Y-95309342D01*
X124072741Y-96547438D02*
X124072741Y-94547438D01*
X123215598Y-96547438D02*
X123215598Y-95499819D01*
X123215598Y-95499819D02*
X123310836Y-95309342D01*
X123310836Y-95309342D02*
X123501312Y-95214104D01*
X123501312Y-95214104D02*
X123787027Y-95214104D01*
X123787027Y-95214104D02*
X123977503Y-95309342D01*
X123977503Y-95309342D02*
X124072741Y-95404580D01*
X122263217Y-96547438D02*
X122263217Y-94547438D01*
X122263217Y-95309342D02*
X122072741Y-95214104D01*
X122072741Y-95214104D02*
X121691788Y-95214104D01*
X121691788Y-95214104D02*
X121501312Y-95309342D01*
X121501312Y-95309342D02*
X121406074Y-95404580D01*
X121406074Y-95404580D02*
X121310836Y-95595057D01*
X121310836Y-95595057D02*
X121310836Y-96166485D01*
X121310836Y-96166485D02*
X121406074Y-96356961D01*
X121406074Y-96356961D02*
X121501312Y-96452200D01*
X121501312Y-96452200D02*
X121691788Y-96547438D01*
X121691788Y-96547438D02*
X122072741Y-96547438D01*
X122072741Y-96547438D02*
X122263217Y-96452200D01*
X120167979Y-96547438D02*
X120358455Y-96452200D01*
X120358455Y-96452200D02*
X120453693Y-96356961D01*
X120453693Y-96356961D02*
X120548931Y-96166485D01*
X120548931Y-96166485D02*
X120548931Y-95595057D01*
X120548931Y-95595057D02*
X120453693Y-95404580D01*
X120453693Y-95404580D02*
X120358455Y-95309342D01*
X120358455Y-95309342D02*
X120167979Y-95214104D01*
X120167979Y-95214104D02*
X119882264Y-95214104D01*
X119882264Y-95214104D02*
X119691788Y-95309342D01*
X119691788Y-95309342D02*
X119596550Y-95404580D01*
X119596550Y-95404580D02*
X119501312Y-95595057D01*
X119501312Y-95595057D02*
X119501312Y-96166485D01*
X119501312Y-96166485D02*
X119596550Y-96356961D01*
X119596550Y-96356961D02*
X119691788Y-96452200D01*
X119691788Y-96452200D02*
X119882264Y-96547438D01*
X119882264Y-96547438D02*
X120167979Y-96547438D01*
X118929883Y-95214104D02*
X118167979Y-95214104D01*
X118644169Y-94547438D02*
X118644169Y-96261723D01*
X118644169Y-96261723D02*
X118548931Y-96452200D01*
X118548931Y-96452200D02*
X118358455Y-96547438D01*
X118358455Y-96547438D02*
X118167979Y-96547438D01*
X140769819Y-82641541D02*
X140769819Y-83260588D01*
X140769819Y-83260588D02*
X141150771Y-82927255D01*
X141150771Y-82927255D02*
X141150771Y-83070112D01*
X141150771Y-83070112D02*
X141198390Y-83165350D01*
X141198390Y-83165350D02*
X141246009Y-83212969D01*
X141246009Y-83212969D02*
X141341247Y-83260588D01*
X141341247Y-83260588D02*
X141579342Y-83260588D01*
X141579342Y-83260588D02*
X141674580Y-83212969D01*
X141674580Y-83212969D02*
X141722200Y-83165350D01*
X141722200Y-83165350D02*
X141769819Y-83070112D01*
X141769819Y-83070112D02*
X141769819Y-82784398D01*
X141769819Y-82784398D02*
X141722200Y-82689160D01*
X141722200Y-82689160D02*
X141674580Y-82641541D01*
X140769819Y-83546303D02*
X141769819Y-83879636D01*
X141769819Y-83879636D02*
X140769819Y-84212969D01*
X140769819Y-84451065D02*
X140769819Y-85070112D01*
X140769819Y-85070112D02*
X141150771Y-84736779D01*
X141150771Y-84736779D02*
X141150771Y-84879636D01*
X141150771Y-84879636D02*
X141198390Y-84974874D01*
X141198390Y-84974874D02*
X141246009Y-85022493D01*
X141246009Y-85022493D02*
X141341247Y-85070112D01*
X141341247Y-85070112D02*
X141579342Y-85070112D01*
X141579342Y-85070112D02*
X141674580Y-85022493D01*
X141674580Y-85022493D02*
X141722200Y-84974874D01*
X141722200Y-84974874D02*
X141769819Y-84879636D01*
X141769819Y-84879636D02*
X141769819Y-84593922D01*
X141769819Y-84593922D02*
X141722200Y-84498684D01*
X141722200Y-84498684D02*
X141674580Y-84451065D01*
X143417438Y-83260588D02*
X143369819Y-83165350D01*
X143369819Y-83165350D02*
X143369819Y-83022493D01*
X143369819Y-83022493D02*
X143417438Y-82879636D01*
X143417438Y-82879636D02*
X143512676Y-82784398D01*
X143512676Y-82784398D02*
X143607914Y-82736779D01*
X143607914Y-82736779D02*
X143798390Y-82689160D01*
X143798390Y-82689160D02*
X143941247Y-82689160D01*
X143941247Y-82689160D02*
X144131723Y-82736779D01*
X144131723Y-82736779D02*
X144226961Y-82784398D01*
X144226961Y-82784398D02*
X144322200Y-82879636D01*
X144322200Y-82879636D02*
X144369819Y-83022493D01*
X144369819Y-83022493D02*
X144369819Y-83117731D01*
X144369819Y-83117731D02*
X144322200Y-83260588D01*
X144322200Y-83260588D02*
X144274580Y-83308207D01*
X144274580Y-83308207D02*
X143941247Y-83308207D01*
X143941247Y-83308207D02*
X143941247Y-83117731D01*
X144369819Y-83736779D02*
X143369819Y-83736779D01*
X143369819Y-83736779D02*
X143369819Y-84117731D01*
X143369819Y-84117731D02*
X143417438Y-84212969D01*
X143417438Y-84212969D02*
X143465057Y-84260588D01*
X143465057Y-84260588D02*
X143560295Y-84308207D01*
X143560295Y-84308207D02*
X143703152Y-84308207D01*
X143703152Y-84308207D02*
X143798390Y-84260588D01*
X143798390Y-84260588D02*
X143846009Y-84212969D01*
X143846009Y-84212969D02*
X143893628Y-84117731D01*
X143893628Y-84117731D02*
X143893628Y-83736779D01*
X144322200Y-84689160D02*
X144369819Y-84832017D01*
X144369819Y-84832017D02*
X144369819Y-85070112D01*
X144369819Y-85070112D02*
X144322200Y-85165350D01*
X144322200Y-85165350D02*
X144274580Y-85212969D01*
X144274580Y-85212969D02*
X144179342Y-85260588D01*
X144179342Y-85260588D02*
X144084104Y-85260588D01*
X144084104Y-85260588D02*
X143988866Y-85212969D01*
X143988866Y-85212969D02*
X143941247Y-85165350D01*
X143941247Y-85165350D02*
X143893628Y-85070112D01*
X143893628Y-85070112D02*
X143846009Y-84879636D01*
X143846009Y-84879636D02*
X143798390Y-84784398D01*
X143798390Y-84784398D02*
X143750771Y-84736779D01*
X143750771Y-84736779D02*
X143655533Y-84689160D01*
X143655533Y-84689160D02*
X143560295Y-84689160D01*
X143560295Y-84689160D02*
X143465057Y-84736779D01*
X143465057Y-84736779D02*
X143417438Y-84784398D01*
X143417438Y-84784398D02*
X143369819Y-84879636D01*
X143369819Y-84879636D02*
X143369819Y-85117731D01*
X143369819Y-85117731D02*
X143417438Y-85260588D01*
X144465057Y-85451065D02*
X144465057Y-86212969D01*
X144369819Y-87022493D02*
X143893628Y-86689160D01*
X144369819Y-86451065D02*
X143369819Y-86451065D01*
X143369819Y-86451065D02*
X143369819Y-86832017D01*
X143369819Y-86832017D02*
X143417438Y-86927255D01*
X143417438Y-86927255D02*
X143465057Y-86974874D01*
X143465057Y-86974874D02*
X143560295Y-87022493D01*
X143560295Y-87022493D02*
X143703152Y-87022493D01*
X143703152Y-87022493D02*
X143798390Y-86974874D01*
X143798390Y-86974874D02*
X143846009Y-86927255D01*
X143846009Y-86927255D02*
X143893628Y-86832017D01*
X143893628Y-86832017D02*
X143893628Y-86451065D01*
X143369819Y-87355827D02*
X144369819Y-88022493D01*
X143369819Y-88022493D02*
X144369819Y-87355827D01*
X148617438Y-83060588D02*
X148569819Y-82965350D01*
X148569819Y-82965350D02*
X148569819Y-82822493D01*
X148569819Y-82822493D02*
X148617438Y-82679636D01*
X148617438Y-82679636D02*
X148712676Y-82584398D01*
X148712676Y-82584398D02*
X148807914Y-82536779D01*
X148807914Y-82536779D02*
X148998390Y-82489160D01*
X148998390Y-82489160D02*
X149141247Y-82489160D01*
X149141247Y-82489160D02*
X149331723Y-82536779D01*
X149331723Y-82536779D02*
X149426961Y-82584398D01*
X149426961Y-82584398D02*
X149522200Y-82679636D01*
X149522200Y-82679636D02*
X149569819Y-82822493D01*
X149569819Y-82822493D02*
X149569819Y-82917731D01*
X149569819Y-82917731D02*
X149522200Y-83060588D01*
X149522200Y-83060588D02*
X149474580Y-83108207D01*
X149474580Y-83108207D02*
X149141247Y-83108207D01*
X149141247Y-83108207D02*
X149141247Y-82917731D01*
X149569819Y-83536779D02*
X148569819Y-83536779D01*
X148569819Y-83536779D02*
X149569819Y-84108207D01*
X149569819Y-84108207D02*
X148569819Y-84108207D01*
X149569819Y-84584398D02*
X148569819Y-84584398D01*
X148569819Y-84584398D02*
X148569819Y-84822493D01*
X148569819Y-84822493D02*
X148617438Y-84965350D01*
X148617438Y-84965350D02*
X148712676Y-85060588D01*
X148712676Y-85060588D02*
X148807914Y-85108207D01*
X148807914Y-85108207D02*
X148998390Y-85155826D01*
X148998390Y-85155826D02*
X149141247Y-85155826D01*
X149141247Y-85155826D02*
X149331723Y-85108207D01*
X149331723Y-85108207D02*
X149426961Y-85060588D01*
X149426961Y-85060588D02*
X149522200Y-84965350D01*
X149522200Y-84965350D02*
X149569819Y-84822493D01*
X149569819Y-84822493D02*
X149569819Y-84584398D01*
X145917438Y-83160588D02*
X145869819Y-83065350D01*
X145869819Y-83065350D02*
X145869819Y-82922493D01*
X145869819Y-82922493D02*
X145917438Y-82779636D01*
X145917438Y-82779636D02*
X146012676Y-82684398D01*
X146012676Y-82684398D02*
X146107914Y-82636779D01*
X146107914Y-82636779D02*
X146298390Y-82589160D01*
X146298390Y-82589160D02*
X146441247Y-82589160D01*
X146441247Y-82589160D02*
X146631723Y-82636779D01*
X146631723Y-82636779D02*
X146726961Y-82684398D01*
X146726961Y-82684398D02*
X146822200Y-82779636D01*
X146822200Y-82779636D02*
X146869819Y-82922493D01*
X146869819Y-82922493D02*
X146869819Y-83017731D01*
X146869819Y-83017731D02*
X146822200Y-83160588D01*
X146822200Y-83160588D02*
X146774580Y-83208207D01*
X146774580Y-83208207D02*
X146441247Y-83208207D01*
X146441247Y-83208207D02*
X146441247Y-83017731D01*
X146869819Y-83636779D02*
X145869819Y-83636779D01*
X145869819Y-83636779D02*
X145869819Y-84017731D01*
X145869819Y-84017731D02*
X145917438Y-84112969D01*
X145917438Y-84112969D02*
X145965057Y-84160588D01*
X145965057Y-84160588D02*
X146060295Y-84208207D01*
X146060295Y-84208207D02*
X146203152Y-84208207D01*
X146203152Y-84208207D02*
X146298390Y-84160588D01*
X146298390Y-84160588D02*
X146346009Y-84112969D01*
X146346009Y-84112969D02*
X146393628Y-84017731D01*
X146393628Y-84017731D02*
X146393628Y-83636779D01*
X146822200Y-84589160D02*
X146869819Y-84732017D01*
X146869819Y-84732017D02*
X146869819Y-84970112D01*
X146869819Y-84970112D02*
X146822200Y-85065350D01*
X146822200Y-85065350D02*
X146774580Y-85112969D01*
X146774580Y-85112969D02*
X146679342Y-85160588D01*
X146679342Y-85160588D02*
X146584104Y-85160588D01*
X146584104Y-85160588D02*
X146488866Y-85112969D01*
X146488866Y-85112969D02*
X146441247Y-85065350D01*
X146441247Y-85065350D02*
X146393628Y-84970112D01*
X146393628Y-84970112D02*
X146346009Y-84779636D01*
X146346009Y-84779636D02*
X146298390Y-84684398D01*
X146298390Y-84684398D02*
X146250771Y-84636779D01*
X146250771Y-84636779D02*
X146155533Y-84589160D01*
X146155533Y-84589160D02*
X146060295Y-84589160D01*
X146060295Y-84589160D02*
X145965057Y-84636779D01*
X145965057Y-84636779D02*
X145917438Y-84684398D01*
X145917438Y-84684398D02*
X145869819Y-84779636D01*
X145869819Y-84779636D02*
X145869819Y-85017731D01*
X145869819Y-85017731D02*
X145917438Y-85160588D01*
X146965057Y-85351065D02*
X146965057Y-86112969D01*
X145869819Y-86208208D02*
X145869819Y-86779636D01*
X146869819Y-86493922D02*
X145869819Y-86493922D01*
X145869819Y-87017732D02*
X146869819Y-87684398D01*
X145869819Y-87684398D02*
X146869819Y-87017732D01*
D12*
%TO.C,J2*%
X150330000Y-78970000D02*
X142650000Y-78970000D01*
X142650000Y-81630000D02*
X142650000Y-78970000D01*
X150330000Y-81630000D02*
X150330000Y-78970000D01*
X140050000Y-81630000D02*
X140050000Y-80300000D01*
X141380000Y-81630000D02*
X140050000Y-81630000D01*
X150330000Y-81630000D02*
X142650000Y-81630000D01*
D11*
X131680000Y-46800000D02*
X157680000Y-46800000D01*
X157680000Y-81800000D01*
X131680000Y-81800000D01*
X131680000Y-46800000D01*
X153101267Y-50800000D02*
G75*
G02*
X150258733Y-50800000I-1421267J0D01*
G01*
X150258733Y-50800000D02*
G75*
G02*
X153101267Y-50800000I1421267J0D01*
G01*
D13*
%TO.C,U2*%
X102330000Y-48270000D02*
X102330000Y-66050000D01*
X102330000Y-66050000D02*
X135350000Y-66050000D01*
X135350000Y-48270000D02*
X102330000Y-48270000D01*
X135350000Y-66050000D02*
X135350000Y-48270000D01*
%TO.C,U3*%
X187650000Y-65970000D02*
X187650000Y-48190000D01*
X187650000Y-48190000D02*
X154630000Y-48190000D01*
X154630000Y-65970000D02*
X187650000Y-65970000D01*
X154630000Y-48190000D02*
X154630000Y-65970000D01*
%TD*%
D14*
%TO.C,U2*%
X106140000Y-64780000D03*
X108680000Y-64780000D03*
X111220000Y-64780000D03*
X113760000Y-64780000D03*
X116300000Y-64780000D03*
X118840000Y-64780000D03*
X121380000Y-64780000D03*
X123920000Y-64780000D03*
X126460000Y-64780000D03*
X129000000Y-64780000D03*
X131540000Y-64780000D03*
X134080000Y-64780000D03*
X134080000Y-49540000D03*
X131540000Y-49540000D03*
X129000000Y-49540000D03*
X126460000Y-49540000D03*
X123920000Y-49540000D03*
X121380000Y-49540000D03*
X118840000Y-49540000D03*
X116300000Y-49540000D03*
X113760000Y-49540000D03*
X111220000Y-49540000D03*
X108680000Y-49540000D03*
X106140000Y-49540000D03*
X103600000Y-49540000D03*
X103600000Y-64780000D03*
%TD*%
%TO.C,U3*%
X186380000Y-49460000D03*
X186380000Y-64700000D03*
X183840000Y-64700000D03*
X181300000Y-64700000D03*
X178760000Y-64700000D03*
X176220000Y-64700000D03*
X173680000Y-64700000D03*
X171140000Y-64700000D03*
X168600000Y-64700000D03*
X166060000Y-64700000D03*
X163520000Y-64700000D03*
X160980000Y-64700000D03*
X158440000Y-64700000D03*
X155900000Y-64700000D03*
X155900000Y-49460000D03*
X158440000Y-49460000D03*
X160980000Y-49460000D03*
X163520000Y-49460000D03*
X166060000Y-49460000D03*
X168600000Y-49460000D03*
X171140000Y-49460000D03*
X173680000Y-49460000D03*
X176220000Y-49460000D03*
X178760000Y-49460000D03*
X181300000Y-49460000D03*
X183840000Y-49460000D03*
%TD*%
M02*
