%TF.GenerationSoftware,KiCad,Pcbnew,8.0.6-8.0.6-0~ubuntu24.04.1*%
%TF.CreationDate,2025-07-02T20:36:49-04:00*%
%TF.ProjectId,meshbot_kicad_v1,6d657368-626f-4745-9f6b-696361645f76,rev?*%
%TF.SameCoordinates,Original*%
%TF.FileFunction,Soldermask,Bot*%
%TF.FilePolarity,Negative*%
%FSLAX46Y46*%
G04 Gerber Fmt 4.6, Leading zero omitted, Abs format (unit mm)*
G04 Created by KiCad (PCBNEW 8.0.6-8.0.6-0~ubuntu24.04.1) date 2025-07-02 20:36:49*
%MOMM*%
%LPD*%
G01*
G04 APERTURE LIST*
G04 Aperture macros list*
%AMRoundRect*
0 Rectangle with rounded corners*
0 $1 Rounding radius*
0 $2 $3 $4 $5 $6 $7 $8 $9 X,Y pos of 4 corners*
0 Add a 4 corners polygon primitive as box body*
4,1,4,$2,$3,$4,$5,$6,$7,$8,$9,$2,$3,0*
0 Add four circle primitives for the rounded corners*
1,1,$1+$1,$2,$3*
1,1,$1+$1,$4,$5*
1,1,$1+$1,$6,$7*
1,1,$1+$1,$8,$9*
0 Add four rect primitives between the rounded corners*
20,1,$1+$1,$2,$3,$4,$5,0*
20,1,$1+$1,$4,$5,$6,$7,0*
20,1,$1+$1,$6,$7,$8,$9,0*
20,1,$1+$1,$8,$9,$2,$3,0*%
G04 Aperture macros list end*
%ADD10R,1.800000X1.800000*%
%ADD11C,1.800000*%
%ADD12R,1.700000X1.700000*%
%ADD13O,1.700000X1.700000*%
%ADD14C,1.750000*%
%ADD15C,2.100000*%
%ADD16C,1.400000*%
%ADD17O,1.400000X1.400000*%
%ADD18RoundRect,0.250000X0.350000X0.625000X-0.350000X0.625000X-0.350000X-0.625000X0.350000X-0.625000X0*%
%ADD19O,1.200000X1.750000*%
%ADD20C,1.752600*%
%ADD21O,1.350000X1.350000*%
%ADD22R,1.350000X1.350000*%
%ADD23C,3.200000*%
%ADD24R,2.600000X2.600000*%
%ADD25C,2.600000*%
%ADD26R,2.000000X2.000000*%
%ADD27C,2.000000*%
G04 APERTURE END LIST*
D10*
%TO.C,D2*%
X136400000Y-41260000D03*
D11*
X136400000Y-43800000D03*
%TD*%
D12*
%TO.C,J2*%
X141380000Y-80300000D03*
D13*
X143920000Y-80300000D03*
X146460000Y-80300000D03*
X149000000Y-80300000D03*
%TD*%
D14*
%TO.C,SW8*%
X104300000Y-97800000D03*
X104300000Y-102300000D03*
D15*
X106790000Y-96540000D03*
X106790000Y-103550000D03*
%TD*%
D16*
%TO.C,R7*%
X153400000Y-45500000D03*
D17*
X153400000Y-43600000D03*
%TD*%
D18*
%TO.C,J1*%
X130000000Y-42900000D03*
D19*
X128000000Y-42900000D03*
%TD*%
D20*
%TO.C,U2*%
X106140000Y-64780000D03*
X108680000Y-64780000D03*
X111220000Y-64780000D03*
X113760000Y-64780000D03*
X116300000Y-64780000D03*
X118840000Y-64780000D03*
X121380000Y-64780000D03*
X123920000Y-64780000D03*
X126460000Y-64780000D03*
X129000000Y-64780000D03*
X131540000Y-64780000D03*
X134080000Y-64780000D03*
X134080000Y-49540000D03*
X131540000Y-49540000D03*
X129000000Y-49540000D03*
X126460000Y-49540000D03*
X123920000Y-49540000D03*
X121380000Y-49540000D03*
X118840000Y-49540000D03*
X116300000Y-49540000D03*
X113760000Y-49540000D03*
X111220000Y-49540000D03*
X108680000Y-49540000D03*
X106140000Y-49540000D03*
X103600000Y-49540000D03*
X103600000Y-64780000D03*
%TD*%
D21*
%TO.C,U5*%
X171500000Y-102500000D03*
X173500000Y-102500000D03*
X175500000Y-102500000D03*
D22*
X177500000Y-102500000D03*
%TD*%
D23*
%TO.C,H4*%
X104500000Y-108500000D03*
%TD*%
D20*
%TO.C,U3*%
X186380000Y-49460000D03*
X186380000Y-64700000D03*
X183840000Y-64700000D03*
X181300000Y-64700000D03*
X178760000Y-64700000D03*
X176220000Y-64700000D03*
X173680000Y-64700000D03*
X171140000Y-64700000D03*
X168600000Y-64700000D03*
X166060000Y-64700000D03*
X163520000Y-64700000D03*
X160980000Y-64700000D03*
X158440000Y-64700000D03*
X155900000Y-64700000D03*
X155900000Y-49460000D03*
X158440000Y-49460000D03*
X160980000Y-49460000D03*
X163520000Y-49460000D03*
X166060000Y-49460000D03*
X168600000Y-49460000D03*
X171140000Y-49460000D03*
X173680000Y-49460000D03*
X176220000Y-49460000D03*
X178760000Y-49460000D03*
X181300000Y-49460000D03*
X183840000Y-49460000D03*
%TD*%
D24*
%TO.C,J6*%
X150100000Y-104800000D03*
D25*
X155180000Y-104800000D03*
X160260000Y-104800000D03*
X165340000Y-104800000D03*
%TD*%
D14*
%TO.C,SW1*%
X104300000Y-69000000D03*
X104300000Y-73500000D03*
D15*
X106790000Y-67740000D03*
X106790000Y-74750000D03*
%TD*%
D17*
%TO.C,R1*%
X115995000Y-46700000D03*
D16*
X114095000Y-46700000D03*
%TD*%
D12*
%TO.C,J11*%
X128680000Y-99900000D03*
D13*
X126140000Y-99900000D03*
X123600000Y-99900000D03*
%TD*%
D26*
%TO.C,J9*%
X141200000Y-62200000D03*
D27*
X148800000Y-62200000D03*
%TD*%
D14*
%TO.C,SW7*%
X104300000Y-88200000D03*
X104300000Y-92700000D03*
D15*
X106790000Y-86940000D03*
X106790000Y-93950000D03*
%TD*%
D23*
%TO.C,H1*%
X104400000Y-42500000D03*
%TD*%
D17*
%TO.C,R6*%
X155900000Y-43600000D03*
D16*
X155900000Y-45500000D03*
%TD*%
D14*
%TO.C,SW6*%
X185900000Y-102400000D03*
X185900000Y-97900000D03*
D15*
X183410000Y-103660000D03*
X183410000Y-96650000D03*
%TD*%
D14*
%TO.C,SW5*%
X185900000Y-92700000D03*
X185900000Y-88200000D03*
D15*
X183410000Y-93960000D03*
X183410000Y-86950000D03*
%TD*%
D17*
%TO.C,R5*%
X158400000Y-43600000D03*
D16*
X158400000Y-45500000D03*
%TD*%
D14*
%TO.C,SW3*%
X185900000Y-73500000D03*
X185900000Y-69000000D03*
D15*
X183410000Y-74760000D03*
X183410000Y-67750000D03*
%TD*%
D13*
%TO.C,J3*%
X122900000Y-70600000D03*
X125440000Y-70600000D03*
X127980000Y-70600000D03*
D12*
X130520000Y-70600000D03*
%TD*%
D17*
%TO.C,R3*%
X126900000Y-46700000D03*
D16*
X128800000Y-46700000D03*
%TD*%
D17*
%TO.C,R2*%
X109895000Y-46700000D03*
D16*
X107995000Y-46700000D03*
%TD*%
D21*
%TO.C,U4*%
X112900000Y-102400000D03*
X114900000Y-102400000D03*
X116900000Y-102400000D03*
D22*
X118900000Y-102400000D03*
%TD*%
D14*
%TO.C,SW4*%
X185900000Y-83100000D03*
X185900000Y-78600000D03*
D15*
X183410000Y-84360000D03*
X183410000Y-77350000D03*
%TD*%
D13*
%TO.C,J13*%
X179805000Y-44775000D03*
X177265000Y-44775000D03*
X174725000Y-44775000D03*
X172185000Y-44775000D03*
X169645000Y-44775000D03*
X167105000Y-44775000D03*
X164565000Y-44775000D03*
D12*
X162025000Y-44775000D03*
%TD*%
D13*
%TO.C,J12*%
X123500000Y-107000000D03*
X126040000Y-107000000D03*
D12*
X128580000Y-107000000D03*
%TD*%
D23*
%TO.C,H3*%
X185400000Y-108500000D03*
%TD*%
D25*
%TO.C,J7*%
X143960000Y-104800000D03*
X138880000Y-104800000D03*
D24*
X133800000Y-104800000D03*
%TD*%
D12*
%TO.C,J4*%
X145600000Y-41600000D03*
%TD*%
D17*
%TO.C,R4*%
X120400000Y-46700000D03*
D16*
X122300000Y-46700000D03*
%TD*%
D23*
%TO.C,H2*%
X185400000Y-42500000D03*
%TD*%
D14*
%TO.C,SW2*%
X104300000Y-78600000D03*
X104300000Y-83100000D03*
D15*
X106790000Y-77340000D03*
X106790000Y-84350000D03*
%TD*%
D12*
%TO.C,J5*%
X167420000Y-70600000D03*
D13*
X164880000Y-70600000D03*
X162340000Y-70600000D03*
X159800000Y-70600000D03*
%TD*%
D12*
%TO.C,J8*%
X118500000Y-42400000D03*
D13*
X115960000Y-42400000D03*
X113420000Y-42400000D03*
%TD*%
M02*
