%TF.GenerationSoftware,KiCad,Pcbnew,8.0.6-8.0.6-0~ubuntu24.04.1*%
%TF.CreationDate,2025-07-02T20:36:46-04:00*%
%TF.ProjectId,meshbot_kicad_v1,6d657368-626f-4745-9f6b-696361645f76,rev?*%
%TF.SameCoordinates,Original*%
%TF.FileFunction,Copper,L1,Top*%
%TF.FilePolarity,Positive*%
%FSLAX46Y46*%
G04 Gerber Fmt 4.6, Leading zero omitted, Abs format (unit mm)*
G04 Created by KiCad (PCBNEW 8.0.6-8.0.6-0~ubuntu24.04.1) date 2025-07-02 20:36:46*
%MOMM*%
%LPD*%
G01*
G04 APERTURE LIST*
G04 Aperture macros list*
%AMRoundRect*
0 Rectangle with rounded corners*
0 $1 Rounding radius*
0 $2 $3 $4 $5 $6 $7 $8 $9 X,Y pos of 4 corners*
0 Add a 4 corners polygon primitive as box body*
4,1,4,$2,$3,$4,$5,$6,$7,$8,$9,$2,$3,0*
0 Add four circle primitives for the rounded corners*
1,1,$1+$1,$2,$3*
1,1,$1+$1,$4,$5*
1,1,$1+$1,$6,$7*
1,1,$1+$1,$8,$9*
0 Add four rect primitives between the rounded corners*
20,1,$1+$1,$2,$3,$4,$5,0*
20,1,$1+$1,$4,$5,$6,$7,0*
20,1,$1+$1,$6,$7,$8,$9,0*
20,1,$1+$1,$8,$9,$2,$3,0*%
G04 Aperture macros list end*
%TA.AperFunction,ComponentPad*%
%ADD10R,1.800000X1.800000*%
%TD*%
%TA.AperFunction,ComponentPad*%
%ADD11C,1.800000*%
%TD*%
%TA.AperFunction,ComponentPad*%
%ADD12R,1.700000X1.700000*%
%TD*%
%TA.AperFunction,ComponentPad*%
%ADD13O,1.700000X1.700000*%
%TD*%
%TA.AperFunction,ComponentPad*%
%ADD14C,1.750000*%
%TD*%
%TA.AperFunction,ComponentPad*%
%ADD15C,2.100000*%
%TD*%
%TA.AperFunction,ComponentPad*%
%ADD16C,1.400000*%
%TD*%
%TA.AperFunction,ComponentPad*%
%ADD17O,1.400000X1.400000*%
%TD*%
%TA.AperFunction,ComponentPad*%
%ADD18RoundRect,0.250000X0.350000X0.625000X-0.350000X0.625000X-0.350000X-0.625000X0.350000X-0.625000X0*%
%TD*%
%TA.AperFunction,ComponentPad*%
%ADD19O,1.200000X1.750000*%
%TD*%
%TA.AperFunction,ComponentPad*%
%ADD20C,1.752600*%
%TD*%
%TA.AperFunction,ComponentPad*%
%ADD21O,1.350000X1.350000*%
%TD*%
%TA.AperFunction,ComponentPad*%
%ADD22R,1.350000X1.350000*%
%TD*%
%TA.AperFunction,ComponentPad*%
%ADD23R,2.600000X2.600000*%
%TD*%
%TA.AperFunction,ComponentPad*%
%ADD24C,2.600000*%
%TD*%
%TA.AperFunction,ComponentPad*%
%ADD25R,2.000000X2.000000*%
%TD*%
%TA.AperFunction,ComponentPad*%
%ADD26C,2.000000*%
%TD*%
%TA.AperFunction,SMDPad,CuDef*%
%ADD27RoundRect,0.300000X0.000010X-0.500000X0.000010X0.500000X-0.000010X0.500000X-0.000010X-0.500000X0*%
%TD*%
%TA.AperFunction,ViaPad*%
%ADD28C,0.600000*%
%TD*%
%TA.AperFunction,Conductor*%
%ADD29C,0.300000*%
%TD*%
%TA.AperFunction,Conductor*%
%ADD30C,0.700000*%
%TD*%
%TA.AperFunction,Conductor*%
%ADD31C,0.400000*%
%TD*%
G04 APERTURE END LIST*
D10*
%TO.P,D2,1,K*%
%TO.N,GND*%
X136400000Y-41260000D03*
D11*
%TO.P,D2,2,A*%
%TO.N,Net-(D2-A)*%
X136400000Y-43800000D03*
%TD*%
D12*
%TO.P,J2,1,Pin_1*%
%TO.N,3V3*%
X141380000Y-80300000D03*
D13*
%TO.P,J2,2,Pin_2*%
%TO.N,GPS_RX*%
X143920000Y-80300000D03*
%TO.P,J2,3,Pin_3*%
%TO.N,GPS_TX*%
X146460000Y-80300000D03*
%TO.P,J2,4,Pin_4*%
%TO.N,GND*%
X149000000Y-80300000D03*
%TD*%
D14*
%TO.P,SW8,2,2*%
%TO.N,GND*%
X104300000Y-97800000D03*
%TO.P,SW8,1,1*%
%TO.N,MESH_BUTTON_C*%
X104300000Y-102300000D03*
D15*
%TO.P,SW8,*%
%TO.N,*%
X106790000Y-96540000D03*
X106790000Y-103550000D03*
%TD*%
D16*
%TO.P,R7,1*%
%TO.N,Net-(D2-A)*%
X153400000Y-45500000D03*
D17*
%TO.P,R7,2*%
%TO.N,LED_A*%
X153400000Y-43600000D03*
%TD*%
D18*
%TO.P,J1,1,Pin_1*%
%TO.N,V_EXT*%
X130000000Y-42900000D03*
D19*
%TO.P,J1,2,Pin_2*%
%TO.N,GND*%
X128000000Y-42900000D03*
%TD*%
D20*
%TO.P,U2,1,TX0/P0.06*%
%TO.N,MESH_TX*%
X106140000Y-64780000D03*
%TO.P,U2,2,RX1/P0.08*%
%TO.N,MESH_RX*%
X108680000Y-64780000D03*
%TO.P,U2,3,GND*%
%TO.N,GND*%
X111220000Y-64780000D03*
%TO.P,U2,4,GND*%
X113760000Y-64780000D03*
%TO.P,U2,5,P0.17*%
%TO.N,RF_SW*%
X116300000Y-64780000D03*
%TO.P,U2,6,P0.20*%
%TO.N,GPS_RX*%
X118840000Y-64780000D03*
%TO.P,U2,7,P0.22*%
%TO.N,GPS_TX*%
X121380000Y-64780000D03*
%TO.P,U2,8,P0.24*%
%TO.N,MESH_BUTTON_A*%
X123920000Y-64780000D03*
%TO.P,U2,9,P1.00*%
%TO.N,MESH_BUTTON_B*%
X126460000Y-64780000D03*
%TO.P,U2,10,P0.11*%
%TO.N,SCL_MESH*%
X129000000Y-64780000D03*
%TO.P,U2,11,P1.04*%
%TO.N,SDA_MESH*%
X131540000Y-64780000D03*
%TO.P,U2,12,P1.06*%
%TO.N,MESH_BUTTON_C*%
X134080000Y-64780000D03*
%TO.P,U2,13,NFC1/P0.09*%
%TO.N,LORA_RST*%
X134080000Y-49540000D03*
%TO.P,U2,14,NFC2/P0.10*%
%TO.N,DIO1*%
X131540000Y-49540000D03*
%TO.P,U2,15,P1.11*%
%TO.N,SCK*%
X129000000Y-49540000D03*
%TO.P,U2,16,P1.13*%
%TO.N,CS*%
X126460000Y-49540000D03*
%TO.P,U2,17,P1.15*%
%TO.N,MOSI*%
X123920000Y-49540000D03*
%TO.P,U2,18,AIN0/P0.02*%
%TO.N,MISO*%
X121380000Y-49540000D03*
%TO.P,U2,19,AIN5/P0.29*%
%TO.N,BUSY*%
X118840000Y-49540000D03*
%TO.P,U2,20,AIN7/P0.31*%
%TO.N,MESH_BATT_MEASURE*%
X116300000Y-49540000D03*
%TO.P,U2,21,VCC*%
%TO.N,3V3*%
X113760000Y-49540000D03*
%TO.P,U2,22,RST*%
%TO.N,MESH_RST*%
X111220000Y-49540000D03*
%TO.P,U2,23,GND*%
%TO.N,GND*%
X108680000Y-49540000D03*
%TO.P,U2,24,BAT*%
%TO.N,BAT*%
X106140000Y-49540000D03*
%TO.P,U2,25,BAT*%
X103600000Y-49540000D03*
%TO.P,U2,26,GND*%
%TO.N,GND*%
X103600000Y-64780000D03*
%TD*%
D21*
%TO.P,U5,1,GND*%
%TO.N,GND*%
X171500000Y-102500000D03*
%TO.P,U5,2,VCC*%
%TO.N,3V3*%
X173500000Y-102500000D03*
%TO.P,U5,3,SDA*%
%TO.N,SDA*%
X175500000Y-102500000D03*
D22*
%TO.P,U5,4,SCL*%
%TO.N,SCL*%
X177500000Y-102500000D03*
%TD*%
D20*
%TO.P,U3,26,GND*%
%TO.N,GND*%
X186380000Y-49460000D03*
%TO.P,U3,25,BAT*%
%TO.N,BAT*%
X186380000Y-64700000D03*
%TO.P,U3,24,BAT*%
X183840000Y-64700000D03*
%TO.P,U3,23,GND*%
%TO.N,GND*%
X181300000Y-64700000D03*
%TO.P,U3,22,RST*%
%TO.N,MICRO_RST*%
X178760000Y-64700000D03*
%TO.P,U3,21,VCC*%
%TO.N,3V3*%
X176220000Y-64700000D03*
%TO.P,U3,20,AIN7/P0.31*%
%TO.N,BUZZER*%
X173680000Y-64700000D03*
%TO.P,U3,19,AIN5/P0.29*%
%TO.N,P0.29*%
X171140000Y-64700000D03*
%TO.P,U3,18,AIN0/P0.02*%
%TO.N,P0.02*%
X168600000Y-64700000D03*
%TO.P,U3,17,P1.15*%
%TO.N,BUTTON_B*%
X166060000Y-64700000D03*
%TO.P,U3,16,P1.13*%
%TO.N,LED_A*%
X163520000Y-64700000D03*
%TO.P,U3,15,P1.11*%
%TO.N,BUTTON_C*%
X160980000Y-64700000D03*
%TO.P,U3,14,NFC2/P0.10*%
%TO.N,P0.10*%
X158440000Y-64700000D03*
%TO.P,U3,13,NFC1/P0.09*%
%TO.N,P0.09*%
X155900000Y-64700000D03*
%TO.P,U3,12,P1.06*%
%TO.N,BUTTON_A*%
X155900000Y-49460000D03*
%TO.P,U3,11,P1.04*%
%TO.N,SDA*%
X158440000Y-49460000D03*
%TO.P,U3,10,P0.11*%
%TO.N,SCL*%
X160980000Y-49460000D03*
%TO.P,U3,9,P1.00*%
%TO.N,SERVO_B*%
X163520000Y-49460000D03*
%TO.P,U3,8,P0.24*%
%TO.N,SERVO_A*%
X166060000Y-49460000D03*
%TO.P,U3,7,P0.22*%
%TO.N,UART_TX*%
X168600000Y-49460000D03*
%TO.P,U3,6,P0.20*%
%TO.N,UART_RX*%
X171140000Y-49460000D03*
%TO.P,U3,5,P0.17*%
%TO.N,1WIRE*%
X173680000Y-49460000D03*
%TO.P,U3,4,GND*%
%TO.N,GND*%
X176220000Y-49460000D03*
%TO.P,U3,3,GND*%
X178760000Y-49460000D03*
%TO.P,U3,2,RX1/P0.08*%
%TO.N,MESH_TX*%
X181300000Y-49460000D03*
%TO.P,U3,1,TX0/P0.06*%
%TO.N,MESH_RX*%
X183840000Y-49460000D03*
%TD*%
D23*
%TO.P,J6,1,Pin_1*%
%TO.N,GND*%
X150100000Y-104800000D03*
D24*
%TO.P,J6,2,Pin_2*%
%TO.N,3V3*%
X155180000Y-104800000D03*
%TO.P,J6,3,Pin_3*%
%TO.N,UART_RX*%
X160260000Y-104800000D03*
%TO.P,J6,4,Pin_4*%
%TO.N,UART_TX*%
X165340000Y-104800000D03*
%TD*%
D14*
%TO.P,SW1,2,2*%
%TO.N,GND*%
X104300000Y-69000000D03*
%TO.P,SW1,1,1*%
%TO.N,MESH_RST*%
X104300000Y-73500000D03*
D15*
%TO.P,SW1,*%
%TO.N,*%
X106790000Y-67740000D03*
X106790000Y-74750000D03*
%TD*%
D17*
%TO.P,R1,2*%
%TO.N,GND*%
X115995000Y-46700000D03*
D16*
%TO.P,R1,1*%
%TO.N,MESH_BATT_MEASURE*%
X114095000Y-46700000D03*
%TD*%
D12*
%TO.P,J11,1,Pin_1*%
%TO.N,SERVO_A*%
X128680000Y-99900000D03*
D13*
%TO.P,J11,2,Pin_2*%
%TO.N,BAT*%
X126140000Y-99900000D03*
%TO.P,J11,3,Pin_3*%
%TO.N,GND*%
X123600000Y-99900000D03*
%TD*%
D25*
%TO.P,J9,1,Pin_1*%
%TO.N,BUZZER*%
X141200000Y-62200000D03*
D26*
%TO.P,J9,2,Pin_2*%
%TO.N,GND*%
X148800000Y-62200000D03*
%TD*%
D14*
%TO.P,SW7,2,2*%
%TO.N,GND*%
X104300000Y-88200000D03*
%TO.P,SW7,1,1*%
%TO.N,MESH_BUTTON_B*%
X104300000Y-92700000D03*
D15*
%TO.P,SW7,*%
%TO.N,*%
X106790000Y-86940000D03*
X106790000Y-93950000D03*
%TD*%
D17*
%TO.P,R6,2*%
%TO.N,3V3*%
X155900000Y-43600000D03*
D16*
%TO.P,R6,1*%
%TO.N,SDA*%
X155900000Y-45500000D03*
%TD*%
D14*
%TO.P,SW6,2,2*%
%TO.N,GND*%
X185900000Y-102400000D03*
%TO.P,SW6,1,1*%
%TO.N,BUTTON_C*%
X185900000Y-97900000D03*
D15*
%TO.P,SW6,*%
%TO.N,*%
X183410000Y-103660000D03*
X183410000Y-96650000D03*
%TD*%
D14*
%TO.P,SW5,2,2*%
%TO.N,GND*%
X185900000Y-92700000D03*
%TO.P,SW5,1,1*%
%TO.N,BUTTON_B*%
X185900000Y-88200000D03*
D15*
%TO.P,SW5,*%
%TO.N,*%
X183410000Y-93960000D03*
X183410000Y-86950000D03*
%TD*%
D17*
%TO.P,R5,2*%
%TO.N,3V3*%
X158400000Y-43600000D03*
D16*
%TO.P,R5,1*%
%TO.N,SCL*%
X158400000Y-45500000D03*
%TD*%
D14*
%TO.P,SW3,2,2*%
%TO.N,GND*%
X185900000Y-73500000D03*
%TO.P,SW3,1,1*%
%TO.N,MICRO_RST*%
X185900000Y-69000000D03*
D15*
%TO.P,SW3,*%
%TO.N,*%
X183410000Y-74760000D03*
X183410000Y-67750000D03*
%TD*%
D13*
%TO.P,J3,1,Pin_1*%
%TO.N,3V3*%
X122900000Y-70600000D03*
%TO.P,J3,2,Pin_2*%
%TO.N,GND*%
X125440000Y-70600000D03*
%TO.P,J3,3,Pin_3*%
%TO.N,SCL_MESH*%
X127980000Y-70600000D03*
D12*
%TO.P,J3,4,Pin_4*%
%TO.N,SDA_MESH*%
X130520000Y-70600000D03*
%TD*%
D17*
%TO.P,R3,2*%
%TO.N,3V3*%
X126900000Y-46700000D03*
D16*
%TO.P,R3,1*%
%TO.N,SCL_MESH*%
X128800000Y-46700000D03*
%TD*%
D17*
%TO.P,R2,2*%
%TO.N,MESH_BATT_MEASURE*%
X109895000Y-46700000D03*
D16*
%TO.P,R2,1*%
%TO.N,BAT*%
X107995000Y-46700000D03*
%TD*%
D21*
%TO.P,U4,1,GND*%
%TO.N,GND*%
X112900000Y-102400000D03*
%TO.P,U4,2,VCC*%
%TO.N,3V3*%
X114900000Y-102400000D03*
%TO.P,U4,3,SDA*%
%TO.N,SDA_MESH*%
X116900000Y-102400000D03*
D22*
%TO.P,U4,4,SCL*%
%TO.N,SCL_MESH*%
X118900000Y-102400000D03*
%TD*%
D14*
%TO.P,SW4,2,2*%
%TO.N,GND*%
X185900000Y-83100000D03*
%TO.P,SW4,1,1*%
%TO.N,BUTTON_A*%
X185900000Y-78600000D03*
D15*
%TO.P,SW4,*%
%TO.N,*%
X183410000Y-84360000D03*
X183410000Y-77350000D03*
%TD*%
D13*
%TO.P,J13,8,Pin_8*%
%TO.N,GND*%
X179805000Y-44775000D03*
%TO.P,J13,7,Pin_7*%
%TO.N,P0.29*%
X177265000Y-44775000D03*
%TO.P,J13,6,Pin_6*%
%TO.N,P0.2*%
X174725000Y-44775000D03*
%TO.P,J13,5,Pin_5*%
%TO.N,SCL*%
X172185000Y-44775000D03*
%TO.P,J13,4,Pin_4*%
%TO.N,SDA*%
X169645000Y-44775000D03*
%TO.P,J13,3,Pin_3*%
%TO.N,3V3*%
X167105000Y-44775000D03*
%TO.P,J13,2,Pin_2*%
%TO.N,BAT*%
X164565000Y-44775000D03*
D12*
%TO.P,J13,1,Pin_1*%
%TO.N,V_EXT*%
X162025000Y-44775000D03*
%TD*%
D13*
%TO.P,J12,3,Pin_3*%
%TO.N,GND*%
X123500000Y-107000000D03*
%TO.P,J12,2,Pin_2*%
%TO.N,BAT*%
X126040000Y-107000000D03*
D12*
%TO.P,J12,1,Pin_1*%
%TO.N,SERVO_B*%
X128580000Y-107000000D03*
%TD*%
D27*
%TO.P,U1,1,RF_SW1*%
%TO.N,RF_SW*%
X140510000Y-54400000D03*
%TO.P,U1,2,MISO*%
%TO.N,MISO*%
X141780000Y-54400000D03*
%TO.P,U1,3,MOSI*%
%TO.N,MOSI*%
X143050000Y-54400000D03*
%TO.P,U1,4,SCK*%
%TO.N,SCK*%
X144320000Y-54400000D03*
%TO.P,U1,5,RST*%
%TO.N,LORA_RST*%
X145590000Y-54400000D03*
%TO.P,U1,6,NSS*%
%TO.N,CS*%
X146860000Y-54400000D03*
%TO.P,U1,7,GND1*%
%TO.N,GND*%
X148130000Y-54400000D03*
%TO.P,U1,8,VCC*%
%TO.N,3V3*%
X149400000Y-54400000D03*
%TO.P,U1,9,ANT*%
%TO.N,ANT*%
X145590000Y-44000000D03*
%TO.P,U1,10,GND2*%
%TO.N,GND*%
X144320000Y-44000000D03*
%TO.P,U1,11,BUSY*%
%TO.N,BUSY*%
X143050000Y-44000000D03*
%TO.P,U1,12,DIO1*%
%TO.N,DIO1*%
X141780000Y-44000000D03*
%TD*%
D24*
%TO.P,J7,3,Pin_3*%
%TO.N,GND*%
X143960000Y-104800000D03*
%TO.P,J7,2,Pin_2*%
%TO.N,3V3*%
X138880000Y-104800000D03*
D23*
%TO.P,J7,1,Pin_1*%
%TO.N,1WIRE*%
X133800000Y-104800000D03*
%TD*%
D12*
%TO.P,J4,1,Pin_1*%
%TO.N,ANT*%
X145600000Y-41600000D03*
%TD*%
D17*
%TO.P,R4,2*%
%TO.N,3V3*%
X120400000Y-46700000D03*
D16*
%TO.P,R4,1*%
%TO.N,SDA_MESH*%
X122300000Y-46700000D03*
%TD*%
D14*
%TO.P,SW2,2,2*%
%TO.N,GND*%
X104300000Y-78600000D03*
%TO.P,SW2,1,1*%
%TO.N,MESH_BUTTON_A*%
X104300000Y-83100000D03*
D15*
%TO.P,SW2,*%
%TO.N,*%
X106790000Y-77340000D03*
X106790000Y-84350000D03*
%TD*%
D12*
%TO.P,J5,4,Pin_4*%
%TO.N,SDA*%
X167420000Y-70600000D03*
D13*
%TO.P,J5,3,Pin_3*%
%TO.N,SCL*%
X164880000Y-70600000D03*
%TO.P,J5,2,Pin_2*%
%TO.N,GND*%
X162340000Y-70600000D03*
%TO.P,J5,1,Pin_1*%
%TO.N,3V3*%
X159800000Y-70600000D03*
%TD*%
D12*
%TO.P,J8,1,Pin_1*%
%TO.N,BAT*%
X118500000Y-42400000D03*
D13*
%TO.P,J8,2,Pin_2*%
%TO.N,V_EXT*%
X115960000Y-42400000D03*
%TO.P,J8,3,Pin_3*%
%TO.N,unconnected-(J8-Pin_3-Pad3)*%
X113420000Y-42400000D03*
%TD*%
D28*
%TO.N,Net-(D2-A)*%
X138000000Y-46000000D03*
%TO.N,BAT*%
X134800000Y-45400000D03*
%TO.N,GND*%
X129000000Y-41200000D03*
%TO.N,DIO1*%
X140000000Y-43200000D03*
%TO.N,BAT*%
X123800000Y-40400000D03*
X125000000Y-45000000D03*
%TO.N,GND*%
X120600000Y-44800000D03*
%TO.N,3V3*%
X123600000Y-46000000D03*
%TO.N,V_EXT*%
X126800000Y-43800000D03*
X116000000Y-43800000D03*
%TO.N,MICRO_RST*%
X179200000Y-69400000D03*
%TO.N,BUSY*%
X142400000Y-48000000D03*
%TO.N,DIO1*%
X140200000Y-44200000D03*
X132400000Y-44200000D03*
%TO.N,RF_SW*%
X117000000Y-58000000D03*
X139400000Y-57000000D03*
%TO.N,MISO*%
X121400000Y-52400000D03*
X141000000Y-53050000D03*
%TO.N,MOSI*%
X124000000Y-51600000D03*
X142600000Y-52400000D03*
%TO.N,LORA_RST*%
X143400000Y-49400000D03*
%TO.N,SCK*%
X144200000Y-52200000D03*
X129600000Y-51650000D03*
%TO.N,CS*%
X146000000Y-51000000D03*
%TO.N,MESH_RST*%
X112600000Y-72400000D03*
%TO.N,3V3*%
X103600000Y-52200000D03*
X102200000Y-69800000D03*
%TO.N,GND*%
X108600000Y-69400000D03*
X109400000Y-78800000D03*
%TO.N,3V3*%
X124000000Y-75600000D03*
X141380000Y-75600000D03*
%TO.N,GPS_RX*%
X116000000Y-76200000D03*
X143200000Y-76800000D03*
%TO.N,SDA_MESH*%
X122800000Y-54600000D03*
X130600000Y-55600000D03*
%TO.N,GPS_TX*%
X121400000Y-59200000D03*
X145200000Y-58600000D03*
%TO.N,MESH_BUTTON_A*%
X124800000Y-63200000D03*
X136000000Y-82200000D03*
X135200000Y-63000000D03*
%TO.N,MESH_BUTTON_B*%
X118000000Y-91200000D03*
X120000000Y-67950000D03*
X125400000Y-67800000D03*
%TO.N,SCL_MESH*%
X119800000Y-72800000D03*
X126800000Y-72600000D03*
%TO.N,SDA_MESH*%
X129800000Y-68600000D03*
X118200000Y-68600000D03*
%TO.N,MESH_BUTTON_C*%
X134800000Y-81000000D03*
X112400000Y-81800000D03*
X108600000Y-101800000D03*
%TO.N,SDA*%
X175600000Y-95600000D03*
X168200000Y-94400000D03*
%TO.N,SCL*%
X160400000Y-46000000D03*
X164800000Y-47000000D03*
%TO.N,BUZZER*%
X142200000Y-59600000D03*
X173200000Y-59650000D03*
%TO.N,LED_A*%
X155600000Y-61600000D03*
X154600000Y-44200000D03*
X163000000Y-61800000D03*
%TO.N,BUTTON_A*%
X157200000Y-77400000D03*
%TO.N,SDA*%
X168800000Y-53600000D03*
%TO.N,SCL*%
X174600000Y-46750000D03*
X172000000Y-46400000D03*
X175000000Y-51400000D03*
X177000000Y-52000000D03*
%TO.N,SERVO_B*%
X163800000Y-61400000D03*
X169800000Y-61800000D03*
X169000000Y-108400000D03*
%TO.N,UART_TX*%
X162800000Y-51800000D03*
X168400000Y-51400000D03*
%TO.N,BUTTON_C*%
X161400000Y-97400000D03*
%TO.N,BUTTON_B*%
X166000000Y-87600000D03*
%TO.N,P0.29*%
X177200000Y-47000000D03*
X172800000Y-47800000D03*
%TO.N,SCL*%
X161000000Y-52000000D03*
X164000000Y-52600000D03*
%TO.N,SDA*%
X166800000Y-53600000D03*
X158400000Y-52800000D03*
%TO.N,UART_RX*%
X159400000Y-76600000D03*
X147000000Y-76000000D03*
X170800000Y-54800000D03*
X147400000Y-57000000D03*
%TO.N,SERVO_A*%
X129600000Y-88400000D03*
X166000000Y-55800000D03*
X151800000Y-57000000D03*
X151000000Y-87200000D03*
%TO.N,1WIRE*%
X173800000Y-56400000D03*
X134200000Y-73200000D03*
X138600000Y-57800000D03*
X138200000Y-72600000D03*
%TO.N,GND*%
X144000000Y-100000000D03*
%TO.N,3V3*%
X139000000Y-102000000D03*
X155180000Y-102000000D03*
%TO.N,GND*%
X150200000Y-100200000D03*
X171500000Y-100000000D03*
%TO.N,3V3*%
X155400000Y-98800000D03*
X173500000Y-98600000D03*
X176200000Y-69600000D03*
X173600000Y-69600000D03*
%TO.N,GND*%
X180600000Y-72400000D03*
X171400000Y-72400000D03*
X187400000Y-75600000D03*
X162400000Y-80200000D03*
X171200000Y-80200000D03*
%TO.N,SERVO_B*%
X162800000Y-108400000D03*
X130000000Y-109600000D03*
%TO.N,BAT*%
X137400000Y-87000000D03*
X126400000Y-87600000D03*
%TO.N,GND*%
X148800000Y-68400000D03*
X162400000Y-68400000D03*
%TO.N,3V3*%
X152400000Y-58800000D03*
X152400000Y-70600000D03*
X141400000Y-70800000D03*
%TO.N,GND*%
X149000000Y-78000000D03*
X125600000Y-77800000D03*
X123600000Y-78000000D03*
%TO.N,3V3*%
X115000000Y-70400000D03*
%TO.N,GND*%
X112800000Y-99900000D03*
X104400000Y-99600000D03*
X102400000Y-97800000D03*
X102400000Y-88200000D03*
X102400000Y-78800000D03*
X148200000Y-48400000D03*
X144400000Y-48400000D03*
%TO.N,3V3*%
X159800000Y-43600000D03*
X159800000Y-41300000D03*
%TO.N,GND*%
X111200000Y-61800000D03*
X113600000Y-61800000D03*
X103400000Y-61800000D03*
X108800000Y-61800000D03*
%TO.N,3V3*%
X149600000Y-58800000D03*
X176200000Y-58800000D03*
%TO.N,BAT*%
X188200000Y-40200000D03*
X188200000Y-61400000D03*
X163400000Y-42600000D03*
X163400000Y-40400000D03*
X186400000Y-61400000D03*
X183800000Y-61400000D03*
%TO.N,GND*%
X181200000Y-58700000D03*
X178900000Y-58700000D03*
X186200000Y-46700000D03*
X178400000Y-46500000D03*
X179800000Y-46500000D03*
%TO.N,3V3*%
X149500000Y-41300000D03*
%TO.N,BAT*%
X151800000Y-45200000D03*
X151800000Y-42500000D03*
%TO.N,3V3*%
X166100000Y-41300000D03*
%TO.N,V_EXT*%
X162000000Y-46900000D03*
X130500000Y-46900000D03*
%TO.N,GND*%
X120600000Y-42900000D03*
X111200000Y-47900000D03*
X116000000Y-45400000D03*
X108700000Y-47900000D03*
X111200000Y-45400000D03*
%TO.N,BAT*%
X103700000Y-46700000D03*
X107800000Y-40500000D03*
X118500000Y-40500000D03*
%TO.N,MESH_TX*%
X180200000Y-51000000D03*
X107200000Y-60400000D03*
X180000000Y-59800000D03*
%TO.N,MESH_RX*%
X154000000Y-63500000D03*
X182200000Y-62600000D03*
X109500000Y-67000000D03*
X153500000Y-67000000D03*
%TD*%
D29*
%TO.N,Net-(D2-A)*%
X136800000Y-46000000D02*
X138000000Y-46000000D01*
D30*
%TO.N,BAT*%
X137400000Y-86400000D02*
X137400000Y-73002082D01*
X137400000Y-73002082D02*
X136700000Y-72302082D01*
X136700000Y-72302082D02*
X136700000Y-47300000D01*
X136700000Y-47300000D02*
X134800000Y-45400000D01*
D29*
%TO.N,Net-(D2-A)*%
X136800000Y-46000000D02*
X136400000Y-45600000D01*
X136400000Y-45600000D02*
X136400000Y-43800000D01*
D30*
%TO.N,GND*%
X128000000Y-42200000D02*
X129000000Y-41200000D01*
X128000000Y-42900000D02*
X128000000Y-42200000D01*
D29*
%TO.N,DIO1*%
X140000000Y-43200000D02*
X140000000Y-44000000D01*
X140000000Y-44000000D02*
X140200000Y-44200000D01*
%TO.N,SDA*%
X158440000Y-49460000D02*
X158440000Y-48040000D01*
X158440000Y-48040000D02*
X155900000Y-45500000D01*
D30*
%TO.N,BAT*%
X125000000Y-41600000D02*
X123800000Y-40400000D01*
X125000000Y-45000000D02*
X125000000Y-41600000D01*
%TO.N,GND*%
X120600000Y-44800000D02*
X120600000Y-42900000D01*
%TO.N,3V3*%
X124300000Y-46700000D02*
X123600000Y-46000000D01*
X126900000Y-46700000D02*
X124300000Y-46700000D01*
%TO.N,V_EXT*%
X127325000Y-44325000D02*
X128575000Y-44325000D01*
X115960000Y-42400000D02*
X115960000Y-43760000D01*
X115960000Y-43760000D02*
X116000000Y-43800000D01*
X126800000Y-43800000D02*
X127325000Y-44325000D01*
X128575000Y-44325000D02*
X130000000Y-42900000D01*
D29*
%TO.N,SCL_MESH*%
X127980000Y-70600000D02*
X127980000Y-65800000D01*
X127980000Y-65800000D02*
X129000000Y-64780000D01*
%TO.N,MESH_BATT_MEASURE*%
X114095000Y-46700000D02*
X116300000Y-48905000D01*
X116300000Y-48905000D02*
X116300000Y-49540000D01*
D30*
%TO.N,GND*%
X148800000Y-62200000D02*
X148800000Y-61800000D01*
X148800000Y-61800000D02*
X148550000Y-61550000D01*
X148550000Y-61550000D02*
X148550000Y-54820000D01*
X148550000Y-54820000D02*
X148130000Y-54400000D01*
D29*
%TO.N,MICRO_RST*%
X178760000Y-68960000D02*
X179200000Y-69400000D01*
X178760000Y-64700000D02*
X178760000Y-68960000D01*
%TO.N,BUSY*%
X143000000Y-45600000D02*
X143000000Y-47400000D01*
X143000000Y-47400000D02*
X142400000Y-48000000D01*
X143050000Y-44000000D02*
X143050000Y-44799999D01*
X143050000Y-44799999D02*
X143000000Y-44849999D01*
X143000000Y-44849999D02*
X143000000Y-45600000D01*
%TO.N,DIO1*%
X131540000Y-49540000D02*
X131540000Y-45060000D01*
X131540000Y-45060000D02*
X132400000Y-44200000D01*
X140200000Y-44200000D02*
X141580000Y-44200000D01*
X141580000Y-44200000D02*
X141780000Y-44000000D01*
%TO.N,RF_SW*%
X140000000Y-57000000D02*
X140510000Y-56490000D01*
X116300000Y-58700000D02*
X117000000Y-58000000D01*
X116300000Y-64780000D02*
X116300000Y-58700000D01*
X139400000Y-57000000D02*
X140000000Y-57000000D01*
X140510000Y-56490000D02*
X140510000Y-54400000D01*
%TO.N,MISO*%
X121400000Y-49560000D02*
X121380000Y-49540000D01*
X141780000Y-54400000D02*
X141780000Y-53830000D01*
X141780000Y-53830000D02*
X141000000Y-53050000D01*
X121400000Y-52400000D02*
X121400000Y-49560000D01*
%TO.N,MOSI*%
X124000000Y-51600000D02*
X124000000Y-49620000D01*
X143050000Y-54400000D02*
X143050000Y-52850000D01*
X143050000Y-52850000D02*
X142600000Y-52400000D01*
X124000000Y-49620000D02*
X123920000Y-49540000D01*
%TO.N,LORA_RST*%
X145290000Y-51290000D02*
X143400000Y-49400000D01*
X145290000Y-54100000D02*
X145290000Y-51290000D01*
X145590000Y-54400000D02*
X145290000Y-54100000D01*
%TO.N,SCK*%
X129000000Y-49540000D02*
X129000000Y-51050000D01*
X129000000Y-51050000D02*
X129600000Y-51650000D01*
X144200000Y-52200000D02*
X144200000Y-54280000D01*
X144200000Y-54280000D02*
X144320000Y-54400000D01*
%TO.N,CS*%
X146800000Y-51800000D02*
X146000000Y-51000000D01*
X146860000Y-54400000D02*
X146860000Y-53600001D01*
X146860000Y-53600001D02*
X146800000Y-53540001D01*
X146800000Y-52400000D02*
X146800000Y-51800000D01*
X146800000Y-53540001D02*
X146800000Y-52400000D01*
%TO.N,MESH_RST*%
X112533700Y-50853700D02*
X111220000Y-49540000D01*
X112600000Y-72400000D02*
X112533700Y-72333700D01*
X112533700Y-72333700D02*
X112533700Y-50853700D01*
D30*
%TO.N,3V3*%
X102173700Y-53626300D02*
X103600000Y-52200000D01*
X102173700Y-69773700D02*
X102173700Y-53626300D01*
X102200000Y-69800000D02*
X102173700Y-69773700D01*
%TO.N,GND*%
X109400000Y-70200000D02*
X108600000Y-69400000D01*
X109400000Y-78800000D02*
X109400000Y-70200000D01*
%TO.N,3V3*%
X122900000Y-74500000D02*
X124000000Y-75600000D01*
X122900000Y-70600000D02*
X122900000Y-74500000D01*
X141380000Y-80300000D02*
X141380000Y-75600000D01*
X141380000Y-75600000D02*
X141380000Y-70820000D01*
D29*
%TO.N,GPS_RX*%
X116000000Y-67620000D02*
X118840000Y-64780000D01*
X143920000Y-80300000D02*
X143920000Y-77520000D01*
X143920000Y-77520000D02*
X143200000Y-76800000D01*
X116000000Y-76200000D02*
X116000000Y-67620000D01*
%TO.N,SDA_MESH*%
X122606300Y-47006300D02*
X122300000Y-46700000D01*
X131540000Y-64780000D02*
X131540000Y-56540000D01*
X131540000Y-56540000D02*
X130600000Y-55600000D01*
X122800000Y-54600000D02*
X122606300Y-54406300D01*
X122606300Y-54406300D02*
X122606300Y-47006300D01*
X131540000Y-64780000D02*
X131540000Y-69580000D01*
X131540000Y-69580000D02*
X130520000Y-70600000D01*
%TO.N,SCL_MESH*%
X129000000Y-64780000D02*
X127773700Y-63553700D01*
X127773700Y-63553700D02*
X127773700Y-47726300D01*
X127773700Y-47726300D02*
X128800000Y-46700000D01*
%TO.N,GPS_TX*%
X121400000Y-59800000D02*
X121380000Y-59820000D01*
X146200000Y-80040000D02*
X146200000Y-69600000D01*
X146460000Y-80300000D02*
X146200000Y-80040000D01*
X146200000Y-69600000D02*
X146200000Y-59600000D01*
X121400000Y-59200000D02*
X121400000Y-59800000D01*
X121380000Y-59820000D02*
X121380000Y-64780000D01*
X146200000Y-59600000D02*
X145200000Y-58600000D01*
%TO.N,MESH_BUTTON_A*%
X124800000Y-63200000D02*
X124400000Y-63200000D01*
X124400000Y-63200000D02*
X123920000Y-63680000D01*
X123920000Y-63680000D02*
X123920000Y-64780000D01*
X136000000Y-82200000D02*
X136000000Y-63800000D01*
X136000000Y-63800000D02*
X135200000Y-63000000D01*
%TO.N,MESH_BUTTON_B*%
X118000000Y-91200000D02*
X118000000Y-70400000D01*
X118000000Y-69950000D02*
X120000000Y-67950000D01*
X118000000Y-70400000D02*
X118000000Y-69950000D01*
X126460000Y-66740000D02*
X126460000Y-64780000D01*
X125400000Y-67800000D02*
X126460000Y-66740000D01*
%TO.N,SCL_MESH*%
X127980000Y-71420000D02*
X127980000Y-70600000D01*
X118900000Y-73700000D02*
X119800000Y-72800000D01*
X118900000Y-102400000D02*
X118900000Y-73700000D01*
X126800000Y-72600000D02*
X127980000Y-71420000D01*
%TO.N,SDA_MESH*%
X130520000Y-69320000D02*
X129800000Y-68600000D01*
X130520000Y-70600000D02*
X130520000Y-69320000D01*
X116900000Y-102400000D02*
X116900000Y-69900000D01*
X116900000Y-69900000D02*
X118200000Y-68600000D01*
X130400000Y-70480000D02*
X130520000Y-70600000D01*
%TO.N,MESH_BUTTON_C*%
X110600000Y-100800000D02*
X111600000Y-99800000D01*
X108600000Y-101800000D02*
X109600000Y-101800000D01*
X109600000Y-101800000D02*
X110600000Y-100800000D01*
X111600000Y-82600000D02*
X112400000Y-81800000D01*
X111600000Y-85400000D02*
X111600000Y-82600000D01*
X111600000Y-99800000D02*
X111600000Y-85400000D01*
X134800000Y-81000000D02*
X134850000Y-80950000D01*
X134850000Y-80950000D02*
X134850000Y-65550000D01*
X134850000Y-65550000D02*
X134080000Y-64780000D01*
%TO.N,SDA*%
X167420000Y-70600000D02*
X167420000Y-93620000D01*
X167420000Y-93620000D02*
X168200000Y-94400000D01*
X175600000Y-96200000D02*
X175500000Y-96300000D01*
X175600000Y-95600000D02*
X175600000Y-96200000D01*
X175500000Y-96300000D02*
X175500000Y-102500000D01*
%TO.N,SCL*%
X160980000Y-46580000D02*
X160400000Y-46000000D01*
X160980000Y-49460000D02*
X160980000Y-46580000D01*
X164800000Y-47000000D02*
X164833700Y-47033700D01*
X164833700Y-47033700D02*
X164833700Y-53433700D01*
%TO.N,BUZZER*%
X173680000Y-64700000D02*
X173680000Y-60130000D01*
X173680000Y-60130000D02*
X173200000Y-59650000D01*
X141600000Y-59600000D02*
X141200000Y-60000000D01*
X142200000Y-59600000D02*
X141600000Y-59600000D01*
X141200000Y-60000000D02*
X141200000Y-62200000D01*
%TO.N,LED_A*%
X154600000Y-60600000D02*
X155600000Y-61600000D01*
X154600000Y-44200000D02*
X154600000Y-60600000D01*
X163000000Y-61800000D02*
X163520000Y-62320000D01*
X163520000Y-62320000D02*
X163520000Y-64700000D01*
%TO.N,BUTTON_A*%
X157200000Y-77400000D02*
X157200000Y-50760000D01*
X157200000Y-50760000D02*
X155900000Y-49460000D01*
%TO.N,SDA*%
X169826300Y-52573700D02*
X168800000Y-53600000D01*
X169826300Y-44956300D02*
X169826300Y-52573700D01*
X169645000Y-44775000D02*
X169826300Y-44956300D01*
%TO.N,SCL*%
X175000000Y-51400000D02*
X174993700Y-51393700D01*
X172000000Y-46400000D02*
X172000000Y-44960000D01*
X174993700Y-47143700D02*
X174600000Y-46750000D01*
X174993700Y-51393700D02*
X174993700Y-47143700D01*
X172000000Y-44960000D02*
X172185000Y-44775000D01*
X177500000Y-102500000D02*
X177500000Y-52500000D01*
X177500000Y-52500000D02*
X177000000Y-52000000D01*
%TO.N,SERVO_B*%
X163350000Y-60950000D02*
X163800000Y-61400000D01*
X163350000Y-52330761D02*
X163350000Y-60950000D01*
X163520000Y-52160761D02*
X163350000Y-52330761D01*
X163520000Y-49460000D02*
X163520000Y-52160761D01*
X169826300Y-107573700D02*
X169000000Y-108400000D01*
X169800000Y-61800000D02*
X169826300Y-61826300D01*
X169826300Y-61826300D02*
X169826300Y-107573700D01*
%TO.N,UART_TX*%
X162293700Y-52306300D02*
X162800000Y-51800000D01*
X162293700Y-65207951D02*
X162293700Y-52306300D01*
X169000000Y-50800000D02*
X169000000Y-49860000D01*
X163680000Y-66594251D02*
X162293700Y-65207951D01*
X163680000Y-103140000D02*
X163680000Y-66594251D01*
X165340000Y-104800000D02*
X163680000Y-103140000D01*
X168400000Y-51400000D02*
X169000000Y-50800000D01*
X169000000Y-49860000D02*
X168600000Y-49460000D01*
%TO.N,BUTTON_C*%
X161400000Y-97400000D02*
X161140000Y-97140000D01*
X161140000Y-97140000D02*
X161140000Y-64860000D01*
X161140000Y-64860000D02*
X160980000Y-64700000D01*
%TO.N,BUTTON_B*%
X166000000Y-87600000D02*
X166080000Y-87520000D01*
X166080000Y-87520000D02*
X166080000Y-64720000D01*
X166080000Y-64720000D02*
X166060000Y-64700000D01*
%TO.N,P0.29*%
X177200000Y-47000000D02*
X177200000Y-44840000D01*
X172366300Y-48233700D02*
X172800000Y-47800000D01*
X172366300Y-63473700D02*
X172366300Y-48233700D01*
X171140000Y-64700000D02*
X172366300Y-63473700D01*
X177200000Y-44840000D02*
X177265000Y-44775000D01*
%TO.N,SCL*%
X164880000Y-70600000D02*
X164833700Y-70553700D01*
X164833700Y-70553700D02*
X164833700Y-53433700D01*
X164833700Y-53433700D02*
X164000000Y-52600000D01*
X161000000Y-52000000D02*
X161000000Y-49480000D01*
X161000000Y-49480000D02*
X160980000Y-49460000D01*
%TO.N,SDA*%
X167420000Y-70600000D02*
X167373700Y-70553700D01*
X158400000Y-52800000D02*
X158440000Y-52760000D01*
X158440000Y-52760000D02*
X158440000Y-49460000D01*
X167373700Y-70553700D02*
X167373700Y-54173700D01*
X167373700Y-54173700D02*
X166800000Y-53600000D01*
%TO.N,UART_RX*%
X170800000Y-54800000D02*
X171140000Y-54460000D01*
X147000000Y-76000000D02*
X147000000Y-57400000D01*
X147000000Y-57400000D02*
X147400000Y-57000000D01*
X160260000Y-77460000D02*
X159400000Y-76600000D01*
X160260000Y-104800000D02*
X160260000Y-77460000D01*
X171140000Y-54460000D02*
X171140000Y-49460000D01*
%TO.N,SERVO_A*%
X151000000Y-57800000D02*
X151800000Y-57000000D01*
X151000000Y-87200000D02*
X151000000Y-57800000D01*
X128680000Y-99900000D02*
X128680000Y-89320000D01*
X128680000Y-89320000D02*
X129600000Y-88400000D01*
X166000000Y-55800000D02*
X166060000Y-55740000D01*
X166060000Y-55740000D02*
X166060000Y-49460000D01*
%TO.N,1WIRE*%
X173800000Y-56400000D02*
X173680000Y-56280000D01*
X173680000Y-56280000D02*
X173680000Y-49460000D01*
X133800000Y-104800000D02*
X133800000Y-73600000D01*
X133800000Y-73600000D02*
X134200000Y-73200000D01*
X138200000Y-72600000D02*
X138200000Y-58200000D01*
X138200000Y-58200000D02*
X138600000Y-57800000D01*
D30*
%TO.N,GND*%
X143960000Y-100040000D02*
X144000000Y-100000000D01*
X143960000Y-104800000D02*
X143960000Y-100040000D01*
%TO.N,3V3*%
X138880000Y-102120000D02*
X139000000Y-102000000D01*
X155180000Y-104800000D02*
X155180000Y-102000000D01*
X138880000Y-104800000D02*
X138880000Y-102120000D01*
X155180000Y-102000000D02*
X155180000Y-99020000D01*
%TO.N,GND*%
X150100000Y-100300000D02*
X150200000Y-100200000D01*
X150100000Y-104800000D02*
X150100000Y-100300000D01*
X171500000Y-102500000D02*
X171500000Y-100000000D01*
X171500000Y-100000000D02*
X171500000Y-80500000D01*
%TO.N,3V3*%
X155180000Y-99020000D02*
X155400000Y-98800000D01*
X173500000Y-102500000D02*
X173500000Y-98600000D01*
X173500000Y-98600000D02*
X173500000Y-69700000D01*
X173500000Y-69700000D02*
X173600000Y-69600000D01*
X176200000Y-64720000D02*
X176220000Y-64700000D01*
X176200000Y-69600000D02*
X176200000Y-64720000D01*
%TO.N,GND*%
X181300000Y-64700000D02*
X181300000Y-71700000D01*
X181300000Y-71700000D02*
X180600000Y-72400000D01*
X171400000Y-72400000D02*
X171400000Y-80000000D01*
X171400000Y-80000000D02*
X171200000Y-80200000D01*
X187400000Y-91200000D02*
X187400000Y-100900000D01*
X187400000Y-100900000D02*
X185900000Y-102400000D01*
X187400000Y-81600000D02*
X187400000Y-91200000D01*
X187400000Y-91200000D02*
X185900000Y-92700000D01*
X187400000Y-75600000D02*
X187400000Y-81600000D01*
X187400000Y-81600000D02*
X185900000Y-83100000D01*
X162340000Y-80140000D02*
X162400000Y-80200000D01*
X162340000Y-70600000D02*
X162340000Y-80140000D01*
X171500000Y-80500000D02*
X171200000Y-80200000D01*
D31*
%TO.N,SERVO_B*%
X128580000Y-107000000D02*
X128580000Y-108180000D01*
X128580000Y-108180000D02*
X130000000Y-109600000D01*
%TO.N,MESH_RX*%
X108500000Y-66000000D02*
X108500000Y-64960000D01*
X108500000Y-64960000D02*
X108680000Y-64780000D01*
X109500000Y-67000000D02*
X108500000Y-66000000D01*
D30*
%TO.N,BAT*%
X126140000Y-99900000D02*
X126140000Y-87860000D01*
X126140000Y-87860000D02*
X126400000Y-87600000D01*
X137400000Y-87000000D02*
X137400000Y-86400000D01*
X137400000Y-86400000D02*
X137200000Y-86200000D01*
X126040000Y-107000000D02*
X126040000Y-100000000D01*
X126040000Y-100000000D02*
X126140000Y-99900000D01*
%TO.N,GND*%
X123500000Y-107000000D02*
X123500000Y-100000000D01*
X123500000Y-100000000D02*
X123600000Y-99900000D01*
X186000000Y-92800000D02*
X185900000Y-92700000D01*
X186000000Y-73400000D02*
X185900000Y-73500000D01*
X162340000Y-70600000D02*
X162340000Y-68460000D01*
X162340000Y-68460000D02*
X162400000Y-68400000D01*
X148800000Y-68400000D02*
X148800000Y-62200000D01*
%TO.N,3V3*%
X152400000Y-70600000D02*
X152400000Y-58800000D01*
X141380000Y-70820000D02*
X141400000Y-70800000D01*
%TO.N,GND*%
X149000000Y-80300000D02*
X149000000Y-78000000D01*
X123600000Y-99900000D02*
X123600000Y-78000000D01*
X125440000Y-77640000D02*
X125440000Y-70600000D01*
X125600000Y-77800000D02*
X125440000Y-77640000D01*
%TO.N,3V3*%
X114900000Y-70500000D02*
X115000000Y-70400000D01*
X114900000Y-102400000D02*
X114900000Y-70500000D01*
%TO.N,GND*%
X112900000Y-102400000D02*
X112900000Y-100000000D01*
X112900000Y-100000000D02*
X112800000Y-99900000D01*
X104300000Y-97800000D02*
X104300000Y-99500000D01*
X104300000Y-99500000D02*
X104400000Y-99600000D01*
X112800000Y-102300000D02*
X112900000Y-102400000D01*
X102400000Y-88200000D02*
X102400000Y-97800000D01*
X102400000Y-78800000D02*
X102400000Y-88200000D01*
X103600000Y-64780000D02*
X103600000Y-68300000D01*
X103600000Y-68300000D02*
X104300000Y-69000000D01*
X144320000Y-44000000D02*
X144320000Y-48320000D01*
X144320000Y-48320000D02*
X144400000Y-48400000D01*
X148200000Y-48400000D02*
X148200000Y-54330000D01*
X148200000Y-54330000D02*
X148130000Y-54400000D01*
%TO.N,ANT*%
X145600000Y-41600000D02*
X145600000Y-43990000D01*
X145600000Y-43990000D02*
X145590000Y-44000000D01*
%TO.N,3V3*%
X159800000Y-43600000D02*
X159800000Y-41300000D01*
%TO.N,GND*%
X111220000Y-61820000D02*
X111200000Y-61800000D01*
X111220000Y-64780000D02*
X111220000Y-61820000D01*
X113600000Y-61800000D02*
X113600000Y-64620000D01*
X113600000Y-64620000D02*
X113760000Y-64780000D01*
X108680000Y-49540000D02*
X108680000Y-61680000D01*
X108680000Y-61680000D02*
X108800000Y-61800000D01*
X103400000Y-61800000D02*
X103400000Y-64580000D01*
X103400000Y-64580000D02*
X103600000Y-64780000D01*
%TO.N,3V3*%
X149600000Y-58800000D02*
X149600000Y-54600000D01*
X176220000Y-64700000D02*
X176220000Y-58820000D01*
X176220000Y-58820000D02*
X176200000Y-58800000D01*
X149600000Y-54600000D02*
X149400000Y-54400000D01*
%TO.N,BAT*%
X163400000Y-42600000D02*
X163400000Y-43610000D01*
X163400000Y-43610000D02*
X164565000Y-44775000D01*
X188200000Y-61400000D02*
X188200000Y-40200000D01*
X163400000Y-40400000D02*
X163400000Y-42600000D01*
X183840000Y-64700000D02*
X183840000Y-61440000D01*
X183840000Y-61440000D02*
X183800000Y-61400000D01*
X186400000Y-61400000D02*
X186400000Y-64680000D01*
X186400000Y-64680000D02*
X186380000Y-64700000D01*
%TO.N,GND*%
X181200000Y-58700000D02*
X181200000Y-64600000D01*
X178760000Y-49460000D02*
X178760000Y-58560000D01*
X178760000Y-58560000D02*
X178900000Y-58700000D01*
X181200000Y-64600000D02*
X181300000Y-64700000D01*
X178760000Y-49460000D02*
X176220000Y-49460000D01*
X186200000Y-46700000D02*
X186200000Y-49280000D01*
X186200000Y-49280000D02*
X186380000Y-49460000D01*
X179805000Y-44775000D02*
X179805000Y-46495000D01*
X179805000Y-46495000D02*
X179800000Y-46500000D01*
X178400000Y-46500000D02*
X178400000Y-49100000D01*
X178400000Y-49100000D02*
X178760000Y-49460000D01*
%TO.N,3V3*%
X149500000Y-41300000D02*
X149400000Y-41400000D01*
X149400000Y-41400000D02*
X149400000Y-54400000D01*
%TO.N,BAT*%
X151800000Y-42500000D02*
X151800000Y-45200000D01*
%TO.N,3V3*%
X167105000Y-44775000D02*
X167105000Y-42305000D01*
X167105000Y-42305000D02*
X166100000Y-41300000D01*
%TO.N,V_EXT*%
X162025000Y-46875000D02*
X162000000Y-46900000D01*
X162025000Y-44775000D02*
X162025000Y-46875000D01*
X130500000Y-46900000D02*
X130500000Y-43400000D01*
X130500000Y-43400000D02*
X130000000Y-42900000D01*
%TO.N,GND*%
X115995000Y-46700000D02*
X115995000Y-45405000D01*
X115995000Y-45405000D02*
X116000000Y-45400000D01*
X108700000Y-49520000D02*
X108680000Y-49540000D01*
X108700000Y-47900000D02*
X108700000Y-49520000D01*
X111200000Y-45400000D02*
X111200000Y-47900000D01*
%TO.N,BAT*%
X103700000Y-46700000D02*
X103700000Y-49440000D01*
X103700000Y-49440000D02*
X103600000Y-49540000D01*
X107800000Y-40500000D02*
X107800000Y-46505000D01*
X118500000Y-42400000D02*
X118500000Y-40500000D01*
X107800000Y-46505000D02*
X107995000Y-46700000D01*
D31*
%TO.N,MESH_TX*%
X106140000Y-61460000D02*
X107200000Y-60400000D01*
X180000000Y-59800000D02*
X180000000Y-51200000D01*
X106140000Y-64780000D02*
X106140000Y-61460000D01*
X180000000Y-51200000D02*
X180200000Y-51000000D01*
%TO.N,MESH_RX*%
X154000000Y-66500000D02*
X153500000Y-67000000D01*
X182800000Y-51200000D02*
X182800000Y-62000000D01*
X183840000Y-49460000D02*
X182800000Y-50500000D01*
X154000000Y-63500000D02*
X154000000Y-66500000D01*
X182800000Y-62000000D02*
X182200000Y-62600000D01*
X182800000Y-50500000D02*
X182800000Y-51200000D01*
%TD*%
M02*
